<?xml version="1.0" encoding="utf-8"?>
<svg version="1.1" xmlns="http://www.w3.org/2000/svg" x="0px" y="0px" viewBox="0 0 152.305 152.125" xml:space="preserve">
<path fill="none" stroke="#4167B1" stroke-miterlimit="10" d="M25.262,75.025c0-27.637,22.363-50,50-50v50H25.262z"/>
<path fill="none" stroke="#159647" stroke-miterlimit="10" d="M75.262,127.025c-27.637,0-50-22.363-50-50h50V127.025z"/>
<path fill="none" stroke="#E07226" stroke-miterlimit="10" d="M127.262,77.025c0,27.637-22.363,50-50,50v-50H127.262z"/>
<path fill="none" stroke="#DB3C26" stroke-miterlimit="10" d="M77.262,25.025c27.637,0,50,22.363,50,50h-50V25.025z"/>
<path fill="none" stroke="#DB3C26" stroke-miterlimit="10" d="M132.262,61c0-24.873-24.6-45-55-45V1c38.691,0,70,26.836,70,60
	c0.001,0-7.499,10-7.5,10L132.262,61z"/>
<path fill="none" stroke="#4167B1" stroke-miterlimit="10" d="M61,20.025c-24.873,0-45,24.6-45,55H1c0-38.691,26.836-70,60-70
	c0-0.001,10,7.499,10,7.5L61,20.025z"/>
<path fill="none" stroke="#F37221" stroke-miterlimit="10" d="M91.305,132.025c24.873,0,45-24.6,45-55h15c0,38.691-26.836,70-60,70
	c0,0.001-10-7.499-10-7.5L91.305,132.025z"/>
<path fill="none" stroke="#159647" stroke-miterlimit="10" d="M20.262,91.125c0,24.873,24.6,45,55,45v15c-38.691,0-70-26.836-70-60
	c-0.001,0,7.499-10,7.5-10L20.262,91.125z"/>
<g>
	<g>
		<path d="M11.175,45.664c2.808,0.851,4.211,1.276,7.018,2.126c-0.208,0.689-0.306,1.037-0.486,1.737
			c-1.171-0.301-1.758-0.451-2.93-0.752c-0.262,1.019-0.376,1.534-0.58,2.574c1.188,0.232,1.781,0.348,2.968,0.58
			c-0.14,0.715-0.204,1.077-0.314,1.802c-2.899-0.438-4.349-0.658-7.25-1.096c0.129-0.851,0.202-1.274,0.366-2.113
			c1.122,0.22,1.683,0.329,2.805,0.549c0.21-1.073,0.331-1.604,0.601-2.655c-1.107-0.285-1.661-0.427-2.768-0.711
			C10.816,46.881,10.931,46.473,11.175,45.664z"/>
		<path d="M20.545,41.742c-0.283,0.59-0.42,0.887-0.681,1.489c-0.218-0.037-0.812-0.26-0.812-0.26
			c-0.017,0.019,0.365,0.784,0.375,1.097c0.01,0.313-0.05,0.637-0.179,0.976c-0.191,0.502-0.465,0.864-0.835,1.09
			s-0.776,0.271-1.218,0.125c-0.323-0.107-0.588-0.3-0.793-0.586s-0.31-0.676-0.305-1.163c0.004-0.488,0.183-1.321,0.592-2.473
			c-0.115-0.049-0.172-0.074-0.287-0.123c-0.484-0.208-0.85-0.031-1.081,0.538c-0.247,0.608-0.129,1.047,0.337,1.303
			c-0.293,0.617-0.435,0.929-0.707,1.561c-0.548-0.303-0.852-0.77-0.897-1.402s0.069-1.301,0.349-1.982
			c0.167-0.408,0.371-0.774,0.606-1.095s0.478-0.542,0.725-0.665s0.472-0.176,0.677-0.162c0.205,0.014,0.523,0.124,0.953,0.329
			c0.888,0.424,1.332,0.637,2.22,1.061C20.01,41.602,20.332,41.715,20.545,41.742z M17.414,42.348
			c-0.392,1.195-0.286,1.905,0.243,2.106c0.178,0.067,0.354,0.064,0.53-0.006c0.174-0.07,0.302-0.212,0.389-0.431
			c0.113-0.283,0.104-0.563-0.032-0.846c-0.135-0.282-0.36-0.493-0.676-0.628C17.686,42.465,17.595,42.426,17.414,42.348z"/>
		<path d="M21.897,39.155c-0.322,0.566-0.477,0.854-0.777,1.433c-1.926-0.998-2.891-1.497-4.818-2.495
			c0.32-0.618,0.487-0.924,0.829-1.529c0.352,0.199,0.528,0.298,0.88,0.497c-0.526-0.598-0.621-1.19-0.281-1.753
			c0.048-0.08,0.112-0.175,0.192-0.285c0.538,0.331,0.806,0.496,1.344,0.826c-0.195,0.318-0.3,0.594-0.318,0.822
			c-0.019,0.229,0.053,0.465,0.213,0.707c0.161,0.242,0.434,0.47,0.816,0.688C20.746,38.502,21.13,38.719,21.897,39.155z"/>
		<path d="M20.301,28.579c2.269,1.859,3.402,2.79,5.669,4.649c-0.392,0.477-0.583,0.72-0.957,1.211
			c-0.27-0.206-0.405-0.308-0.675-0.513c0.274,0.699,0.223,1.302-0.157,1.84c-0.359,0.511-0.834,0.781-1.444,0.822
			c-0.611,0.041-1.284-0.161-2.015-0.625c-0.762-0.483-1.253-1.026-1.461-1.643c-0.207-0.616-0.089-1.257,0.36-1.891
			c0.395-0.557,0.894-0.844,1.476-0.859c-0.79-0.598-1.184-0.898-1.974-1.496C19.583,29.466,19.818,29.167,20.301,28.579z
			 M22.453,32.597c-0.679-0.515-1.202-0.536-1.554-0.053c-0.42,0.577-0.125,1.215,0.863,1.901c0.88,0.61,1.493,0.66,1.857,0.159
			c0.14-0.193,0.187-0.417,0.14-0.677s-0.211-0.5-0.497-0.716C22.939,32.966,22.777,32.842,22.453,32.597z"/>
		<path d="M28.902,22.754c0.748,2.18,1.162,3.249,2.063,5.339c-0.446,0.387-0.664,0.583-1.095,0.985
			c-1.213-0.778-1.831-1.157-3.083-1.889c0.694,1.273,1.054,1.901,1.795,3.138c-0.393,0.397-0.586,0.599-0.965,1.009
			c-2.069-0.958-3.131-1.398-5.299-2.2c0.51-0.6,0.771-0.895,1.306-1.473c1.257,0.593,1.878,0.902,3.102,1.544
			c-0.701-1.183-1.041-1.783-1.698-3c0.484-0.481,0.731-0.718,1.232-1.182c1.182,0.724,1.765,1.097,2.912,1.862
			c-0.584-1.266-0.862-1.908-1.395-3.207C28.222,23.304,28.446,23.119,28.902,22.754z"/>
		<path d="M36.907,23.783c-0.563,0.338-0.84,0.512-1.388,0.87c-0.162-0.151-0.532-0.666-0.532-0.666
			c-0.024,0.006-0.126,0.856-0.289,1.123c-0.163,0.266-0.39,0.501-0.681,0.711c-0.432,0.311-0.857,0.458-1.287,0.441
			s-0.789-0.203-1.077-0.569c-0.21-0.268-0.327-0.575-0.343-0.925s0.106-0.73,0.375-1.132c0.269-0.402,0.869-0.995,1.841-1.73
			c-0.068-0.104-0.102-0.156-0.17-0.26c-0.29-0.439-0.692-0.494-1.196-0.148c-0.538,0.37-0.678,0.799-0.429,1.269
			c-0.58,0.351-0.866,0.532-1.434,0.904c-0.292-0.554-0.293-1.11,0.012-1.66s0.766-1.038,1.371-1.452
			c0.362-0.248,0.731-0.442,1.104-0.58s0.697-0.189,0.971-0.157s0.491,0.112,0.655,0.237c0.164,0.125,0.369,0.391,0.615,0.798
			c0.508,0.842,0.761,1.265,1.27,2.107C36.54,23.372,36.744,23.643,36.907,23.783z M33.961,22.566
			c-0.982,0.78-1.277,1.428-0.947,1.887c0.111,0.154,0.258,0.249,0.442,0.287c0.183,0.038,0.37-0.009,0.562-0.143
			c0.249-0.173,0.392-0.414,0.433-0.724c0.042-0.31-0.028-0.608-0.217-0.895C34.125,22.814,34.07,22.731,33.961,22.566z"/>
		<path d="M39.483,22.357c-0.588,0.299-0.88,0.455-1.454,0.776c-1.058-1.895-1.587-2.842-2.646-4.736
			c0.612-0.342,0.922-0.506,1.548-0.827c0.184,0.359,0.277,0.538,0.461,0.897c-0.107-0.79,0.145-1.34,0.749-1.627
			c0.085-0.041,0.193-0.085,0.323-0.134c0.267,0.573,0.402,0.857,0.669,1.43c-0.344,0.161-0.591,0.335-0.735,0.518
			c-0.145,0.182-0.214,0.419-0.215,0.71c0,0.291,0.099,0.634,0.299,1.026C38.882,21.178,39.083,21.57,39.483,22.357z"/>
		<path d="M45.895,17.174c-1.539,0.459-2.295,0.722-3.769,1.308c0.032,0.091,0.063,0.169,0.089,0.236
			c0.143,0.359,0.357,0.588,0.642,0.688c0.284,0.101,0.573,0.096,0.87-0.013c0.553-0.203,0.794-0.583,0.726-1.161
			c0.634-0.17,0.954-0.251,1.595-0.398c-0.08,1.333-0.736,2.182-1.985,2.643c-0.545,0.201-1.039,0.282-1.498,0.236
			c-0.459-0.046-0.893-0.204-1.307-0.477s-0.744-0.671-0.981-1.2c-0.353-0.787-0.382-1.541-0.051-2.258s0.945-1.257,1.829-1.584
			c0.798-0.295,1.577-0.296,2.302-0.011C45.082,15.47,45.587,16.141,45.895,17.174z M41.778,17.621
			c0.831-0.331,1.251-0.486,2.103-0.778c-0.297-0.686-0.766-0.921-1.395-0.69C41.813,16.401,41.58,16.898,41.778,17.621z"/>
	</g>
</g>
<g>
	<g>
		<path d="M108.195,13.366c-0.709-0.067-1.063-0.095-1.77-0.138c-0.021-0.623-0.395-1.062-1.112-1.294
			c-0.768-0.249-1.22-0.15-1.346,0.272c-0.05,0.168-0.021,0.333,0.086,0.492s0.395,0.356,0.857,0.601
			c0.775,0.41,1.316,0.766,1.636,1.046s0.541,0.631,0.666,1.046c0.126,0.416,0.106,0.82-0.049,1.212
			c-0.244,0.616-0.713,1.043-1.39,1.305c-0.677,0.262-1.498,0.217-2.499-0.104c-0.752-0.241-1.346-0.59-1.799-1.069
			c-0.452-0.478-0.691-1.061-0.708-1.759c0.716,0.03,1.073,0.052,1.789,0.108c0,0.712,0.423,1.186,1.26,1.456
			c0.404,0.131,0.729,0.16,0.976,0.084c0.246-0.076,0.405-0.211,0.476-0.41c0.071-0.203,0.035-0.393-0.109-0.567
			c-0.146-0.175-0.465-0.401-0.964-0.671c-0.933-0.502-1.581-0.957-1.929-1.398c-0.349-0.442-0.451-0.974-0.29-1.598
			c0.163-0.631,0.575-1.094,1.245-1.374c0.671-0.28,1.489-0.278,2.43,0.025C107.318,11.167,108.165,12.12,108.195,13.366z"/>
		<path d="M111.858,15.163c0.864,0.417,1.405,1.006,1.615,1.732s0.104,1.444-0.29,2.155c-0.39,0.701-0.943,1.155-1.642,1.389
			c-0.699,0.233-1.404,0.168-2.15-0.191c-0.722-0.348-1.196-0.852-1.436-1.532s-0.212-1.404,0.106-2.171
			c0.221-0.533,0.516-0.941,0.892-1.22c0.375-0.278,0.808-0.447,1.294-0.501C110.733,14.769,111.275,14.881,111.858,15.163z
			 M111.446,16.126c-0.311-0.15-0.598-0.155-0.854-0.016c-0.256,0.14-0.53,0.527-0.821,1.162c-0.268,0.583-0.386,1.035-0.361,1.354
			s0.183,0.548,0.479,0.691c0.259,0.125,0.522,0.122,0.789-0.011c0.267-0.133,0.552-0.496,0.855-1.092
			c0.323-0.635,0.467-1.104,0.432-1.406S111.757,16.276,111.446,16.126z"/>
		<path d="M116.498,19.295c-0.896,1.411-1.345,2.117-2.241,3.528c-0.544-0.345-0.82-0.512-1.376-0.839
			c0.848-1.44,1.274-2.163,2.121-3.604c-0.244-0.144-0.368-0.214-0.614-0.355c0.247-0.433,0.369-0.649,0.616-1.082
			c0.252,0.144,0.378,0.216,0.628,0.363c0.29-0.478,0.538-0.805,0.743-0.981c0.205-0.177,0.513-0.258,0.927-0.239
			c0.414,0.02,0.892,0.196,1.418,0.537c0.217,0.14,0.454,0.32,0.71,0.539c-0.275,0.411-0.411,0.616-0.686,1.026
			c-0.213-0.165-0.396-0.294-0.543-0.39c-0.214-0.139-0.389-0.183-0.521-0.131s-0.268,0.187-0.406,0.404
			c-0.044,0.069-0.065,0.103-0.109,0.171c0.383,0.243,0.573,0.367,0.95,0.618c-0.276,0.415-0.413,0.621-0.689,1.036
			C117.057,19.653,116.872,19.532,116.498,19.295z"/>
		<path d="M120.079,21.787c-0.555,0.73-0.835,1.095-1.391,1.825c-0.174,0.228-0.251,0.408-0.237,0.54s0.151,0.299,0.415,0.506
			c0.121,0.095,0.268,0.201,0.435,0.317c-0.297,0.37-0.447,0.555-0.745,0.925c-0.424-0.24-0.72-0.417-0.887-0.545
			c-0.543-0.417-0.858-0.807-0.944-1.184c-0.085-0.377,0.062-0.838,0.448-1.385c0.583-0.825,0.873-1.237,1.456-2.062
			c-0.315-0.223-0.475-0.333-0.794-0.55c0.28-0.412,0.421-0.62,0.701-1.032c0.362,0.246,0.541,0.371,0.897,0.624
			c0.419-0.488,0.631-0.73,1.053-1.215c0.558,0.345,0.83,0.521,1.378,0.883c-0.414,0.543-0.618,0.817-1.032,1.36
			c0.427,0.325,0.637,0.49,1.055,0.825c-0.312,0.389-0.465,0.582-0.776,0.971C120.702,22.264,120.496,22.104,120.079,21.787z"/>
		<path d="M128.589,28.031c-2.13,0.861-3.173,1.328-5.216,2.325c-0.399-0.424-0.603-0.633-1.015-1.044
			c0.735-1.24,1.094-1.869,1.787-3.139c-1.241,0.743-1.854,1.126-3.063,1.911c-0.404-0.375-0.607-0.558-1.022-0.921
			c0.905-2.092,1.324-3.16,2.092-5.332c0.596,0.484,0.889,0.732,1.467,1.237c-0.566,1.266-0.861,1.891-1.47,3.129
			c1.155-0.741,1.742-1.103,2.93-1.806c0.484,0.456,0.721,0.689,1.19,1.16c-0.688,1.2-1.038,1.794-1.761,2.967
			c1.236-0.64,1.864-0.949,3.132-1.543C128.027,27.392,128.214,27.603,128.589,28.031z"/>
		<path d="M127.916,35.979c-0.366-0.532-0.554-0.795-0.937-1.313c0.142-0.169,0.635-0.567,0.635-0.567
			c-0.008-0.023-0.855-0.068-1.127-0.212c-0.272-0.145-0.519-0.354-0.74-0.63c-0.328-0.409-0.492-0.821-0.493-1.249
			c0-0.427,0.171-0.794,0.522-1.099c0.257-0.223,0.559-0.356,0.905-0.392s0.728,0.063,1.136,0.304
			c0.408,0.239,1.019,0.794,1.791,1.7c0.1-0.074,0.149-0.111,0.249-0.186c0.422-0.314,0.455-0.713,0.092-1.184
			c-0.389-0.503-0.817-0.612-1.272-0.338c-0.37-0.548-0.561-0.821-0.948-1.358c0.537-0.319,1.088-0.353,1.643-0.087
			c0.555,0.267,1.056,0.684,1.489,1.248c0.26,0.339,0.47,0.689,0.623,1.044c0.152,0.354,0.217,0.668,0.197,0.938
			c-0.02,0.271-0.088,0.49-0.204,0.659c-0.115,0.169-0.368,0.389-0.76,0.66c-0.809,0.56-1.212,0.841-2.021,1.401
			C128.307,35.588,128.045,35.809,127.916,35.979z M128.975,32.993c-0.818-0.914-1.471-1.168-1.912-0.813
			c-0.148,0.119-0.238,0.271-0.269,0.455c-0.029,0.184,0.026,0.364,0.168,0.545c0.183,0.235,0.428,0.362,0.737,0.383
			c0.309,0.021,0.604-0.07,0.879-0.275C128.737,33.17,128.817,33.111,128.975,32.993z"/>
		<path d="M129.481,38.409c-0.334-0.555-0.506-0.83-0.858-1.372c1.818-1.184,2.729-1.775,4.55-2.957
			c0.371,0.571,0.551,0.859,0.904,1.443c-0.346,0.209-0.52,0.314-0.865,0.523c0.776-0.169,1.337,0.031,1.658,0.594
			c0.046,0.08,0.097,0.181,0.152,0.303c-0.551,0.309-0.826,0.465-1.377,0.774c-0.181-0.322-0.368-0.545-0.558-0.671
			s-0.43-0.178-0.718-0.154c-0.288,0.024-0.623,0.149-1,0.377C130.614,37.725,130.237,37.953,129.481,38.409z"/>
		<path d="M135.096,44.201c-0.583-1.444-0.904-2.151-1.592-3.533c-0.089,0.039-0.163,0.074-0.228,0.106
			c-0.346,0.172-0.557,0.403-0.636,0.689s-0.053,0.568,0.078,0.847c0.243,0.52,0.643,0.72,1.211,0.597
			c0.219,0.599,0.323,0.903,0.522,1.51c-1.328,0.059-2.229-0.499-2.782-1.677c-0.242-0.515-0.361-0.991-0.35-1.444
			c0.013-0.454,0.142-0.895,0.384-1.323s0.615-0.782,1.124-1.06c0.757-0.413,1.503-0.506,2.236-0.249s1.308,0.802,1.696,1.625
			c0.351,0.743,0.41,1.493,0.184,2.221C136.718,43.238,136.095,43.797,135.096,44.201z M134.334,40.249
			c0.387,0.778,0.571,1.17,0.927,1.968c0.657-0.354,0.855-0.832,0.579-1.419C135.545,40.169,135.037,39.99,134.334,40.249z"/>
	</g>
</g>
<g>
	<g>
		<path d="M103.489,132.947c1.876,2.468,2.878,3.669,5.002,5.992c-0.855,0.331-1.289,0.489-2.161,0.788
			c-0.409-0.498-0.608-0.748-1.007-1.252c-1.096,0.363-1.65,0.53-2.771,0.84c-0.057,0.643-0.091,0.963-0.16,1.606
			c-0.734,0.195-1.103,0.286-1.847,0.458c0.502-3.126,0.673-4.687,0.862-7.79C102.248,133.351,102.664,133.221,103.489,132.947z
			 M102.663,137.88c0.715-0.204,1.069-0.314,1.773-0.541c-0.665-0.867-0.99-1.304-1.625-2.186
			C102.769,136.241,102.74,136.788,102.663,137.88z"/>
		<path d="M110.002,140.313c-1.09-2.691-1.637-4.036-2.727-6.727c0.613-0.248,0.918-0.377,1.521-0.644
			c0.129,0.291,0.193,0.435,0.322,0.726c0.037-0.679,0.397-1.167,1.08-1.494c0.591-0.283,1.173-0.312,1.763-0.087
			s1.101,0.726,1.522,1.519c0.449,0.845,0.593,1.586,0.407,2.228s-0.618,1.134-1.292,1.456c-0.682,0.325-1.275,0.331-1.762,0.025
			c0.396,0.89,0.591,1.333,0.986,2.223C111.101,139.858,110.739,140.015,110.002,140.313z M110.119,135.693
			c0.155,0.35,0.288,0.58,0.399,0.691c0.11,0.111,0.273,0.186,0.487,0.217s0.416,0,0.608-0.09c0.24-0.112,0.407-0.314,0.496-0.605
			s-0.037-0.78-0.371-1.466c-0.47-0.962-0.991-1.299-1.575-1.027c-0.222,0.104-0.385,0.281-0.489,0.536
			c-0.105,0.256-0.067,0.593,0.117,1.009C109.922,135.253,109.988,135.398,110.119,135.693z"/>
		<path d="M116.794,137.051c-1.419-2.533-2.129-3.8-3.548-6.332c0.57-0.319,0.855-0.483,1.414-0.819
			c0.164,0.272,0.245,0.408,0.409,0.681c-0.051-0.676,0.238-1.204,0.869-1.609c0.545-0.351,1.114-0.449,1.725-0.298
			s1.179,0.587,1.695,1.321c0.551,0.782,0.784,1.496,0.684,2.154s-0.463,1.199-1.085,1.599c-0.629,0.404-1.211,0.479-1.729,0.235
			c0.503,0.833,0.754,1.25,1.258,2.084C117.817,136.471,117.479,136.667,116.794,137.051z M116.313,132.465
			c0.198,0.328,0.357,0.538,0.48,0.635c0.122,0.097,0.293,0.151,0.507,0.156s0.412-0.051,0.59-0.162
			c0.222-0.14,0.356-0.357,0.407-0.656s-0.136-0.77-0.553-1.408c-0.586-0.896-1.141-1.166-1.68-0.827
			c-0.205,0.129-0.344,0.326-0.414,0.591c-0.071,0.266,0.01,0.593,0.245,0.982C116.063,132.052,116.146,132.188,116.313,132.465z"/>
		<path d="M121.974,131.533c-1.74-2.361-2.608-3.543-4.349-5.904c0.548-0.403,0.817-0.609,1.35-1.03
			c1.817,2.302,2.726,3.453,4.544,5.756C122.91,130.836,122.6,131.071,121.974,131.533z"/>
		<path d="M121.239,122.501c0.427,0.478,0.64,0.717,1.066,1.194c-0.52,0.464-0.784,0.693-1.319,1.141
			c-0.41-0.491-0.616-0.738-1.026-1.229C120.478,123.173,120.735,122.951,121.239,122.501z M122.609,124.035
			c1.445,1.618,2.166,2.428,3.612,4.047c-0.578,0.517-0.871,0.77-1.467,1.267c-1.392-1.666-2.087-2.498-3.478-4.163
			C121.817,124.734,122.084,124.504,122.609,124.035z"/>
		<path d="M129.844,121.516c0.438,0.474,0.635,1.039,0.572,1.701c-0.062,0.661-0.389,1.314-0.98,1.929
			c-0.644,0.668-1.364,1.017-2.131,1.05s-1.435-0.272-2.013-0.893c-0.579-0.622-0.842-1.315-0.813-2.075s0.356-1.447,0.979-2.097
			c0.501-0.522,1.048-0.831,1.665-0.925c0.616-0.093,1.171,0.029,1.656,0.382c-0.419,0.534-0.633,0.801-1.069,1.323
			c-0.518-0.399-0.969-0.389-1.367,0.027c-0.489,0.511-0.378,1.124,0.357,1.857c0.489,0.488,0.874,0.726,1.152,0.708
			c0.279-0.019,0.524-0.136,0.732-0.353c0.405-0.422,0.415-0.896,0.032-1.404C129.117,122.262,129.36,122.017,129.844,121.516z"/>
		<path d="M135.51,117.506c-0.424,0.62-0.642,0.928-1.085,1.533c-0.209-0.078-0.737-0.43-0.737-0.43
			c-0.025,0.017,0.131,0.902,0.035,1.238c-0.097,0.337-0.273,0.673-0.531,0.998c-0.381,0.482-0.805,0.777-1.258,0.891
			c-0.452,0.112-0.856,0.014-1.211-0.287c-0.26-0.221-0.426-0.507-0.509-0.853s-0.04-0.748,0.125-1.21
			c0.164-0.462,0.595-1.19,1.254-2.217c-0.101-0.074-0.152-0.111-0.253-0.186c-0.423-0.312-0.806-0.229-1.16,0.236
			c-0.379,0.497-0.39,0.93-0.023,1.313c-0.459,0.489-0.69,0.731-1.163,1.205c-0.4-0.48-0.526-1.01-0.389-1.588
			c0.139-0.579,0.411-1.131,0.817-1.667c0.244-0.321,0.506-0.602,0.785-0.841c0.279-0.238,0.547-0.393,0.802-0.459
			c0.257-0.066,0.484-0.076,0.683-0.026s0.496,0.209,0.889,0.479c0.811,0.557,1.214,0.833,2.025,1.39
			C134.996,117.294,135.297,117.455,135.51,117.506z M132.228,117.639c-0.676,1.104-0.82,1.814-0.376,2.166
			c0.148,0.117,0.317,0.166,0.513,0.141s0.371-0.139,0.529-0.344c0.205-0.267,0.282-0.563,0.229-0.885
			c-0.053-0.32-0.222-0.581-0.498-0.785C132.466,117.814,132.387,117.756,132.228,117.639z"/>
		<path d="M133.892,112.279c0.788,0.469,1.182,0.703,1.971,1.172c0.246,0.146,0.437,0.201,0.571,0.163s0.301-0.222,0.488-0.549
			c0.086-0.15,0.179-0.327,0.277-0.534c0.415,0.232,0.622,0.348,1.037,0.58c-0.207,0.532-0.378,0.902-0.504,1.117
			c-0.41,0.697-0.825,1.117-1.221,1.266s-0.875,0.038-1.439-0.323c-0.851-0.545-1.275-0.817-2.126-1.362
			c-0.209,0.325-0.313,0.487-0.527,0.809c-0.415-0.276-0.623-0.414-1.038-0.69c0.231-0.347,0.345-0.524,0.569-0.876
			c-0.509-0.393-0.765-0.587-1.275-0.977c0.278-0.52,0.413-0.78,0.677-1.307c0.587,0.35,0.881,0.523,1.468,0.873
			c0.262-0.44,0.391-0.662,0.643-1.109c0.435,0.244,0.652,0.368,1.087,0.612C134.292,111.602,134.161,111.828,133.892,112.279z"/>
		<path d="M132.907,107.187c0.574,0.284,0.86,0.427,1.435,0.711c-0.312,0.628-0.472,0.938-0.804,1.555
			c-0.564-0.304-0.847-0.455-1.411-0.759C132.448,108.097,132.605,107.795,132.907,107.187z M134.749,108.099
			c1.944,0.964,2.917,1.446,4.862,2.409c-0.346,0.698-0.525,1.044-0.894,1.729c-1.912-1.028-2.867-1.543-4.778-2.571
			C134.273,109.045,134.434,108.732,134.749,108.099z"/>
		<path d="M136.262,104.465c0.344-0.848,0.843-1.42,1.528-1.729s1.411-0.346,2.18-0.082c0.759,0.26,1.301,0.747,1.607,1.477
			c0.307,0.73,0.284,1.564-0.084,2.47c-0.356,0.877-0.907,1.468-1.619,1.758c-0.713,0.29-1.447,0.244-2.198-0.108
			c-0.522-0.245-0.912-0.564-1.179-0.948s-0.43-0.807-0.492-1.278C135.943,105.553,136.03,105.037,136.262,104.465z M137.25,104.813
			c-0.128,0.316-0.12,0.601,0.028,0.852s0.545,0.517,1.187,0.791c0.589,0.252,1.044,0.353,1.369,0.3s0.561-0.253,0.701-0.6
			c0.123-0.303,0.11-0.594-0.039-0.867s-0.537-0.529-1.162-0.769c-0.666-0.255-1.15-0.346-1.449-0.28
			C137.587,104.306,137.379,104.496,137.25,104.813z"/>
		<path d="M144.4,96.707c-0.165,0.78-0.252,1.167-0.442,1.938c-1.183-0.293-1.773-0.438-2.955-0.731
			c-0.358-0.089-0.608-0.133-0.748-0.133c-0.139,0-0.272,0.048-0.396,0.148s-0.208,0.246-0.257,0.433
			c-0.164,0.624,0.146,1.043,0.946,1.269c1.172,0.33,1.758,0.497,2.93,0.827c-0.215,0.762-0.328,1.139-0.567,1.891
			c-2.067-0.659-3.102-0.988-5.169-1.647c0.202-0.633,0.3-0.953,0.482-1.595c0.354,0.101,0.529,0.152,0.883,0.253
			c-0.344-0.391-0.542-0.729-0.593-1.022s-0.039-0.588,0.037-0.892c0.141-0.562,0.378-0.984,0.727-1.273
			c0.348-0.288,0.92-0.355,1.715-0.188C142.357,96.272,143.036,96.419,144.4,96.707z"/>
		<path d="M141.314,89.648c0.073,0.558,0.108,0.838,0.168,1.398c-0.506,0.102-0.799,0.48-0.891,1.133
			c-0.087,0.616,0.023,0.947,0.346,0.999c0.127,0.021,0.239-0.021,0.333-0.123c0.094-0.102,0.206-0.393,0.326-0.87
			c0.18-0.712,0.336-1.242,0.48-1.583s0.354-0.604,0.626-0.79s0.592-0.265,0.964-0.232c0.557,0.049,0.988,0.351,1.283,0.916
			s0.39,1.336,0.256,2.288c-0.242,1.725-0.979,2.641-2.093,2.757c0.048-0.659,0.068-0.99,0.097-1.65
			c0.502-0.055,0.828-0.501,0.945-1.349c0.045-0.324,0.032-0.605-0.034-0.84c-0.066-0.236-0.181-0.364-0.342-0.383
			c-0.249-0.029-0.424,0.2-0.535,0.681c-0.303,1.303-0.668,2.124-1.021,2.48c-0.354,0.356-0.781,0.481-1.28,0.387
			c-0.507-0.097-0.88-0.403-1.132-0.914c-0.251-0.511-0.312-1.163-0.197-1.979c0.09-0.646,0.263-1.153,0.53-1.521
			S140.798,89.815,141.314,89.648z"/>
	</g>
</g>
<g>
	<g>
		<path d="M21.414,112.95c-0.484-0.452-0.724-0.683-1.197-1.159c0.412-0.462,0.46-0.991,0.157-1.608
			c-0.323-0.659-0.674-0.902-1.073-0.718c-0.16,0.073-0.265,0.2-0.315,0.378c-0.051,0.179-0.011,0.515,0.128,1.001
			c0.232,0.813,0.385,1.426,0.435,1.841c0.049,0.416-0.006,0.821-0.171,1.226c-0.164,0.403-0.423,0.712-0.79,0.924
			c-0.573,0.332-1.22,0.362-1.939,0.061c-0.72-0.302-1.379-1.004-1.917-2.108c-0.404-0.829-0.572-1.621-0.515-2.349
			c0.058-0.727,0.37-1.311,0.919-1.748c0.417,0.647,0.63,0.965,1.067,1.588c-0.538,0.472-0.607,1.161-0.178,2.035
			c0.207,0.422,0.435,0.7,0.675,0.834s0.453,0.147,0.64,0.049c0.19-0.1,0.289-0.268,0.3-0.502c0.011-0.235-0.069-0.635-0.23-1.201
			c-0.3-1.056-0.365-1.867-0.238-2.417c0.127-0.549,0.496-0.944,1.091-1.191c0.601-0.249,1.208-0.216,1.821,0.071
			s1.094,0.809,1.468,1.574C22.215,110.886,22.189,111.992,21.414,112.95z"/>
		<path d="M22.499,120.441c-0.987-1.267-1.457-1.922-2.341-3.271c-0.082,0.049-0.152,0.093-0.213,0.133
			c-0.323,0.212-0.502,0.471-0.531,0.782c-0.03,0.312,0.054,0.613,0.247,0.893c0.36,0.521,0.814,0.659,1.35,0.426
			c0.362,0.572,0.547,0.857,0.928,1.417c-1.28,0.397-2.395-0.017-3.248-1.253c-0.372-0.539-0.589-1.068-0.654-1.569
			s0.005-0.987,0.207-1.451c0.202-0.465,0.557-0.844,1.054-1.143c0.74-0.445,1.479-0.561,2.216-0.382
			c0.737,0.179,1.327,0.608,1.801,1.298c0.428,0.622,0.608,1.286,0.544,2.02C23.793,119.074,23.35,119.779,22.499,120.441z
			 M20.932,116.653c0.479,0.73,0.728,1.091,1.238,1.798c0.571-0.483,0.673-0.971,0.32-1.482
			C22.112,116.421,21.601,116.312,20.932,116.653z"/>
		<path d="M22.537,124.319c-0.493-0.562-0.735-0.849-1.208-1.428c1.682-1.373,2.522-2.057,4.203-3.431
			c0.401,0.49,0.605,0.731,1.021,1.207c-0.304,0.266-0.456,0.398-0.76,0.664c0.729-0.308,1.284-0.244,1.689,0.194
			c0.057,0.063,0.124,0.143,0.201,0.239c-0.461,0.432-0.692,0.649-1.153,1.081c-0.247-0.265-0.474-0.44-0.683-0.522
			s-0.453-0.084-0.733-0.009s-0.586,0.255-0.918,0.546C23.532,123.444,23.201,123.736,22.537,124.319z"/>
		<path d="M31.828,125.817c-2.004,1.157-3.036,1.696-5.156,2.702c-0.443-0.402-0.663-0.605-1.094-1.021
			c0.86-2.186,1.331-3.251,2.347-5.331c0.495,0.519,0.747,0.772,1.261,1.271c-0.635,1.301-0.938,1.96-1.518,3.298
			c1.297-0.674,1.935-1.023,3.189-1.752C31.241,125.323,31.435,125.49,31.828,125.817z"/>
		<path d="M34.996,125.697c-0.384,0.514-0.575,0.771-0.958,1.284c-0.547-0.408-0.816-0.619-1.348-1.047
			c0.402-0.499,0.603-0.749,1.005-1.248C34.208,125.1,34.468,125.303,34.996,125.697z M33.765,127.344
			c-1.299,1.74-1.95,2.609-3.25,4.348c-0.616-0.46-0.92-0.697-1.519-1.18c1.363-1.689,2.045-2.531,3.407-4.223
			C32.94,126.722,33.213,126.932,33.765,127.344z"/>
		<path d="M37.65,133.868c-0.37,0.527-0.881,0.84-1.542,0.919c-0.658,0.078-1.361-0.104-2.083-0.555
			c-0.784-0.49-1.271-1.123-1.456-1.865c-0.184-0.74-0.017-1.456,0.475-2.146c0.493-0.692,1.118-1.092,1.861-1.223
			c0.741-0.131,1.472,0.043,2.225,0.512c0.606,0.377,1.013,0.843,1.229,1.425c0.216,0.58,0.213,1.146-0.028,1.695
			c-0.607-0.294-0.909-0.449-1.505-0.764c0.283-0.588,0.183-1.024-0.301-1.325c-0.595-0.369-1.169-0.127-1.736,0.742
			c-0.377,0.579-0.532,1.004-0.458,1.271c0.075,0.269,0.239,0.484,0.493,0.643c0.494,0.308,0.954,0.216,1.371-0.266
			C36.769,133.316,37.06,133.503,37.65,133.868z"/>
		<path d="M43.847,136.301c-1.513-0.584-2.255-0.908-3.707-1.608c-0.045,0.084-0.083,0.157-0.114,0.223
			c-0.168,0.349-0.187,0.663-0.052,0.945c0.135,0.282,0.358,0.497,0.668,0.638c0.578,0.262,1.044,0.149,1.383-0.326
			c0.608,0.307,0.916,0.455,1.537,0.742c-0.897,0.997-2.077,1.213-3.447,0.59c-0.598-0.271-1.054-0.613-1.367-1.01
			c-0.312-0.396-0.501-0.847-0.566-1.348c-0.065-0.502,0.044-1.013,0.316-1.524c0.406-0.762,0.98-1.24,1.703-1.466
			c0.723-0.226,1.448-0.162,2.211,0.186c0.689,0.314,1.186,0.793,1.513,1.457C44.252,134.463,44.236,135.295,43.847,136.301z
			 M40.54,133.853c0.787,0.38,1.184,0.563,1.99,0.909c0.242-0.708,0.076-1.183-0.491-1.44
			C41.432,133.045,40.938,133.216,40.54,133.853z"/>
		<path d="M49.9,136.481c-0.544-0.01-0.816-0.019-1.361-0.044c-0.015-0.514-0.328-0.856-0.937-1.046
			c-0.574-0.179-0.909-0.12-1.012,0.189c-0.041,0.122-0.021,0.237,0.061,0.345c0.082,0.108,0.342,0.261,0.779,0.452
			c0.652,0.285,1.134,0.521,1.437,0.716s0.521,0.437,0.655,0.732c0.134,0.296,0.157,0.627,0.067,0.989
			c-0.135,0.542-0.491,0.918-1.083,1.125c-0.591,0.207-1.349,0.184-2.244-0.095c-1.623-0.504-2.382-1.377-2.304-2.49
			c0.625,0.15,0.939,0.223,1.569,0.354c-0.032,0.503,0.345,0.894,1.14,1.139c0.305,0.094,0.579,0.122,0.816,0.093
			c0.236-0.029,0.378-0.124,0.423-0.28c0.068-0.24-0.125-0.445-0.568-0.629c-1.2-0.496-1.929-0.984-2.211-1.386
			c-0.283-0.402-0.33-0.845-0.153-1.321c0.179-0.483,0.539-0.806,1.068-0.975s1.164-0.129,1.921,0.105
			c0.6,0.186,1.052,0.434,1.359,0.752C49.628,135.524,49.822,135.947,49.9,136.481z"/>
	</g>
</g>
<path d="M62.354,46.862c0.034-0.377,0.258-0.935,0.816-0.935c0.592,0,0.73,0.595,0.73,0.935H62.354L62.354,46.862z M65.069,47.852
	c0.018-0.112,0.044-0.33,0.044-0.576c0-1.141-0.516-2.302-1.874-2.302c-1.451,0-2.123,1.292-2.123,2.463
	c0,1.454,0.816,2.361,2.243,2.361c0.567,0,1.091-0.096,1.521-0.294l-0.172-0.971c-0.353,0.132-0.714,0.198-1.16,0.198
	c-0.61,0-1.143-0.283-1.186-0.888L65.069,47.852L65.069,47.852z M56.58,49.702h1.306V47.04c0-0.131,0.009-0.264,0.044-0.357
	c0.093-0.265,0.31-0.538,0.67-0.538c0.473,0,0.661,0.406,0.661,1v2.558h1.306v-2.727c0-1.359-0.643-1.991-1.503-1.991
	c-0.705,0-1.125,0.444-1.297,0.745H57.74l-0.06-0.642h-1.134c0.017,0.416,0.034,0.897,0.034,1.473V49.702L56.58,49.702z
	 M53.917,48.777c-0.55,0-0.851-0.593-0.851-1.376c0-0.69,0.24-1.388,0.859-1.388c0.593,0,0.834,0.698,0.834,1.378
	c0,0.83-0.318,1.386-0.834,1.386H53.917L53.917,48.777z M53.908,49.808c1.117,0,2.208-0.776,2.208-2.455
	c0-1.397-0.858-2.369-2.139-2.369c-1.358,0-2.251,0.952-2.251,2.443s0.946,2.38,2.174,2.38H53.908L53.908,49.808z M47.189,49.702
	h1.306v-2.737c0-0.104,0.009-0.227,0.043-0.312c0.094-0.264,0.308-0.509,0.653-0.509c0.49,0,0.679,0.416,0.679,1.019v2.539h1.306
	v-2.69c0-1.396-0.635-2.028-1.469-2.028c-0.24,0-0.481,0.065-0.679,0.178c-0.206,0.114-0.378,0.273-0.515,0.482h-0.018v-2.642
	h-1.306V49.702L47.189,49.702z M43.726,44.437c0.094-0.029,0.275-0.048,0.541-0.048c0.662,0,1.023,0.349,1.023,0.935
	c0,0.642-0.43,1.028-1.126,1.028c-0.189,0-0.326-0.01-0.438-0.038V44.437L43.726,44.437z M42.428,49.702h1.298v-2.284
	c0.119,0.028,0.275,0.038,0.446,0.038c0.773,0,1.443-0.216,1.891-0.67c0.344-0.349,0.524-0.878,0.524-1.509
	c0-0.624-0.24-1.151-0.61-1.463c-0.387-0.349-0.971-0.519-1.779-0.519c-0.799,0-1.366,0.057-1.77,0.132V49.702L42.428,49.702z
	 M41.028,44.484c0.455,0,0.739-0.34,0.739-0.765c-0.009-0.434-0.284-0.765-0.73-0.765c-0.448,0-0.739,0.331-0.739,0.765
	c0,0.424,0.284,0.765,0.722,0.765H41.028L41.028,44.484z M41.681,49.702v-4.615h-1.306v4.615H41.681L41.681,49.702z"/>
<linearGradient id="SVGID_1_" gradientUnits="userSpaceOnUse" x1="94.145" y1="35.8882" x2="94.145" y2="50.8159">
	<stop  offset="0.25" style="stop-color:#90CEF1"/>
	<stop  offset="1" style="stop-color:#C7EAFB"/>
</linearGradient>
<path fill-rule="evenodd" clip-rule="evenodd" fill="url(#SVGID_1_)" d="M88.694,44.603h3.445c-0.533,2.074-0.4,4.145-0.021,6.213
	h7.478V35.888h-7.998C90.133,38.325,88.811,40.898,88.694,44.603z"/>
<linearGradient id="SVGID_2_" gradientUnits="userSpaceOnUse" x1="99.4185" y1="47.4414" x2="99.4185" y2="36.2588">
	<stop  offset="0.25" style="stop-color:#90CEF1"/>
	<stop  offset="1" style="stop-color:#C7EAFB"/>
</linearGradient>
<polygon fill-rule="evenodd" clip-rule="evenodd" fill="url(#SVGID_2_)" points="99.596,50.816 99.596,36.226 99.241,36.241
	99.241,50.799 "/>
<linearGradient id="SVGID_3_" gradientUnits="userSpaceOnUse" x1="94.73" y1="39.2686" x2="94.73" y2="35.9543">
	<stop  offset="0" style="stop-color:#FFFFFF"/>
	<stop  offset="1" style="stop-color:#B9E5FB"/>
</linearGradient>
<path fill-rule="evenodd" clip-rule="evenodd" fill="url(#SVGID_3_)" d="M89.864,39.063c3.25-0.024,6.419,0.137,9.732,0.541v-3.716
	h-8.044L89.864,39.063z"/>
<linearGradient id="SVGID_4_" gradientUnits="userSpaceOnUse" x1="95.481" y1="35.8989" x2="95.481" y2="39.548">
	<stop  offset="0.25" style="stop-color:#90CEF1"/>
	<stop  offset="1" style="stop-color:#C7EAFB"/>
</linearGradient>
<polygon fill-rule="evenodd" clip-rule="evenodd" fill="url(#SVGID_4_)" points="99.596,39.604 99.241,39.568 99.241,36.241
	91.365,36.241 91.552,35.888 99.596,35.888 "/>
<linearGradient id="SVGID_5_" gradientUnits="userSpaceOnUse" x1="92.1187" y1="50.7314" x2="99.5962" y2="50.7314">
	<stop  offset="0.25" style="stop-color:#90CEF1"/>
	<stop  offset="1" style="stop-color:#C7EAFB"/>
</linearGradient>
<rect x="92.119" y="50.646" fill-rule="evenodd" clip-rule="evenodd" fill="url(#SVGID_5_)" width="7.478" height="0.169"/>
<linearGradient id="SVGID_6_" gradientUnits="userSpaceOnUse" x1="86.6987" y1="35.8882" x2="86.6987" y2="50.8159">
	<stop  offset="0.25" style="stop-color:#7DA7D9"/>
	<stop  offset="0.406" style="stop-color:#7CA5D6"/>
	<stop  offset="0.5313" style="stop-color:#759DCE"/>
	<stop  offset="0.6461" style="stop-color:#6A90C3"/>
	<stop  offset="0.7544" style="stop-color:#5B7FB5"/>
	<stop  offset="0.8583" style="stop-color:#456DA5"/>
	<stop  offset="0.9575" style="stop-color:#265894"/>
	<stop  offset="1" style="stop-color:#144E8C"/>
</linearGradient>
<path fill-rule="evenodd" clip-rule="evenodd" fill="url(#SVGID_6_)" d="M81.305,35.888v14.928h10.787
	c-0.529-2.111-0.54-4.222-0.005-6.333c-0.36,0.272-2.978-0.207-3.346,0.067c0.115-3.297,1.369-6.023,2.805-8.662H81.305z"/>
<linearGradient id="SVGID_7_" gradientUnits="userSpaceOnUse" x1="81.4819" y1="47.4414" x2="81.4819" y2="36.2588">
	<stop  offset="0.25" style="stop-color:#7DA7D9"/>
	<stop  offset="0.406" style="stop-color:#7CA5D6"/>
	<stop  offset="0.5313" style="stop-color:#759DCE"/>
	<stop  offset="0.6461" style="stop-color:#6A90C3"/>
	<stop  offset="0.7544" style="stop-color:#5B7FB5"/>
	<stop  offset="0.8583" style="stop-color:#456DA5"/>
	<stop  offset="0.9575" style="stop-color:#265894"/>
	<stop  offset="1" style="stop-color:#144E8C"/>
</linearGradient>
<polygon fill-rule="evenodd" clip-rule="evenodd" fill="url(#SVGID_7_)" points="81.659,50.816 81.659,36.226 81.305,36.241
	81.305,50.799 "/>
<linearGradient id="SVGID_8_" gradientUnits="userSpaceOnUse" x1="81.3052" y1="50.7314" x2="91.9575" y2="50.7314">
	<stop  offset="0.25" style="stop-color:#7DA7D9"/>
	<stop  offset="0.406" style="stop-color:#7CA5D6"/>
	<stop  offset="0.5313" style="stop-color:#759DCE"/>
	<stop  offset="0.6461" style="stop-color:#6A90C3"/>
	<stop  offset="0.7544" style="stop-color:#5B7FB5"/>
	<stop  offset="0.8583" style="stop-color:#456DA5"/>
	<stop  offset="0.9575" style="stop-color:#265894"/>
	<stop  offset="1" style="stop-color:#144E8C"/>
</linearGradient>
<rect x="81.305" y="50.646" fill-rule="evenodd" clip-rule="evenodd" fill="url(#SVGID_8_)" width="10.652" height="0.169"/>
<linearGradient id="SVGID_9_" gradientUnits="userSpaceOnUse" x1="86.4419" y1="36.2407" x2="86.4419" y2="39.5378">
	<stop  offset="0" style="stop-color:#BBC9E7"/>
	<stop  offset="1" style="stop-color:#FFFFFF"/>
</linearGradient>
<path fill-rule="evenodd" clip-rule="evenodd" fill="url(#SVGID_9_)" d="M81.305,39.631c3.041-0.405,5.668-0.545,8.516-0.566
	l1.757-3.177H81.305V39.631z"/>
<linearGradient id="SVGID_10_" gradientUnits="userSpaceOnUse" x1="86.4419" y1="36.0229" x2="86.4419" y2="39.5487">
	<stop  offset="0.25" style="stop-color:#7DA7D9"/>
	<stop  offset="0.406" style="stop-color:#7CA5D6"/>
	<stop  offset="0.5313" style="stop-color:#759DCE"/>
	<stop  offset="0.6461" style="stop-color:#6A90C3"/>
	<stop  offset="0.7544" style="stop-color:#5B7FB5"/>
	<stop  offset="0.8583" style="stop-color:#456DA5"/>
	<stop  offset="0.9575" style="stop-color:#265894"/>
	<stop  offset="1" style="stop-color:#144E8C"/>
</linearGradient>
<polygon fill-rule="evenodd" clip-rule="evenodd" fill="url(#SVGID_10_)" points="81.305,39.631 81.305,35.888 91.578,35.888
	91.383,36.241 81.659,36.241 81.659,39.589 "/>
<line fill-rule="evenodd" clip-rule="evenodd" fill="none" stroke="#000000" stroke-width="0.9542" stroke-linecap="square" x1="86.217" y1="38.645" x2="86.217" y2="39.948"/>
<line fill-rule="evenodd" clip-rule="evenodd" fill="none" stroke="#000000" stroke-width="0.9542" stroke-linecap="square" x1="94.071" y1="38.645" x2="94.071" y2="39.948"/>
<path fill-rule="evenodd" clip-rule="evenodd" fill="none" stroke="#000000" stroke-width="0.8826" d="M84.221,46.381
	c0.128,0.094,0.714,0.374,1.096,0.519c0.779,0.299,2.355,0.838,5.122,0.865h0.02c2.768-0.026,4.344-0.566,5.123-0.865
	c0.38-0.145,0.97-0.425,1.096-0.519"/>
<path fill-rule="evenodd" clip-rule="evenodd" fill="none" stroke="#000000" stroke-width="0.8826" d="M93.249,33.677
	c-2.602,3.116-4.365,6.762-4.541,10.778h3.33c-0.824,3.346-0.385,6.194,0.933,8.84"/>
<path fill="#010101" d="M53.175,34.637c-0.278,0-0.469-0.217-0.469-0.495c0-0.269,0.2-0.487,0.478-0.487
	c0.287,0,0.469,0.218,0.469,0.487C53.652,34.446,53.452,34.637,53.175,34.637z M53.539,40.209h-0.72v-4.737h0.72V40.209z"/>
<path fill="#010101" d="M54.997,33.673c0.382-0.069,0.885-0.13,1.501-0.13c2.135,0,2.309,1.373,2.309,1.895
	c0,1.556-1.241,2.112-2.413,2.112c-0.251,0-0.478-0.008-0.677-0.061v2.721h-0.721V33.673z M55.717,36.889
	c0.182,0.052,0.417,0.069,0.694,0.069c1.041,0,1.675-0.521,1.675-1.469s-0.677-1.365-1.58-1.365c-0.364,0-0.633,0.035-0.79,0.07
	V36.889z"/>
<path fill="#010101" d="M63.016,39.079c0,0.392,0.009,0.8,0.069,1.13h-0.66L62.356,39.6H62.33c-0.243,0.374-0.729,0.712-1.397,0.712
	c-0.902,0-1.38-0.66-1.38-1.347c0-1.139,0.989-1.755,2.743-1.747c0-0.4,0-1.304-1.076-1.304c-0.408,0-0.833,0.113-1.154,0.339
	l-0.173-0.496c0.381-0.251,0.911-0.399,1.44-0.399c1.336,0,1.684,0.947,1.684,1.886V39.079z M62.304,37.749
	c-0.894,0-2.014,0.13-2.014,1.13c0,0.608,0.382,0.878,0.816,0.878c0.703,0,1.198-0.539,1.198-1.113V37.749z"/>
<path fill="#010101" d="M68.223,39.035c0,0.382,0.018,0.852,0.035,1.174h-0.642l-0.035-0.808h-0.026
	c-0.243,0.495-0.781,0.912-1.545,0.912c-1.094,0-1.944-0.947-1.944-2.407c0-1.6,0.937-2.538,2.039-2.538
	c0.694,0,1.163,0.339,1.38,0.73h0.018v-2.842h0.72V39.035z M67.502,37.367c0-0.948-0.668-1.417-1.275-1.417
	c-0.895,0-1.424,0.834-1.424,1.921c0,0.999,0.469,1.851,1.397,1.851c0.781,0,1.302-0.687,1.302-1.442V37.367z"/>
<g>
	<path fill-rule="evenodd" clip-rule="evenodd" fill="#010101" d="M40.751,57.92c-0.009-0.994,0.814-1.472,0.851-1.495
		c-0.467-0.686-1.188-0.762-1.443-0.78c-0.649-0.048-1.199,0.361-1.506,0.361c-0.312,0-0.792-0.351-1.301-0.342
		c-0.668,0.01-1.285,0.388-1.629,0.985c-0.694,1.202-0.178,2.983,0.499,3.957c0.331,0.478,0.725,1.015,1.244,0.995
		c0.5-0.019,0.688-0.322,1.291-0.322c0.603,0,0.772,0.322,1.3,0.313c0.537-0.009,0.877-0.485,1.206-0.966
		c0.38-0.553,0.537-1.088,0.545-1.118C41.796,59.505,40.762,59.108,40.751,57.92L40.751,57.92L40.751,57.92z M39.759,55.001
		c0.276-0.332,0.461-0.794,0.41-1.253c-0.396,0.016-0.875,0.263-1.16,0.595c-0.254,0.294-0.478,0.764-0.417,1.215
		C39.033,55.591,39.484,55.333,39.759,55.001L39.759,55.001z"/>
	<polygon fill-rule="evenodd" clip-rule="evenodd" fill="#010101" points="55.958,56.737 57.675,56.737 57.675,61.499
		58.868,61.499 58.868,56.737 60.59,56.737 60.59,55.742 55.958,55.742 55.958,56.737 	"/>
	<polygon fill-rule="evenodd" clip-rule="evenodd" fill="#010101" points="70.912,58.053 68.551,58.053 68.551,55.741
		67.354,55.741 67.354,61.499 68.551,61.499 68.551,59.043 70.912,59.043 70.912,61.499 72.114,61.499 72.114,55.742 70.912,55.742
		70.912,58.052 70.912,58.053 	"/>
	<path fill-rule="evenodd" clip-rule="evenodd" fill="#010101" d="M52.714,59.162l0.659-2.286h0.012l0.649,2.286H52.714
		L52.714,59.162z M52.705,55.742l-1.862,5.757h1.197l0.418-1.451h1.826l0.412,1.451h1.282l-1.857-5.757H52.705L52.705,55.742z"/>
	<path fill-rule="evenodd" clip-rule="evenodd" fill="#010101" d="M63.796,55.649c-1.523,0-2.433,0.982-2.433,2.632v0.697
		c0,1.666,0.906,2.619,2.428,2.619c1.527,0,2.289-0.928,2.289-1.966v-0.105h-1.146c0,0.595-0.296,1.059-1.121,1.059
		c-0.83,0-1.236-0.511-1.236-1.607V58.28c0-1.084,0.411-1.628,1.227-1.628c0.766,0,1.13,0.505,1.13,1.075h1.146v-0.059
		C66.081,56.547,65.226,55.649,63.796,55.649L63.796,55.649z"/>
	<polygon fill-rule="evenodd" clip-rule="evenodd" fill="#010101" points="48.538,59.854 48.521,59.854 47.489,55.742
		46.274,55.742 45.247,59.854 45.229,59.854 44.273,55.742 42.996,55.742 44.603,61.499 45.809,61.499 46.871,57.563 46.892,57.563
		47.954,61.499 49.168,61.499 50.771,55.742 49.494,55.742 48.538,59.854 48.538,59.854 	"/>
</g>
<polygon fill="#010101" points="39.271,64.465 37.299,69.326 37.263,69.326 35.29,64.465 33.956,64.465 33.956,70.906
	34.996,70.906 34.996,66.336 35.027,66.336 36.888,70.853 37.673,70.853 39.535,66.336 39.566,66.336 39.566,70.906 40.602,70.906
	40.602,64.465 "/>
<g>
	<defs>
		<rect id="SVGID_11_" x="33.956" y="64.465" width="37.5" height="6.535"/>
	</defs>
	<path clip-path="url(#SVGID_12_)" fill="#010101" d="M43.248,70.143c-0.482,0-0.803-0.245-0.803-0.634
		c0-0.375,0.308-0.616,0.843-0.651l1.094-0.067v0.361C44.382,69.723,43.877,70.143,43.248,70.143 M42.914,70.981
		c0.607,0,1.2-0.316,1.473-0.83h0.022v0.755h1.071v-3.259c0-0.95-0.763-1.571-1.937-1.571c-1.205,0-1.959,0.634-2.008,1.518h1.031
		c0.071-0.393,0.406-0.646,0.933-0.646c0.549,0,0.884,0.285,0.884,0.78v0.34l-1.25,0.071c-1.151,0.071-1.798,0.576-1.798,1.415
		C41.333,70.406,41.999,70.981,42.914,70.981"/>
	<path clip-path="url(#SVGID_12_)" fill="#010101" d="M50.545,67.862c-0.076-0.996-0.848-1.786-2.098-1.786
		c-1.375,0-2.268,0.951-2.268,2.464c0,1.535,0.893,2.46,2.276,2.46c1.188,0,2.004-0.697,2.093-1.755h-1.049
		c-0.103,0.536-0.469,0.857-1.031,0.857c-0.706,0-1.161-0.571-1.161-1.563c0-0.973,0.451-1.562,1.151-1.562
		c0.594,0,0.946,0.379,1.036,0.884H50.545z"/>
	<path clip-path="url(#SVGID_12_)" fill="#010101" d="M54.027,70.906c1.375,0,2.209-0.696,2.209-1.83
		c0-0.853-0.611-1.482-1.486-1.566v-0.036c0.661-0.107,1.174-0.71,1.174-1.401c0-0.978-0.754-1.607-1.923-1.607h-2.674v6.441H54.027
		z M52.478,65.362h1.231c0.688,0,1.076,0.317,1.076,0.88c0,0.598-0.451,0.937-1.254,0.937h-1.054V65.362z M52.478,70.009v-2.013
		h1.236c0.884,0,1.348,0.344,1.348,0.999c0,0.661-0.45,1.014-1.299,1.014H52.478z"/>
	<path clip-path="url(#SVGID_12_)" fill="#010101" d="M59.039,71c1.389,0,2.29-0.925,2.29-2.46c0-1.53-0.91-2.464-2.29-2.464
		c-1.379,0-2.289,0.938-2.289,2.464C56.75,70.075,57.651,71,59.039,71 M59.039,70.12c-0.705,0-1.16-0.571-1.16-1.58
		c0-1.004,0.46-1.58,1.16-1.58c0.706,0,1.161,0.576,1.161,1.58C60.2,69.549,59.745,70.12,59.039,70.12"/>
	<path clip-path="url(#SVGID_12_)" fill="#010101" d="M64.145,71c1.388,0,2.289-0.925,2.289-2.46c0-1.53-0.91-2.464-2.289-2.464
		s-2.29,0.938-2.29,2.464C61.855,70.075,62.756,71,64.145,71 M64.145,70.12c-0.705,0-1.16-0.571-1.16-1.58
		c0-1.004,0.459-1.58,1.16-1.58c0.705,0,1.16,0.576,1.16,1.58C65.305,69.549,64.85,70.12,64.145,70.12"/>
	<polygon clip-path="url(#SVGID_12_)" fill="#010101" points="68.313,68.147 68.3,68.147 68.3,64.465 67.189,64.465 67.189,70.906
		68.3,70.906 68.3,69.264 68.675,68.884 70.17,70.906 71.456,70.906 69.483,68.21 71.375,66.175 70.094,66.175 	"/>
</g>
<g>
	<defs>
		<rect id="SVGID_13_" x="104.583" y="53.819" width="15.359" height="15.36"/>
	</defs>
	<path clip-path="url(#SVGID_14_)" fill="#010101" d="M105.595,57.68c0,0.158-0.097,0.274-0.261,0.274
		c-0.138,0-0.24-0.117-0.24-0.274c0-0.151,0.109-0.274,0.254-0.274C105.499,57.406,105.595,57.529,105.595,57.68 M105.215,59.619
		h0.259v6.31h-0.259V59.619z"/>
	<path clip-path="url(#SVGID_14_)" fill="#010101" d="M114.077,61.433c0,3.181-1.766,4.627-3.699,4.627
		c-1.975,0-3.574-1.564-3.574-4.496c0-3.01,1.655-4.627,3.713-4.627C112.534,56.938,114.077,58.528,114.077,61.433 M107.066,61.499
		c0,2.412,1.169,4.286,3.323,4.286c2.17,0,3.415-1.932,3.415-4.313c0-2.209-0.997-4.225-3.272-4.225S107.066,59.145,107.066,61.499"
		/>
	<path clip-path="url(#SVGID_14_)" fill="#010101" d="M115.026,65.245c0.434,0.289,1.184,0.568,1.827,0.568
		c1.223,0,2.31-0.854,2.31-2.113c0-1.168-0.725-1.778-1.953-2.302c-1.102-0.469-2.091-0.978-2.091-2.226
		c0-1.301,1.025-2.222,2.419-2.222c0.749,0,1.314,0.21,1.578,0.394l-0.105,0.227c-0.223-0.158-0.827-0.358-1.484-0.358
		c-1.473,0-2.114,1.113-2.114,1.932c0,1.131,0.877,1.51,2.008,2.049c1.314,0.644,2.011,1.212,2.011,2.447
		c0,1.328-0.946,2.406-2.629,2.406c-0.697,0-1.498-0.237-1.893-0.539L115.026,65.245z"/>
</g>
<g>
	<path fill="#303030" d="M93.302,61.602c-1.841,0-2.999,1.318-2.999,3.411s1.158,3.406,2.999,3.406c1.845,0,3.003-1.314,3.003-3.406
		S95.142,61.602,93.302,61.602z M93.302,67.837c-1.446,0-2.357-1.094-2.357-2.824c0-1.735,0.911-2.829,2.357-2.829
		s2.362,1.094,2.362,2.829C95.665,66.743,94.749,67.837,93.302,67.837z"/>
	<path fill="#303030" d="M84.743,68.31c-0.064,0.018-0.32,0.027-0.449,0.027c-0.797,0-1.117-0.339-1.117-1.195v-3.085h-0.709v-0.503
		h0.709v-1.19h0.604v1.19h0.939v0.503H83.78v3.053c0,0.495,0.193,0.7,0.633,0.7c0.063,0,0.293-0.009,0.33-0.014V68.31L84.743,68.31z
		"/>
	<polygon fill="#303030" points="87.736,68.313 87.09,68.313 85.319,63.553 85.959,63.553 87.407,67.678 87.42,67.678
		88.872,63.553 89.502,63.553 	"/>
	<path fill="#303030" d="M99.377,68.419c-1.383,0-2.354-0.765-2.422-1.9h0.627c0.068,0.792,0.814,1.332,1.85,1.332
		c0.988,0,1.697-0.54,1.697-1.282c0-0.618-0.426-0.984-1.404-1.231l-0.819-0.21c-1.222-0.312-1.767-0.829-1.767-1.698
		c0-1.066,0.961-1.827,2.261-1.827c1.286,0,2.229,0.76,2.266,1.809h-0.627c-0.06-0.746-0.72-1.241-1.657-1.241
		c-0.916,0-1.594,0.508-1.594,1.236c0,0.568,0.412,0.902,1.383,1.149l0.715,0.184c1.328,0.334,1.887,0.843,1.887,1.763
		C101.772,67.659,100.838,68.419,99.377,68.419z"/>
</g>
<g>
	<g transform="translate(4.000000, 2.000000)">

			<radialGradient id="SVGID_15_" cx="-25.3984" cy="173.3047" r="0.0555" gradientTransform="matrix(229.4 0 0 -229.4 5914.312 39840.9531)" gradientUnits="userSpaceOnUse">
			<stop  offset="0" style="stop-color:#2CBCE1"/>
			<stop  offset="0.1136" style="stop-color:#2CBCE2"/>
			<stop  offset="1" style="stop-color:#4C70B7"/>
		</radialGradient>
		<circle fill="url(#SVGID_15_)" cx="86.274" cy="87.088" r="10.323"/>
		<g transform="translate(9.687500, 8.718750)">
			<path fill="#F3F3F3" d="M76.604,70.557c-0.07,0-0.131-0.052-0.131-0.121v-1.822c0-0.07,0.061-0.123,0.131-0.123
				s0.131,0.053,0.131,0.123v1.822C76.726,70.505,76.674,70.557,76.604,70.557L76.604,70.557z"/>
			<path fill="#FFFFFF" d="M76.604,70.566c-0.078,0-0.14-0.062-0.14-0.131v-1.822c0-0.07,0.062-0.131,0.14-0.131
				s0.14,0.061,0.14,0.131v1.822C76.744,70.505,76.674,70.566,76.604,70.566L76.604,70.566z M76.604,68.5
				c-0.061,0-0.122,0.052-0.122,0.113v1.822c0,0.061,0.052,0.113,0.122,0.113c0.061,0,0.122-0.053,0.122-0.113v-1.822
				C76.717,68.552,76.665,68.5,76.604,68.5L76.604,68.5z"/>
			<path fill="#F3F3F3" d="M77.475,69.58c-0.069-0.008-0.121-0.061-0.121-0.13l0.061-0.812c0.009-0.069,0.07-0.121,0.14-0.113
				c0.069,0.01,0.122,0.062,0.122,0.131l-0.061,0.811C77.606,69.537,77.545,69.59,77.475,69.58L77.475,69.58z"/>
			<path fill="#FFFFFF" d="M77.475,69.59c-0.078-0.01-0.13-0.07-0.13-0.14l0.061-0.812c0.009-0.069,0.069-0.131,0.148-0.121
				c0.079,0.008,0.131,0.069,0.131,0.139l-0.062,0.811C77.616,69.546,77.554,69.598,77.475,69.59L77.475,69.59z M77.554,68.535
				c-0.062,0-0.122,0.043-0.122,0.104l-0.061,0.812c0,0.061,0.043,0.113,0.113,0.122c0.061,0,0.121-0.044,0.121-0.105l0.062-0.811
				C77.667,68.596,77.616,68.543,77.554,68.535L77.554,68.535z"/>
			<path fill="#F3F3F3" d="M78.129,70.715c-0.069-0.018-0.113-0.079-0.104-0.148l0.357-1.787c0.018-0.07,0.079-0.114,0.148-0.097
				s0.113,0.079,0.104,0.148l-0.357,1.787C78.269,70.68,78.2,70.723,78.129,70.715L78.129,70.715z"/>
			<path fill="#FFFFFF" d="M78.129,70.723c-0.078-0.018-0.121-0.087-0.113-0.156l0.357-1.787c0.018-0.07,0.088-0.123,0.166-0.105
				s0.122,0.088,0.113,0.157l-0.357,1.787C78.278,70.688,78.208,70.731,78.129,70.723L78.129,70.723z M78.54,68.691
				c-0.061-0.009-0.122,0.026-0.14,0.088l-0.357,1.787c-0.009,0.061,0.026,0.121,0.096,0.139c0.062,0.01,0.122-0.025,0.14-0.087
				l0.357-1.787C78.644,68.762,78.6,68.709,78.54,68.691L78.54,68.691z"/>
			<path fill="#F3F3F3" d="M79.176,69.93c-0.07-0.018-0.113-0.088-0.096-0.157l0.217-0.784c0.018-0.07,0.088-0.105,0.158-0.088
				c0.069,0.018,0.113,0.088,0.096,0.157l-0.219,0.784C79.315,69.912,79.246,69.947,79.176,69.93L79.176,69.93z"/>
			<path fill="#FFFFFF" d="M79.176,69.938c-0.07-0.017-0.123-0.096-0.096-0.165l0.217-0.784c0.018-0.07,0.097-0.113,0.166-0.096
				c0.07,0.017,0.122,0.096,0.096,0.165l-0.218,0.784C79.325,69.912,79.254,69.955,79.176,69.938L79.176,69.938z M79.463,68.918
				c-0.061-0.018-0.131,0.018-0.148,0.078l-0.217,0.785c-0.018,0.061,0.017,0.122,0.086,0.14c0.062,0.017,0.131-0.018,0.148-0.079
				l0.219-0.784C79.559,68.996,79.525,68.936,79.463,68.918L79.463,68.918z"/>
			<path fill="#F3F3F3" d="M79.603,71.158c-0.069-0.025-0.096-0.104-0.069-0.165l0.697-1.683c0.025-0.061,0.104-0.096,0.166-0.061
				c0.069,0.025,0.096,0.104,0.069,0.165l-0.697,1.683C79.743,71.158,79.665,71.193,79.603,71.158L79.603,71.158z"/>
			<path fill="#FFFFFF" d="M79.603,71.168c-0.069-0.026-0.104-0.105-0.078-0.175l0.697-1.683c0.026-0.07,0.104-0.096,0.183-0.07
				c0.07,0.026,0.105,0.105,0.079,0.175l-0.698,1.683C79.751,71.168,79.672,71.202,79.603,71.168L79.603,71.168z M80.397,69.258
				c-0.062-0.025-0.131,0-0.157,0.062l-0.698,1.683c-0.025,0.061,0.01,0.122,0.07,0.148c0.061,0.025,0.131,0,0.157-0.062
				l0.697-1.683C80.484,69.354,80.458,69.284,80.397,69.258L80.397,69.258z"/>
			<path fill="#F3F3F3" d="M80.78,70.601c-0.061-0.034-0.087-0.104-0.061-0.165l0.366-0.725c0.034-0.061,0.104-0.086,0.175-0.052
				c0.061,0.035,0.086,0.104,0.061,0.165l-0.366,0.725C80.919,70.609,80.85,70.636,80.78,70.601L80.78,70.601z"/>
			<path fill="#FFFFFF" d="M80.78,70.609c-0.069-0.035-0.096-0.113-0.061-0.184l0.366-0.723c0.034-0.07,0.113-0.096,0.183-0.062
				c0.07,0.035,0.096,0.113,0.062,0.183l-0.366,0.725C80.928,70.618,80.85,70.645,80.78,70.609L80.78,70.609z M81.26,69.659
				c-0.062-0.026-0.131-0.009-0.157,0.052l-0.366,0.725c-0.026,0.052,0,0.121,0.053,0.156c0.061,0.026,0.13,0.009,0.156-0.052
				l0.366-0.724C81.338,69.764,81.312,69.694,81.26,69.659L81.26,69.659z"/>
			<path fill="#F3F3F3" d="M80.955,71.891c-0.062-0.043-0.079-0.121-0.035-0.174l1.012-1.508c0.034-0.062,0.113-0.07,0.175-0.035
				c0.061,0.043,0.078,0.122,0.034,0.174l-1.011,1.509C81.094,71.918,81.016,71.935,80.955,71.891L80.955,71.891z"/>
			<path fill="#FFFFFF" d="M80.955,71.9c-0.062-0.044-0.079-0.131-0.044-0.192l1.012-1.509c0.043-0.061,0.122-0.078,0.191-0.034
				c0.062,0.044,0.079,0.131,0.044,0.191l-1.011,1.509C81.103,71.926,81.016,71.943,80.955,71.9L80.955,71.9z M82.106,70.182
				c-0.053-0.034-0.131-0.025-0.166,0.027l-1.012,1.508c-0.035,0.053-0.018,0.122,0.035,0.157c0.053,0.034,0.131,0.026,0.166-0.026
				l1.011-1.5C82.175,70.296,82.158,70.217,82.106,70.182L82.106,70.182z"/>
			<path fill="#F3F3F3" d="M82.227,71.568c-0.052-0.043-0.069-0.122-0.025-0.174l0.506-0.637c0.043-0.053,0.121-0.061,0.174-0.018
				c0.053,0.044,0.07,0.122,0.026,0.174l-0.506,0.637C82.358,71.604,82.28,71.612,82.227,71.568L82.227,71.568z"/>
			<path fill="#FFFFFF" d="M82.219,71.577c-0.062-0.044-0.07-0.131-0.026-0.191l0.505-0.637c0.044-0.062,0.131-0.069,0.192-0.018
				c0.062,0.044,0.069,0.131,0.026,0.192l-0.506,0.637C82.368,71.621,82.28,71.63,82.219,71.577L82.219,71.577z M82.873,70.749
				c-0.052-0.044-0.122-0.034-0.165,0.018l-0.506,0.636c-0.035,0.053-0.026,0.123,0.025,0.166c0.053,0.044,0.123,0.035,0.166-0.018
				l0.506-0.637C82.934,70.862,82.924,70.784,82.873,70.749L82.873,70.749z"/>
			<path fill="#F3F3F3" d="M82.14,72.877c-0.052-0.053-0.052-0.131,0-0.175l1.29-1.282c0.053-0.052,0.131-0.043,0.175,0
				c0.044,0.044,0.052,0.131,0,0.175l-1.282,1.282C82.271,72.929,82.193,72.929,82.14,72.877L82.14,72.877z"/>
			<path fill="#FFFFFF" d="M82.131,72.885c-0.053-0.052-0.053-0.139,0-0.191l1.291-1.281c0.052-0.053,0.139-0.053,0.191,0
				c0.053,0.052,0.053,0.139,0,0.191l-1.291,1.281C82.271,72.938,82.184,72.938,82.131,72.885L82.131,72.885z M83.605,71.42
				c-0.044-0.043-0.122-0.043-0.165,0l-1.291,1.282c-0.043,0.044-0.043,0.122,0,0.165c0.044,0.044,0.122,0.044,0.166,0l1.29-1.281
				C83.649,71.543,83.649,71.473,83.605,71.42L83.605,71.42z"/>
			<path fill="#F3F3F3" d="M83.448,72.807c-0.043-0.053-0.043-0.131,0.01-0.174l0.618-0.523c0.053-0.044,0.131-0.035,0.175,0.018
				c0.043,0.052,0.043,0.131-0.009,0.174l-0.619,0.523C83.571,72.867,83.492,72.859,83.448,72.807L83.448,72.807z"/>
			<path fill="#FFFFFF" d="M83.44,72.815c-0.053-0.062-0.044-0.148,0.008-0.192l0.619-0.522c0.053-0.052,0.14-0.044,0.191,0.017
				c0.053,0.062,0.045,0.148-0.008,0.192l-0.619,0.523C83.579,72.885,83.492,72.877,83.44,72.815L83.44,72.815z M84.242,72.127
				c-0.044-0.053-0.113-0.053-0.166-0.018l-0.618,0.523c-0.044,0.043-0.053,0.113-0.01,0.165c0.044,0.052,0.113,0.052,0.166,0.018
				l0.619-0.523C84.286,72.248,84.286,72.179,84.242,72.127L84.242,72.127z"/>
			<path fill="#F3F3F3" d="M83.099,74.063c-0.044-0.062-0.026-0.14,0.035-0.175l1.517-1.011c0.062-0.035,0.14-0.018,0.175,0.034
				c0.044,0.062,0.026,0.14-0.035,0.175l-1.517,1.012C83.221,74.132,83.143,74.114,83.099,74.063L83.099,74.063z"/>
			<path fill="#FFFFFF" d="M83.09,74.063c-0.043-0.062-0.025-0.148,0.035-0.192l1.518-1.011c0.061-0.044,0.147-0.026,0.191,0.043
				c0.043,0.062,0.025,0.148-0.035,0.191l-1.517,1.012C83.221,74.149,83.134,74.132,83.09,74.063L83.09,74.063z M84.817,72.92
				c-0.035-0.053-0.104-0.07-0.156-0.035l-1.518,1.012c-0.053,0.035-0.07,0.104-0.026,0.166c0.035,0.052,0.104,0.069,0.157,0.035
				l1.517-1.012C84.843,73.042,84.852,72.973,84.817,72.92L84.817,72.92z"/>
			<path fill="#F3F3F3" d="M84.399,74.245c-0.035-0.062-0.018-0.14,0.043-0.175l0.707-0.4c0.061-0.035,0.139-0.009,0.174,0.053
				c0.035,0.061,0.018,0.139-0.044,0.174l-0.706,0.4C84.512,74.332,84.433,74.307,84.399,74.245L84.399,74.245z"/>
			<path fill="#FFFFFF" d="M84.389,74.254c-0.034-0.07-0.017-0.148,0.044-0.184l0.706-0.4c0.062-0.035,0.148-0.009,0.184,0.053
				c0.035,0.069,0.018,0.147-0.044,0.183l-0.706,0.401C84.512,74.342,84.424,74.314,84.389,74.254L84.389,74.254z M85.314,73.73
				c-0.035-0.061-0.104-0.078-0.157-0.043l-0.706,0.4c-0.052,0.035-0.069,0.105-0.044,0.157c0.035,0.062,0.105,0.079,0.157,0.044
				l0.706-0.401C85.323,73.861,85.34,73.792,85.314,73.73L85.314,73.73z"/>
			<path fill="#F3F3F3" d="M83.815,75.404c-0.027-0.069,0-0.139,0.069-0.165l1.683-0.698c0.061-0.025,0.139,0.01,0.166,0.07
				c0.025,0.07,0,0.14-0.07,0.166l-1.683,0.697C83.918,75.501,83.84,75.475,83.815,75.404L83.815,75.404z"/>
			<path fill="#FFFFFF" d="M83.805,75.414c-0.025-0.07,0-0.148,0.07-0.184l1.683-0.697c0.069-0.026,0.147,0.008,0.175,0.078
				c0.025,0.07,0,0.148-0.07,0.184l-1.683,0.697C83.911,75.518,83.832,75.483,83.805,75.414L83.805,75.414z M85.715,74.62
				c-0.026-0.062-0.096-0.087-0.148-0.069l-1.683,0.697c-0.062,0.025-0.087,0.096-0.062,0.156c0.026,0.062,0.096,0.088,0.148,0.07
				l1.683-0.697C85.715,74.751,85.741,74.682,85.715,74.62L85.715,74.62z"/>
			<path fill="#F3F3F3" d="M85.043,75.841c-0.025-0.069,0.009-0.14,0.078-0.165l0.768-0.254c0.061-0.025,0.14,0.018,0.157,0.079
				c0.026,0.069-0.009,0.14-0.079,0.165l-0.767,0.254C85.139,75.945,85.07,75.91,85.043,75.841L85.043,75.841z"/>
			<path fill="#FFFFFF" d="M85.035,75.85c-0.026-0.07,0.009-0.148,0.087-0.174l0.768-0.254c0.07-0.025,0.148,0.018,0.175,0.088
				c0.026,0.069-0.009,0.148-0.087,0.174l-0.768,0.253C85.139,75.954,85.061,75.92,85.035,75.85L85.035,75.85z M86.046,75.518
				c-0.018-0.061-0.087-0.096-0.148-0.078l-0.767,0.253c-0.062,0.018-0.088,0.087-0.07,0.148s0.088,0.096,0.148,0.079l0.768-0.254
				C86.038,75.641,86.064,75.579,86.046,75.518L86.046,75.518z"/>
			<path fill="#F3F3F3" d="M84.258,76.879c-0.017-0.07,0.027-0.141,0.097-0.148l1.787-0.35c0.069-0.018,0.131,0.035,0.148,0.105
				c0.018,0.069-0.026,0.139-0.097,0.148l-1.787,0.348C84.337,76.992,84.268,76.948,84.258,76.879L84.258,76.879z"/>
			<path fill="#FFFFFF" d="M84.242,76.879c-0.018-0.079,0.034-0.148,0.104-0.166l1.787-0.35c0.07-0.017,0.14,0.035,0.157,0.113
				c0.018,0.079-0.035,0.148-0.104,0.166l-1.787,0.35C84.329,77.01,84.258,76.957,84.242,76.879L84.242,76.879z M86.273,76.486
				c-0.009-0.062-0.069-0.105-0.131-0.096l-1.787,0.348c-0.062,0.01-0.104,0.079-0.087,0.141c0.008,0.061,0.069,0.104,0.131,0.096
				l1.787-0.35C86.247,76.607,86.291,76.547,86.273,76.486L86.273,76.486z"/>
			<path fill="#F3F3F3" d="M85.375,77.55c-0.01-0.069,0.034-0.131,0.104-0.14l0.803-0.096c0.07-0.009,0.131,0.043,0.14,0.113
				s-0.035,0.131-0.104,0.139l-0.803,0.097C85.454,77.672,85.383,77.619,85.375,77.55L85.375,77.55z"/>
			<path fill="#FFFFFF" d="M85.366,77.55c-0.008-0.079,0.044-0.148,0.113-0.157l0.803-0.096c0.07-0.009,0.14,0.043,0.148,0.122
				c0.008,0.079-0.044,0.147-0.113,0.157l-0.803,0.096C85.445,77.681,85.375,77.628,85.366,77.55L85.366,77.55z M86.421,77.428
				c-0.009-0.061-0.069-0.113-0.131-0.104l-0.802,0.096c-0.062,0.009-0.105,0.069-0.096,0.131c0.008,0.062,0.069,0.113,0.13,0.104
				l0.802-0.096C86.386,77.55,86.43,77.488,86.421,77.428L86.421,77.428z"/>
			<path fill="#F3F3F3" d="M84.399,78.396c0-0.069,0.052-0.131,0.121-0.131h1.822c0.07,0,0.123,0.062,0.123,0.131
				s-0.053,0.131-0.123,0.131H84.52C84.451,78.526,84.399,78.465,84.399,78.396L84.399,78.396z"/>
			<path fill="#FFFFFF" d="M84.389,78.396c0-0.079,0.062-0.14,0.131-0.14h1.822c0.07,0,0.131,0.061,0.131,0.14
				c0,0.078-0.061,0.14-0.131,0.14H84.52C84.451,78.535,84.389,78.474,84.389,78.396L84.389,78.396z M86.456,78.404
				c0-0.061-0.052-0.122-0.113-0.122H84.52c-0.061,0-0.113,0.052-0.113,0.122c0,0.061,0.053,0.122,0.113,0.122h1.822
				C86.404,78.518,86.456,78.465,86.456,78.404L86.456,78.404z"/>
			<path fill="#F3F3F3" d="M85.366,79.275c0.01-0.069,0.062-0.121,0.131-0.121l0.812,0.061c0.069,0.009,0.122,0.07,0.113,0.14
				s-0.062,0.122-0.131,0.122l-0.812-0.061C85.418,79.406,85.366,79.346,85.366,79.275L85.366,79.275z"/>
			<path fill="#FFFFFF" d="M85.358,79.275c0.008-0.078,0.069-0.131,0.139-0.131l0.812,0.062c0.069,0.009,0.13,0.069,0.122,0.148
				c-0.009,0.078-0.07,0.131-0.14,0.131l-0.812-0.062C85.41,79.416,85.358,79.346,85.358,79.275L85.358,79.275z M86.421,79.354
				c0.009-0.062-0.044-0.122-0.104-0.122l-0.811-0.061c-0.062,0-0.113,0.043-0.123,0.113c-0.008,0.061,0.044,0.121,0.105,0.121
				l0.811,0.062C86.36,79.468,86.413,79.416,86.421,79.354L86.421,79.354z"/>
			<path fill="#F3F3F3" d="M84.242,79.912c0.017-0.069,0.078-0.113,0.147-0.104l1.788,0.357c0.069,0.018,0.113,0.079,0.096,0.148
				s-0.079,0.113-0.148,0.104l-1.787-0.357C84.276,80.052,84.233,79.982,84.242,79.912L84.242,79.912z"/>
			<path fill="#FFFFFF" d="M84.233,79.912c0.018-0.078,0.087-0.121,0.156-0.113l1.788,0.357c0.069,0.018,0.122,0.088,0.104,0.166
				s-0.088,0.122-0.157,0.113l-1.787-0.357C84.268,80.061,84.224,79.99,84.233,79.912L84.233,79.912z M86.264,80.322
				c0.009-0.061-0.025-0.122-0.087-0.14l-1.788-0.357c-0.061-0.009-0.121,0.026-0.139,0.097c-0.009,0.061,0.025,0.121,0.087,0.139
				l1.787,0.357C86.194,80.427,86.247,80.383,86.264,80.322L86.264,80.322z"/>
			<path fill="#F3F3F3" d="M85.026,80.959c0.018-0.07,0.088-0.113,0.157-0.097l0.784,0.219c0.07,0.018,0.105,0.087,0.088,0.156
				c-0.018,0.07-0.088,0.113-0.157,0.097l-0.784-0.219C85.043,81.099,85.008,81.028,85.026,80.959L85.026,80.959z"/>
			<path fill="#FFFFFF" d="M85.018,80.959c0.017-0.07,0.096-0.122,0.165-0.097l0.784,0.219c0.07,0.018,0.113,0.096,0.097,0.165
				c-0.018,0.07-0.097,0.122-0.166,0.097l-0.784-0.219C85.043,81.106,85,81.037,85.018,80.959L85.018,80.959z M86.038,81.246
				c0.018-0.061-0.018-0.131-0.078-0.147l-0.785-0.219c-0.061-0.018-0.122,0.018-0.14,0.088c-0.017,0.061,0.018,0.131,0.079,0.147
				l0.784,0.219C85.959,81.343,86.02,81.308,86.038,81.246L86.038,81.246z"/>
			<path fill="#F3F3F3" d="M83.797,81.377c0.025-0.069,0.104-0.096,0.165-0.069l1.683,0.697c0.061,0.026,0.096,0.104,0.07,0.166
				c-0.026,0.069-0.105,0.096-0.166,0.069l-1.683-0.697C83.797,81.517,83.77,81.438,83.797,81.377L83.797,81.377z"/>
			<path fill="#FFFFFF" d="M83.788,81.368c0.027-0.069,0.105-0.104,0.175-0.078l1.683,0.697c0.07,0.026,0.096,0.104,0.07,0.184
				c-0.026,0.069-0.105,0.104-0.175,0.078l-1.683-0.697C83.788,81.517,83.762,81.438,83.788,81.368L83.788,81.368z M85.698,82.162
				c0.025-0.062,0-0.131-0.061-0.157l-1.684-0.697c-0.061-0.026-0.122,0.009-0.148,0.069c-0.025,0.062,0,0.131,0.062,0.157
				l1.683,0.697C85.61,82.249,85.68,82.223,85.698,82.162L85.698,82.162z"/>
			<path fill="#F3F3F3" d="M84.364,82.554c0.035-0.061,0.104-0.087,0.166-0.061l0.723,0.366c0.062,0.026,0.088,0.104,0.053,0.175
				c-0.035,0.061-0.104,0.087-0.166,0.061l-0.723-0.366C84.355,82.693,84.329,82.615,84.364,82.554L84.364,82.554z"/>
			<path fill="#FFFFFF" d="M84.355,82.546c0.034-0.07,0.113-0.097,0.183-0.062l0.725,0.366c0.069,0.035,0.096,0.113,0.061,0.184
				c-0.035,0.069-0.113,0.096-0.184,0.061l-0.723-0.366C84.346,82.702,84.32,82.615,84.355,82.546L84.355,82.546z M85.296,83.025
				c0.026-0.062,0.009-0.131-0.052-0.157l-0.725-0.366c-0.052-0.026-0.121,0-0.156,0.052c-0.026,0.062-0.009,0.131,0.053,0.157
				l0.723,0.366C85.201,83.104,85.27,83.086,85.296,83.025L85.296,83.025z"/>
			<path fill="#F3F3F3" d="M83.083,82.72c0.043-0.061,0.113-0.078,0.174-0.035l1.518,1.012c0.061,0.035,0.069,0.113,0.034,0.175
				c-0.044,0.061-0.113,0.078-0.175,0.034l-1.517-1.011C83.055,82.851,83.039,82.772,83.083,82.72L83.083,82.72z"/>
			<path fill="#FFFFFF" d="M83.073,82.711c0.044-0.061,0.131-0.078,0.192-0.043l1.517,1.011c0.062,0.044,0.078,0.122,0.035,0.192
				c-0.043,0.061-0.131,0.078-0.191,0.043l-1.518-1.011C83.039,82.859,83.03,82.772,83.073,82.711L83.073,82.711z M84.791,83.862
				c0.035-0.053,0.026-0.131-0.026-0.166l-1.517-1.012c-0.052-0.034-0.122-0.017-0.157,0.035c-0.035,0.053-0.025,0.131,0.026,0.166
				l1.517,1.011C84.686,83.932,84.756,83.914,84.791,83.862L84.791,83.862z"/>
			<path fill="#F3F3F3" d="M83.405,83.984c0.043-0.053,0.121-0.07,0.174-0.026l0.637,0.497c0.053,0.044,0.061,0.122,0.018,0.174
				c-0.044,0.053-0.122,0.07-0.174,0.026l-0.637-0.497C83.37,84.115,83.361,84.036,83.405,83.984L83.405,83.984z"/>
			<path fill="#FFFFFF" d="M83.396,83.976c0.044-0.062,0.13-0.07,0.192-0.026l0.636,0.497c0.062,0.043,0.069,0.131,0.026,0.191
				c-0.044,0.062-0.131,0.07-0.191,0.026l-0.637-0.497C83.361,84.124,83.352,84.036,83.396,83.976L83.396,83.976z M84.233,84.629
				c0.043-0.052,0.035-0.122-0.018-0.165l-0.637-0.497c-0.053-0.035-0.121-0.026-0.165,0.026c-0.044,0.052-0.035,0.122,0.017,0.165
				l0.637,0.497C84.12,84.69,84.189,84.682,84.233,84.629L84.233,84.629z"/>
			<path fill="#F3F3F3" d="M82.106,83.896c0.052-0.052,0.131-0.052,0.174,0l1.291,1.282c0.052,0.052,0.043,0.131,0,0.174
				c-0.053,0.053-0.131,0.053-0.175,0l-1.29-1.281C82.062,84.027,82.062,83.94,82.106,83.896L82.106,83.896z"/>
			<path fill="#FFFFFF" d="M82.106,83.889c0.052-0.053,0.139-0.053,0.191,0l1.291,1.281c0.052,0.052,0.052,0.14,0,0.191
				c-0.053,0.053-0.141,0.053-0.192,0l-1.29-1.281C82.044,84.027,82.044,83.94,82.106,83.889L82.106,83.889z M83.571,85.345
				c0.043-0.044,0.043-0.123,0-0.166l-1.291-1.282c-0.043-0.043-0.122-0.043-0.166,0c-0.043,0.044-0.043,0.122,0,0.166l1.291,1.282
				C83.448,85.396,83.518,85.396,83.571,85.345L83.571,85.345z"/>
			<path fill="#F3F3F3" d="M82.184,85.196c0.053-0.044,0.131-0.044,0.174,0.009l0.532,0.61c0.044,0.052,0.034,0.131-0.018,0.174
				c-0.052,0.044-0.131,0.044-0.175-0.009l-0.531-0.61C82.124,85.327,82.131,85.248,82.184,85.196L82.184,85.196z"/>
			<path fill="#FFFFFF" d="M82.175,85.196c0.062-0.053,0.14-0.044,0.192,0.009l0.531,0.61c0.053,0.052,0.043,0.139-0.018,0.191
				s-0.14,0.044-0.191-0.009l-0.532-0.61C82.114,85.327,82.114,85.239,82.175,85.196L82.175,85.196z M82.873,85.989
				c0.052-0.043,0.052-0.113,0.018-0.166l-0.532-0.609c-0.043-0.044-0.113-0.053-0.165-0.009c-0.053,0.043-0.053,0.113-0.018,0.165
				l0.532,0.61C82.75,86.033,82.821,86.033,82.873,85.989L82.873,85.989z"/>
			<path fill="#F3F3F3" d="M80.928,84.864c0.061-0.043,0.14-0.025,0.175,0.035l1.011,1.509c0.035,0.061,0.018,0.14-0.035,0.174
				c-0.061,0.044-0.139,0.026-0.174-0.034l-1.012-1.509C80.859,84.979,80.875,84.899,80.928,84.864L80.928,84.864z"/>
			<path fill="#FFFFFF" d="M80.928,84.856c0.061-0.044,0.148-0.026,0.191,0.034l1.012,1.509c0.044,0.061,0.026,0.148-0.043,0.191
				c-0.062,0.044-0.148,0.026-0.192-0.035l-1.011-1.508C80.841,84.979,80.859,84.899,80.928,84.856L80.928,84.856z M82.079,86.573
				c0.053-0.034,0.07-0.104,0.035-0.156l-1.011-1.509c-0.035-0.052-0.104-0.061-0.166-0.026c-0.052,0.035-0.069,0.104-0.034,0.157
				l1.011,1.509C81.949,86.591,82.027,86.608,82.079,86.573L82.079,86.573z"/>
			<path fill="#F3F3F3" d="M80.745,86.155c0.062-0.035,0.141-0.018,0.175,0.043l0.401,0.707c0.035,0.061,0.009,0.139-0.053,0.174
				c-0.061,0.035-0.139,0.018-0.174-0.043l-0.401-0.707C80.667,86.269,80.684,86.19,80.745,86.155L80.745,86.155z"/>
			<path fill="#FFFFFF" d="M80.745,86.146c0.07-0.035,0.148-0.018,0.184,0.044l0.401,0.706c0.034,0.061,0.017,0.147-0.052,0.183
				c-0.07,0.035-0.148,0.018-0.184-0.043l-0.401-0.707C80.659,86.269,80.675,86.19,80.745,86.146L80.745,86.146z M81.268,87.07
				c0.053-0.034,0.078-0.104,0.044-0.157l-0.401-0.706c-0.035-0.052-0.104-0.069-0.156-0.043c-0.053,0.034-0.079,0.104-0.044,0.156
				l0.401,0.707C81.137,87.079,81.216,87.105,81.268,87.07L81.268,87.07z"/>
			<path fill="#F3F3F3" d="M79.585,85.579c0.069-0.025,0.14,0,0.166,0.062l0.706,1.683c0.026,0.062-0.009,0.14-0.07,0.166
				c-0.061,0.026-0.139,0-0.165-0.062l-0.706-1.683C79.49,85.685,79.525,85.605,79.585,85.579L79.585,85.579z"/>
			<path fill="#FFFFFF" d="M79.585,85.571c0.069-0.026,0.148,0,0.184,0.069l0.706,1.683c0.025,0.07-0.009,0.148-0.078,0.175
				c-0.07,0.026-0.148,0-0.184-0.07l-0.706-1.683C79.481,85.685,79.516,85.605,79.585,85.571L79.585,85.571z M80.379,87.48
				c0.061-0.026,0.087-0.096,0.061-0.148l-0.706-1.683c-0.026-0.061-0.096-0.087-0.157-0.061c-0.061,0.025-0.087,0.096-0.061,0.147
				l0.706,1.683C80.256,87.48,80.318,87.507,80.379,87.48L80.379,87.48z"/>
			<path fill="#F3F3F3" d="M79.159,86.817c0.069-0.025,0.139,0.009,0.166,0.079l0.252,0.767c0.026,0.062-0.018,0.14-0.078,0.157
				c-0.07,0.026-0.14-0.009-0.166-0.078l-0.252-0.768C79.053,86.913,79.088,86.844,79.159,86.817L79.159,86.817z"/>
			<path fill="#FFFFFF" d="M79.15,86.809c0.069-0.025,0.147,0.009,0.175,0.079l0.252,0.767c0.026,0.07-0.018,0.148-0.087,0.175
				s-0.148-0.009-0.175-0.078l-0.252-0.768C79.045,86.913,79.081,86.835,79.15,86.809L79.15,86.809z M79.49,87.812
				c0.062-0.018,0.096-0.087,0.079-0.148l-0.254-0.767c-0.018-0.062-0.087-0.088-0.148-0.07c-0.061,0.018-0.096,0.087-0.078,0.148
				l0.253,0.768C79.359,87.803,79.428,87.838,79.49,87.812L79.49,87.812z"/>
			<path fill="#F3F3F3" d="M78.129,86.024c0.07-0.018,0.14,0.026,0.148,0.096l0.366,1.787c0.018,0.07-0.034,0.131-0.104,0.148
				s-0.14-0.026-0.148-0.096l-0.366-1.787C78.016,86.111,78.06,86.042,78.129,86.024L78.129,86.024z"/>
			<path fill="#FFFFFF" d="M78.129,86.016c0.078-0.018,0.148,0.035,0.166,0.104l0.366,1.787c0.018,0.07-0.035,0.148-0.104,0.157
				c-0.078,0.018-0.148-0.035-0.166-0.104l-0.366-1.787C78.008,86.103,78.051,86.033,78.129,86.016L78.129,86.016z M78.54,88.047
				c0.061-0.009,0.104-0.069,0.096-0.14l-0.366-1.787c-0.009-0.061-0.078-0.104-0.14-0.087c-0.061,0.009-0.104,0.069-0.096,0.14
				L78.4,87.96C78.417,88.021,78.479,88.056,78.54,88.047L78.54,88.047z"/>
			<path fill="#F3F3F3" d="M77.467,87.158c0.069-0.009,0.131,0.034,0.148,0.104l0.104,0.802c0.01,0.069-0.043,0.131-0.113,0.14
				c-0.069,0.009-0.131-0.035-0.147-0.104l-0.104-0.803C77.345,87.228,77.397,87.166,77.467,87.158L77.467,87.158z"/>
			<path fill="#FFFFFF" d="M77.467,87.149c0.078-0.009,0.148,0.043,0.156,0.113l0.105,0.802c0.008,0.069-0.044,0.14-0.123,0.148
				c-0.078,0.009-0.147-0.044-0.156-0.113l-0.104-0.803C77.336,87.228,77.389,87.158,77.467,87.149L77.467,87.149z M77.598,88.195
				c0.061-0.009,0.113-0.069,0.104-0.131l-0.104-0.802c-0.009-0.062-0.07-0.104-0.131-0.097c-0.062,0.009-0.113,0.07-0.105,0.131
				l0.105,0.803C77.475,88.16,77.537,88.204,77.598,88.195L77.598,88.195z"/>
			<path fill="#F3F3F3" d="M76.569,86.182c0.07,0,0.131,0.052,0.131,0.122v1.822c0,0.069-0.061,0.122-0.131,0.122
				c-0.069,0-0.131-0.053-0.131-0.122v-1.822C76.447,86.233,76.5,86.182,76.569,86.182L76.569,86.182z"/>
			<path fill="#FFFFFF" d="M76.569,86.173c0.078,0,0.14,0.061,0.14,0.131v1.822c0,0.069-0.062,0.13-0.14,0.13
				s-0.139-0.061-0.139-0.13v-1.822C76.43,86.233,76.5,86.173,76.569,86.173L76.569,86.173z M76.569,88.239
				c0.061,0,0.122-0.053,0.122-0.113v-1.822c0-0.062-0.052-0.113-0.122-0.113c-0.061,0-0.122,0.052-0.122,0.113v1.822
				C76.456,88.187,76.508,88.239,76.569,88.239L76.569,88.239z"/>
			<path fill="#F3F3F3" d="M75.698,87.158c0.069,0.008,0.121,0.061,0.121,0.13L75.758,88.1c-0.009,0.069-0.07,0.122-0.14,0.113
				s-0.122-0.062-0.122-0.131l0.061-0.811C75.567,87.201,75.627,87.149,75.698,87.158L75.698,87.158z"/>
			<path fill="#FFFFFF" d="M75.698,87.149c0.078,0.009,0.13,0.069,0.13,0.139L75.767,88.1c-0.009,0.069-0.069,0.131-0.148,0.122
				s-0.131-0.07-0.131-0.14l0.062-0.811C75.557,87.192,75.619,87.141,75.698,87.149L75.698,87.149z M75.619,88.204
				c0.062,0,0.122-0.044,0.122-0.104l0.061-0.812c0-0.061-0.043-0.113-0.113-0.122c-0.061,0-0.121,0.044-0.121,0.105l-0.062,0.811
				C75.505,88.143,75.557,88.195,75.619,88.204L75.619,88.204z"/>
			<path fill="#F3F3F3" d="M75.043,86.024c0.069,0.018,0.113,0.078,0.104,0.148l-0.357,1.787c-0.018,0.069-0.079,0.113-0.148,0.096
				s-0.113-0.078-0.104-0.148l0.357-1.787C74.904,86.06,74.973,86.016,75.043,86.024L75.043,86.024z"/>
			<path fill="#FFFFFF" d="M75.043,86.016c0.078,0.018,0.122,0.087,0.113,0.157l-0.357,1.787c-0.018,0.069-0.088,0.122-0.166,0.104
				s-0.122-0.087-0.113-0.157l0.357-1.787C74.895,86.051,74.965,86.007,75.043,86.016L75.043,86.016z M74.633,88.047
				c0.061,0.009,0.122-0.026,0.14-0.087l0.357-1.787c0.009-0.062-0.026-0.122-0.096-0.14c-0.062-0.009-0.122,0.026-0.14,0.087
				l-0.357,1.787C74.529,87.978,74.573,88.029,74.633,88.047L74.633,88.047z"/>
			<path fill="#F3F3F3" d="M73.997,86.809c0.07,0.018,0.113,0.088,0.096,0.157l-0.217,0.785c-0.018,0.069-0.088,0.104-0.158,0.087
				c-0.069-0.018-0.113-0.087-0.096-0.157l0.219-0.784C73.858,86.826,73.927,86.792,73.997,86.809L73.997,86.809z"/>
			<path fill="#FFFFFF" d="M73.997,86.8c0.07,0.018,0.123,0.097,0.096,0.166l-0.217,0.785c-0.018,0.069-0.097,0.113-0.166,0.096
				c-0.07-0.018-0.122-0.096-0.096-0.166l0.218-0.784C73.848,86.826,73.918,86.783,73.997,86.8L73.997,86.8z M73.709,87.82
				c0.061,0.018,0.131-0.018,0.148-0.078l0.218-0.785c0.017-0.061-0.018-0.122-0.087-0.14c-0.062-0.018-0.131,0.018-0.148,0.079
				l-0.219,0.784C73.614,87.742,73.648,87.803,73.709,87.82L73.709,87.82z"/>
			<path fill="#F3F3F3" d="M73.57,85.579c0.069,0.026,0.096,0.105,0.069,0.166l-0.697,1.683c-0.025,0.062-0.104,0.097-0.166,0.062
				c-0.061-0.035-0.096-0.104-0.069-0.166l0.698-1.683C73.43,85.579,73.508,85.545,73.57,85.579L73.57,85.579z"/>
			<path fill="#FFFFFF" d="M73.57,85.571c0.069,0.025,0.104,0.104,0.078,0.174l-0.697,1.683c-0.026,0.07-0.104,0.097-0.183,0.07
				c-0.07-0.026-0.105-0.104-0.079-0.175l0.698-1.683C73.421,85.571,73.5,85.536,73.57,85.571L73.57,85.571z M72.776,87.48
				c0.062,0.026,0.131,0,0.157-0.062l0.698-1.683c0.025-0.061-0.01-0.122-0.07-0.147c-0.061-0.026-0.131,0-0.156,0.061l-0.698,1.683
				C72.689,87.385,72.715,87.454,72.776,87.48L72.776,87.48z"/>
			<path fill="#F3F3F3" d="M72.393,86.138c0.061,0.035,0.087,0.104,0.061,0.166l-0.366,0.724c-0.034,0.061-0.104,0.087-0.175,0.052
				c-0.061-0.035-0.086-0.104-0.061-0.166l0.366-0.723C72.253,86.129,72.323,86.103,72.393,86.138L72.393,86.138z"/>
			<path fill="#FFFFFF" d="M72.393,86.129c0.069,0.035,0.096,0.113,0.061,0.183l-0.366,0.725c-0.034,0.069-0.113,0.096-0.183,0.061
				c-0.07-0.035-0.096-0.113-0.062-0.184l0.366-0.723C72.245,86.12,72.323,86.094,72.393,86.129L72.393,86.129z M71.913,87.079
				c0.062,0.026,0.131,0.009,0.158-0.052l0.365-0.724c0.026-0.053,0-0.122-0.052-0.157c-0.062-0.026-0.131-0.009-0.157,0.052
				l-0.366,0.724C71.834,86.975,71.861,87.044,71.913,87.079L71.913,87.079z"/>
			<path fill="#F3F3F3" d="M72.218,84.848c0.062,0.043,0.079,0.122,0.035,0.174l-1.012,1.509c-0.034,0.061-0.113,0.069-0.175,0.034
				c-0.061-0.043-0.078-0.122-0.034-0.174l1.011-1.509C72.079,84.821,72.157,84.804,72.218,84.848L72.218,84.848z"/>
			<path fill="#FFFFFF" d="M72.218,84.839c0.062,0.043,0.079,0.131,0.044,0.191l-1.012,1.509c-0.043,0.061-0.122,0.078-0.191,0.034
				c-0.062-0.043-0.078-0.131-0.044-0.191l1.011-1.509C72.071,84.813,72.157,84.795,72.218,84.839L72.218,84.839z M71.067,86.556
				c0.053,0.035,0.131,0.026,0.166-0.025l1.012-1.509c0.035-0.052,0.018-0.122-0.035-0.157c-0.053-0.034-0.131-0.025-0.166,0.026
				l-1.011,1.5C70.998,86.442,71.015,86.521,71.067,86.556L71.067,86.556z"/>
			<path fill="#F3F3F3" d="M70.946,85.17c0.052,0.044,0.069,0.122,0.025,0.175l-0.506,0.636c-0.043,0.053-0.121,0.062-0.174,0.018
				s-0.07-0.122-0.026-0.175l0.506-0.636C70.815,85.135,70.893,85.126,70.946,85.17L70.946,85.17z"/>
			<path fill="#FFFFFF" d="M70.954,85.161c0.062,0.044,0.07,0.131,0.027,0.191l-0.506,0.637c-0.044,0.062-0.131,0.07-0.192,0.018
				c-0.062-0.044-0.069-0.131-0.026-0.191l0.506-0.637C70.806,85.117,70.893,85.108,70.954,85.161L70.954,85.161z M70.3,85.989
				c0.052,0.044,0.122,0.035,0.165-0.018l0.506-0.636c0.035-0.053,0.026-0.122-0.025-0.166c-0.053-0.044-0.123-0.035-0.166,0.018
				l-0.506,0.636C70.239,85.876,70.249,85.954,70.3,85.989L70.3,85.989z"/>
			<path fill="#F3F3F3" d="M71.033,83.862c0.052,0.052,0.052,0.131,0,0.174l-1.29,1.282c-0.053,0.052-0.131,0.043-0.175,0
				c-0.044-0.044-0.052-0.131,0-0.175l1.282-1.281C70.902,83.81,70.981,83.81,71.033,83.862L71.033,83.862z"/>
			<path fill="#FFFFFF" d="M71.042,83.854c0.053,0.052,0.053,0.14,0,0.191l-1.291,1.282c-0.052,0.052-0.139,0.052-0.191,0
				c-0.053-0.053-0.053-0.14,0-0.192l1.291-1.281C70.902,83.801,70.989,83.801,71.042,83.854L71.042,83.854z M69.568,85.318
				c0.044,0.043,0.122,0.043,0.165,0l1.291-1.282c0.043-0.043,0.043-0.122,0-0.165c-0.043-0.044-0.122-0.044-0.166,0l-1.29,1.281
				C69.524,85.196,69.524,85.266,69.568,85.318L69.568,85.318z"/>
			<path fill="#F3F3F3" d="M69.725,83.932c0.043,0.053,0.043,0.131-0.009,0.175l-0.619,0.522c-0.052,0.044-0.131,0.035-0.175-0.017
				c-0.043-0.053-0.043-0.131,0.009-0.175l0.619-0.523C69.602,83.871,69.681,83.88,69.725,83.932L69.725,83.932z"/>
			<path fill="#FFFFFF" d="M69.733,83.923c0.053,0.062,0.044,0.148-0.008,0.192l-0.619,0.522c-0.053,0.053-0.14,0.044-0.191-0.018
				c-0.053-0.061-0.044-0.147,0.008-0.191l0.619-0.523C69.594,83.854,69.681,83.862,69.733,83.923L69.733,83.923z M68.931,84.612
				c0.044,0.052,0.114,0.052,0.166,0.017l0.619-0.522c0.044-0.044,0.052-0.113,0.009-0.166c-0.044-0.052-0.113-0.052-0.166-0.018
				l-0.619,0.523C68.887,84.489,68.887,84.56,68.931,84.612L68.931,84.612z"/>
			<path fill="#F3F3F3" d="M70.074,82.677c0.044,0.061,0.026,0.139-0.035,0.174l-1.517,1.012c-0.062,0.034-0.14,0.018-0.175-0.035
				c-0.044-0.061-0.026-0.14,0.035-0.175l1.517-1.011C69.952,82.606,70.03,82.624,70.074,82.677L70.074,82.677z"/>
			<path fill="#FFFFFF" d="M70.083,82.677c0.043,0.061,0.025,0.147-0.035,0.191L68.53,83.88c-0.061,0.043-0.147,0.025-0.191-0.044
				c-0.043-0.062-0.025-0.148,0.035-0.192l1.518-1.011C69.952,82.589,70.039,82.606,70.083,82.677L70.083,82.677z M68.356,83.818
				c0.035,0.053,0.104,0.07,0.156,0.035l1.518-1.012c0.053-0.035,0.07-0.104,0.026-0.165c-0.035-0.053-0.104-0.07-0.157-0.035
				l-1.517,1.011C68.33,83.696,68.321,83.767,68.356,83.818L68.356,83.818z"/>
			<path fill="#F3F3F3" d="M68.774,82.493c0.035,0.061,0.018,0.14-0.043,0.175l-0.706,0.4c-0.062,0.035-0.14,0.009-0.175-0.052
				c-0.035-0.062-0.018-0.14,0.044-0.175L68.6,82.44C68.661,82.406,68.74,82.433,68.774,82.493L68.774,82.493z"/>
			<path fill="#FFFFFF" d="M68.784,82.484c0.034,0.069,0.018,0.148-0.044,0.184l-0.706,0.4c-0.062,0.035-0.148,0.009-0.184-0.052
				c-0.035-0.07-0.018-0.148,0.044-0.184l0.706-0.4C68.661,82.397,68.749,82.424,68.784,82.484L68.784,82.484z M67.859,83.008
				c0.035,0.061,0.104,0.078,0.157,0.043l0.706-0.4c0.052-0.035,0.069-0.104,0.044-0.157c-0.035-0.061-0.105-0.078-0.157-0.044
				l-0.706,0.401C67.85,82.877,67.833,82.946,67.859,83.008L67.859,83.008z"/>
			<path fill="#F3F3F3" d="M69.358,81.334c0.027,0.069,0,0.139-0.069,0.165l-1.683,0.697c-0.061,0.026-0.139-0.008-0.166-0.069
				c-0.025-0.069,0-0.14,0.07-0.166l1.683-0.697C69.254,81.237,69.333,81.264,69.358,81.334L69.358,81.334z"/>
			<path fill="#FFFFFF" d="M69.368,81.325c0.025,0.069,0,0.147-0.07,0.183l-1.683,0.697c-0.069,0.026-0.147-0.009-0.175-0.078
				c-0.025-0.069,0-0.148,0.07-0.183l1.683-0.698C69.262,81.22,69.341,81.255,69.368,81.325L69.368,81.325z M67.458,82.118
				c0.026,0.062,0.096,0.087,0.148,0.07l1.683-0.698c0.062-0.026,0.087-0.096,0.062-0.156c-0.026-0.062-0.096-0.088-0.148-0.07
				l-1.683,0.697C67.458,81.987,67.432,82.058,67.458,82.118L67.458,82.118z"/>
			<path fill="#F3F3F3" d="M68.129,80.897c0.025,0.07-0.009,0.14-0.078,0.166l-0.768,0.253c-0.061,0.026-0.14-0.018-0.157-0.079
				c-0.026-0.069,0.009-0.139,0.079-0.165l0.767-0.253C68.034,80.793,68.103,80.828,68.129,80.897L68.129,80.897z"/>
			<path fill="#FFFFFF" d="M68.138,80.889c0.026,0.07-0.009,0.148-0.087,0.175l-0.768,0.253c-0.07,0.026-0.148-0.018-0.175-0.087
				c-0.026-0.07,0.009-0.148,0.087-0.175l0.768-0.253C68.034,80.784,68.112,80.819,68.138,80.889L68.138,80.889z M67.126,81.22
				c0.018,0.062,0.087,0.097,0.148,0.079l0.767-0.253c0.062-0.018,0.088-0.087,0.07-0.148c-0.018-0.061-0.087-0.096-0.148-0.078
				l-0.768,0.253C67.135,81.099,67.109,81.159,67.126,81.22L67.126,81.22z"/>
			<path fill="#F3F3F3" d="M68.915,79.86c0.017,0.069-0.027,0.14-0.097,0.147l-1.787,0.35c-0.069,0.018-0.131-0.035-0.148-0.105
				c-0.017-0.069,0.026-0.139,0.097-0.147l1.787-0.349C68.835,79.747,68.905,79.791,68.915,79.86L68.915,79.86z"/>
			<path fill="#FFFFFF" d="M68.931,79.86c0.018,0.078-0.034,0.147-0.104,0.165l-1.787,0.35c-0.07,0.018-0.14-0.035-0.157-0.113
				c-0.017-0.079,0.035-0.148,0.104-0.166l1.787-0.349C68.844,79.729,68.915,79.781,68.931,79.86L68.931,79.86z M66.9,80.252
				c0.009,0.062,0.069,0.105,0.131,0.096L68.818,80c0.062-0.01,0.104-0.078,0.087-0.14c-0.008-0.062-0.069-0.104-0.131-0.097
				l-1.787,0.35C66.926,80.131,66.882,80.191,66.9,80.252L66.9,80.252z"/>
			<path fill="#F3F3F3" d="M67.797,79.189c0.01,0.068-0.034,0.13-0.104,0.139l-0.803,0.096c-0.07,0.009-0.131-0.043-0.14-0.113
				c-0.009-0.069,0.035-0.131,0.104-0.139l0.803-0.097C67.719,79.066,67.79,79.119,67.797,79.189L67.797,79.189z"/>
			<path fill="#FFFFFF" d="M67.807,79.189c0.008,0.078-0.044,0.147-0.113,0.156l-0.803,0.096c-0.07,0.009-0.14-0.043-0.148-0.122
				c-0.008-0.078,0.044-0.147,0.113-0.157l0.803-0.096C67.728,79.059,67.797,79.11,67.807,79.189L67.807,79.189z M66.751,79.311
				c0.009,0.062,0.069,0.113,0.131,0.105l0.802-0.097c0.062-0.009,0.105-0.069,0.097-0.13c-0.009-0.062-0.069-0.114-0.131-0.105
				l-0.802,0.096C66.787,79.189,66.743,79.25,66.751,79.311L66.751,79.311z"/>
			<path fill="#F3F3F3" d="M68.774,78.344c0,0.069-0.052,0.13-0.121,0.13h-1.822c-0.07,0-0.123-0.061-0.123-0.13
				c0-0.07,0.053-0.131,0.123-0.131h1.822C68.722,78.213,68.774,78.273,68.774,78.344L68.774,78.344z"/>
			<path fill="#FFFFFF" d="M68.784,78.344c0,0.078-0.062,0.139-0.131,0.139h-1.822c-0.07,0-0.131-0.061-0.131-0.139
				c0-0.079,0.061-0.141,0.131-0.141h1.822C68.722,78.203,68.784,78.265,68.784,78.344L68.784,78.344z M66.717,78.334
				c0,0.062,0.052,0.123,0.113,0.123h1.822c0.061,0,0.113-0.053,0.113-0.123c0-0.061-0.053-0.121-0.113-0.121h-1.822
				C66.769,78.221,66.717,78.273,66.717,78.334L66.717,78.334z"/>
			<path fill="#E2E2E2" d="M67.807,77.463c-0.01,0.069-0.062,0.121-0.131,0.121l-0.811-0.061c-0.07-0.009-0.123-0.07-0.114-0.14
				s0.062-0.122,0.131-0.122l0.812,0.062C67.754,77.332,67.807,77.393,67.807,77.463L67.807,77.463z"/>
			<path fill="#FFFFFF" d="M67.815,77.463c-0.008,0.078-0.069,0.131-0.139,0.131l-0.811-0.062c-0.07-0.009-0.131-0.069-0.123-0.148
				c0.009-0.078,0.07-0.13,0.14-0.13l0.812,0.061C67.763,77.323,67.815,77.393,67.815,77.463L67.815,77.463z M66.751,77.384
				c-0.009,0.062,0.044,0.122,0.104,0.122l0.811,0.061c0.062,0,0.114-0.043,0.123-0.113c0.008-0.061-0.044-0.121-0.105-0.121
				l-0.811-0.062C66.813,77.271,66.76,77.323,66.751,77.384L66.751,77.384z"/>
			<path fill="#F3F3F3" d="M68.931,76.826c-0.017,0.069-0.078,0.113-0.147,0.104l-1.788-0.366c-0.069-0.018-0.113-0.078-0.096-0.148
				c0.018-0.069,0.079-0.113,0.148-0.104l1.787,0.357C68.897,76.687,68.94,76.756,68.931,76.826L68.931,76.826z"/>
			<path fill="#FFFFFF" d="M68.94,76.826c-0.018,0.078-0.087,0.122-0.156,0.113l-1.788-0.357c-0.069-0.018-0.122-0.088-0.104-0.166
				s0.088-0.122,0.157-0.113l1.787,0.357C68.905,76.678,68.949,76.748,68.94,76.826L68.94,76.826z M66.909,76.416
				c-0.009,0.061,0.026,0.122,0.087,0.14l1.788,0.357c0.061,0.009,0.121-0.026,0.139-0.096c0.009-0.062-0.025-0.122-0.087-0.14
				l-1.787-0.357C66.979,76.312,66.926,76.355,66.909,76.416L66.909,76.416z"/>
			<path fill="#F3F3F3" d="M68.147,75.779c-0.018,0.07-0.088,0.113-0.157,0.096l-0.784-0.217c-0.07-0.018-0.105-0.088-0.088-0.157
				s0.088-0.114,0.157-0.097l0.784,0.219C68.129,75.641,68.165,75.71,68.147,75.779L68.147,75.779z"/>
			<path fill="#FFFFFF" d="M68.155,75.779c-0.017,0.07-0.096,0.123-0.165,0.096l-0.784-0.217c-0.07-0.018-0.113-0.097-0.097-0.166
				c0.018-0.07,0.097-0.122,0.166-0.096l0.784,0.218C68.129,75.631,68.172,75.701,68.155,75.779L68.155,75.779z M67.135,75.492
				c-0.018,0.061,0.018,0.131,0.078,0.148l0.785,0.218c0.061,0.017,0.122-0.018,0.14-0.087c0.017-0.062-0.018-0.131-0.079-0.148
				l-0.784-0.219C67.213,75.396,67.153,75.432,67.135,75.492L67.135,75.492z"/>
			<path fill="#F3F3F3" d="M69.375,75.361c-0.025,0.07-0.104,0.096-0.165,0.07l-1.683-0.698c-0.061-0.026-0.096-0.104-0.07-0.165
				c0.026-0.07,0.105-0.097,0.166-0.07l1.683,0.697C69.375,75.222,69.403,75.301,69.375,75.361L69.375,75.361z"/>
			<path fill="#FFFFFF" d="M69.385,75.37c-0.027,0.069-0.105,0.104-0.175,0.078l-1.683-0.697c-0.07-0.026-0.096-0.104-0.07-0.183
				c0.026-0.07,0.105-0.105,0.175-0.079l1.683,0.698C69.385,75.222,69.411,75.301,69.385,75.37L69.385,75.37z M67.475,74.576
				c-0.025,0.062,0,0.131,0.062,0.157l1.683,0.698c0.061,0.025,0.122-0.01,0.148-0.07c0.025-0.061,0-0.131-0.062-0.157l-1.683-0.697
				C67.563,74.489,67.493,74.516,67.475,74.576L67.475,74.576z"/>
			<path fill="#F3F3F3" d="M68.809,74.184c-0.035,0.062-0.104,0.088-0.166,0.062l-0.723-0.366c-0.062-0.025-0.088-0.104-0.053-0.174
				c0.035-0.062,0.104-0.088,0.166-0.062l0.723,0.366C68.818,74.045,68.844,74.123,68.809,74.184L68.809,74.184z"/>
			<path fill="#FFFFFF" d="M68.818,74.193c-0.034,0.069-0.113,0.096-0.183,0.061l-0.725-0.366c-0.069-0.034-0.096-0.113-0.061-0.183
				c0.035-0.07,0.113-0.096,0.184-0.062l0.723,0.366C68.827,74.036,68.853,74.123,68.818,74.193L68.818,74.193z M67.876,73.713
				c-0.026,0.062-0.009,0.131,0.052,0.157l0.725,0.366c0.052,0.026,0.121,0,0.156-0.053c0.026-0.061,0.009-0.13-0.053-0.156
				l-0.731-0.366C67.972,73.635,67.903,73.652,67.876,73.713L67.876,73.713z"/>
			<path fill="#F3F3F3" d="M70.09,74.019c-0.043,0.062-0.113,0.079-0.174,0.035l-1.508-1.003c-0.062-0.035-0.07-0.113-0.035-0.174
				c0.035-0.062,0.113-0.079,0.174-0.035l1.518,1.012C70.118,73.888,70.135,73.967,70.09,74.019L70.09,74.019z"/>
			<path fill="#FFFFFF" d="M70.1,74.027c-0.044,0.061-0.131,0.078-0.192,0.043l-1.509-1.011c-0.061-0.044-0.078-0.122-0.034-0.192
				c0.044-0.061,0.131-0.078,0.192-0.043l1.508,1.012C70.135,73.879,70.143,73.967,70.1,74.027L70.1,74.027z M68.382,72.877
				c-0.035,0.052-0.026,0.131,0.026,0.165l1.517,1.012c0.052,0.034,0.122,0.017,0.157-0.035s0.025-0.131-0.026-0.165l-1.517-1.012
				C68.487,72.807,68.417,72.824,68.382,72.877L68.382,72.877z"/>
			<path fill="#F3F3F3" d="M69.768,72.754c-0.043,0.053-0.121,0.07-0.174,0.026l-0.637-0.497c-0.053-0.043-0.061-0.121-0.018-0.174
				c0.044-0.053,0.122-0.07,0.175-0.026l0.636,0.497C69.803,72.623,69.812,72.702,69.768,72.754L69.768,72.754z"/>
			<path fill="#FFFFFF" d="M69.777,72.764c-0.044,0.061-0.13,0.069-0.191,0.025l-0.637-0.497c-0.062-0.044-0.069-0.13-0.026-0.191
				c0.044-0.062,0.131-0.069,0.192-0.026l0.636,0.497C69.812,72.615,69.821,72.702,69.777,72.764L69.777,72.764z M68.94,72.109
				c-0.043,0.053-0.035,0.122,0.018,0.166l0.637,0.496c0.053,0.035,0.122,0.026,0.166-0.025c0.043-0.053,0.034-0.123-0.018-0.166
				l-0.637-0.497C69.053,72.049,68.984,72.057,68.94,72.109L68.94,72.109z"/>
			<path fill="#F3F3F3" d="M71.067,72.842c-0.052,0.053-0.131,0.053-0.174,0l-1.299-1.281c-0.053-0.053-0.044-0.131,0-0.175
				c0.053-0.053,0.131-0.053,0.174,0l1.291,1.281C71.111,72.711,71.111,72.798,71.067,72.842L71.067,72.842z"/>
			<path fill="#FFFFFF" d="M71.067,72.85c-0.052,0.053-0.139,0.053-0.191,0l-1.29-1.281c-0.053-0.053-0.053-0.139,0-0.191
				c0.052-0.053,0.14-0.053,0.191,0l1.29,1.281C71.128,72.711,71.128,72.798,71.067,72.85L71.067,72.85z M69.602,71.395
				c-0.043,0.043-0.043,0.121,0,0.166l1.291,1.281c0.043,0.043,0.122,0.043,0.166,0c0.043-0.044,0.043-0.122,0-0.166l-1.291-1.29
				C69.725,71.342,69.655,71.342,69.602,71.395L69.602,71.395z"/>
			<path fill="#F3F3F3" d="M70.989,71.543c-0.053,0.043-0.131,0.043-0.174-0.01l-0.532-0.609c-0.044-0.053-0.034-0.131,0.018-0.175
				s0.131-0.044,0.175,0.009l0.531,0.61C71.05,71.412,71.042,71.49,70.989,71.543L70.989,71.543z"/>
			<path fill="#FFFFFF" d="M70.998,71.543c-0.062,0.052-0.14,0.043-0.191-0.01l-0.532-0.609c-0.053-0.053-0.043-0.14,0.018-0.192
				c0.061-0.052,0.14-0.044,0.191,0.009l0.532,0.61C71.059,71.412,71.059,71.499,70.998,71.543L70.998,71.543z M70.3,70.749
				c-0.052,0.044-0.052,0.113-0.018,0.165l0.532,0.611c0.043,0.043,0.113,0.052,0.166,0.008c0.052-0.043,0.052-0.113,0.017-0.165
				l-0.532-0.61C70.422,70.705,70.352,70.705,70.3,70.749L70.3,70.749z"/>
			<path fill="#F3F3F3" d="M72.245,71.874c-0.061,0.044-0.14,0.026-0.174-0.035L71.05,70.33c-0.035-0.061-0.018-0.139,0.034-0.174
				c0.062-0.044,0.141-0.026,0.175,0.035l1.011,1.508C72.315,71.76,72.297,71.839,72.245,71.874L72.245,71.874z"/>
			<path fill="#FFFFFF" d="M72.245,71.883c-0.061,0.043-0.148,0.025-0.191-0.035l-1.012-1.508c-0.044-0.062-0.026-0.148,0.043-0.192
				c0.062-0.044,0.148-0.026,0.192,0.034l1.011,1.509C72.332,71.76,72.315,71.839,72.245,71.883L72.245,71.883z M71.094,70.165
				c-0.053,0.034-0.07,0.104-0.035,0.157l1.012,1.508c0.034,0.053,0.104,0.061,0.165,0.026c0.052-0.035,0.069-0.104,0.034-0.157
				l-1.011-1.5C71.225,70.147,71.146,70.13,71.094,70.165L71.094,70.165z"/>
			<path fill="#F3F3F3" d="M72.428,70.584c-0.062,0.034-0.141,0.017-0.175-0.044l-0.401-0.706c-0.035-0.062-0.009-0.14,0.053-0.175
				c0.061-0.034,0.139-0.018,0.174,0.044l0.401,0.706C72.506,70.471,72.489,70.549,72.428,70.584L72.428,70.584z"/>
			<path fill="#FFFFFF" d="M72.428,70.592c-0.07,0.035-0.148,0.018-0.184-0.043l-0.401-0.707c-0.034-0.061-0.017-0.147,0.053-0.183
				c0.069-0.034,0.147-0.018,0.183,0.044l0.401,0.706C72.514,70.471,72.498,70.549,72.428,70.592L72.428,70.592z M71.905,69.668
				c-0.053,0.035-0.078,0.104-0.044,0.156l0.401,0.707c0.035,0.053,0.104,0.069,0.156,0.043c0.053-0.034,0.079-0.104,0.044-0.156
				l-0.401-0.707C72.036,69.659,71.957,69.633,71.905,69.668L71.905,69.668z"/>
			<path fill="#F3F3F3" d="M73.587,71.158c-0.069,0.027-0.14,0-0.166-0.061l-0.706-1.683c-0.026-0.062,0.009-0.14,0.07-0.165
				c0.069-0.027,0.139,0,0.165,0.061l0.706,1.683C73.683,71.055,73.648,71.133,73.587,71.158L73.587,71.158z"/>
			<path fill="#FFFFFF" d="M73.587,71.168c-0.069,0.025-0.148,0-0.183-0.07l-0.707-1.683c-0.025-0.069,0.009-0.148,0.078-0.175
				c0.07-0.025,0.148,0,0.184,0.07l0.706,1.683C73.692,71.055,73.657,71.133,73.587,71.168L73.587,71.168z M72.793,69.258
				c-0.061,0.026-0.087,0.096-0.061,0.148l0.706,1.683c0.026,0.062,0.096,0.087,0.157,0.062c0.061-0.026,0.087-0.096,0.061-0.148
				l-0.706-1.683C72.917,69.258,72.855,69.232,72.793,69.258L72.793,69.258z"/>
			<path fill="#F3F3F3" d="M74.014,69.921c-0.069,0.026-0.139-0.009-0.166-0.079l-0.252-0.767c-0.026-0.062,0.018-0.14,0.078-0.157
				s0.14,0.009,0.166,0.078l0.252,0.768C74.12,69.824,74.084,69.895,74.014,69.921L74.014,69.921z"/>
			<path fill="#FFFFFF" d="M74.023,69.93c-0.069,0.025-0.147-0.009-0.175-0.078l-0.252-0.768c-0.026-0.07,0.018-0.148,0.087-0.175
				s0.148,0.009,0.175,0.079l0.252,0.767C74.127,69.824,74.092,69.903,74.023,69.93L74.023,69.93z M73.683,68.927
				c-0.062,0.018-0.096,0.087-0.079,0.148l0.254,0.767c0.018,0.062,0.087,0.088,0.148,0.07c0.061-0.018,0.096-0.088,0.078-0.148
				l-0.253-0.768C73.814,68.936,73.745,68.9,73.683,68.927L73.683,68.927z"/>
			<path fill="#F3F3F3" d="M75.043,70.715c-0.07,0.017-0.14-0.027-0.148-0.097l-0.366-1.787c-0.018-0.069,0.035-0.131,0.104-0.148
				c0.07-0.018,0.14,0.026,0.148,0.097l0.366,1.787C75.157,70.627,75.113,70.697,75.043,70.715L75.043,70.715z"/>
			<path fill="#FFFFFF" d="M75.043,70.723c-0.078,0.018-0.148-0.035-0.166-0.104l-0.366-1.787c-0.017-0.069,0.035-0.148,0.104-0.157
				c0.078-0.018,0.148,0.035,0.166,0.105l0.366,1.787C75.166,70.636,75.122,70.705,75.043,70.723L75.043,70.723z M74.633,68.691
				c-0.061,0.009-0.104,0.07-0.096,0.14l0.366,1.787c0.009,0.062,0.078,0.104,0.14,0.087c0.061-0.008,0.104-0.069,0.096-0.139
				l-0.366-1.787C74.755,68.718,74.694,68.683,74.633,68.691L74.633,68.691z"/>
			<path fill="#F3F3F3" d="M75.706,69.58c-0.069,0.01-0.131-0.034-0.148-0.104l-0.104-0.803c-0.01-0.069,0.043-0.131,0.113-0.139
				c0.069-0.01,0.131,0.034,0.147,0.104l0.104,0.803C75.828,69.511,75.776,69.572,75.706,69.58L75.706,69.58z"/>
			<path fill="#FFFFFF" d="M75.706,69.59c-0.078,0.008-0.148-0.044-0.156-0.113l-0.105-0.803c-0.008-0.069,0.044-0.139,0.123-0.148
				c0.078-0.008,0.147,0.044,0.156,0.113l0.104,0.803C75.836,69.511,75.784,69.58,75.706,69.59L75.706,69.59z M75.575,68.543
				c-0.061,0.009-0.113,0.07-0.104,0.131l0.104,0.803c0.01,0.061,0.07,0.104,0.131,0.096c0.062-0.009,0.113-0.07,0.105-0.131
				l-0.105-0.803C75.698,68.578,75.636,68.535,75.575,68.543L75.575,68.543z"/>

				<linearGradient id="SVGID_16_" gradientUnits="userSpaceOnUse" x1="-35.0903" y1="164.5859" x2="-35.1115" y2="164.5479" gradientTransform="matrix(229.4 0 0 -229.4 8127.687 37832.1484)">
				<stop  offset="0" style="stop-color:#010101;stop-opacity:0"/>
				<stop  offset="1" style="stop-color:#010101"/>
			</linearGradient>
			<circle fill="url(#SVGID_16_)" fill-opacity="0.2" cx="76.647" cy="78.36" r="10.323"/>
		</g>
		<g>
			<polygon opacity="0.05" fill="#010101" points="93.485,80.531 85.158,85.867 85.149,85.867 85.149,85.876 85.141,85.885
				79.944,94.455 87.582,88.309 87.59,88.3 87.59,88.291 			"/>
		</g>
		<path fill="#CD2027" d="M93.328,80.035l-8.23,5.85l2.44,2.424L93.328,80.035"/>
		<path fill="#F05456" d="M85.106,85.867l1.229,1.212l6.993-7.044L85.106,85.867z"/>
		<path fill="#ADADAD" d="M85.106,85.867l2.441,2.424l-8.23,5.851L85.106,85.867z"/>
		<path fill="#EFEEEE" d="M79.317,94.142l7.018-7.063l-1.229-1.212L79.317,94.142z"/>
	</g>
</g>
<circle fill="#7F62AA" cx="90.161" cy="111.706" r="9"/>
<path fill="#F3F3F3" d="M94.085,114.783l1.365,4.204c-0.598,0.435-1.251,0.798-1.947,1.077l-3.343-2.43l-3.344,2.429
	c-0.696-0.278-1.349-0.642-1.946-1.076l1.365-4.204l-5.056-3.673c0.021-0.318,0.059-0.632,0.111-0.94h6.443l2.425-7.464l0.001-0.001
	l0.001,0.001l2.424,7.464h6.443c0.054,0.309,0.092,0.622,0.111,0.94L94.085,114.783z"/>
<g>
	<path fill="#7F62AA" d="M90.66,111.719h-2.484c-0.295,0-0.535,0.24-0.535,0.535v1.939c0,0.295,0.24,0.535,0.535,0.535h2.484
		c0.295,0,0.534-0.24,0.534-0.535v-1.939C91.194,111.959,90.955,111.719,90.66,111.719z"/>
	<polygon fill="#7F62AA" points="91.336,113.709 92.498,114.467 92.498,112.027 91.336,112.785 	"/>
	<rect x="92.675" y="112.027" fill="#7F62AA" width="0.408" height="2.439"/>
</g>
<circle fill="#F3F3F3" cx="111.239" cy="96.008" r="8.978"/>
<path fill="#EF4353" d="M117.319,87.948v12.53c0,1.203-0.842,2.243-2.018,2.495l-0.65,0.14c-1.32,0.282-2.564-0.708-2.592-2.049
	c-0.021-1.039,0.732-1.935,1.748-2.153l1.633-0.351c0.367-0.078,0.631-0.402,0.631-0.778v-6.051c0-0.262-0.242-0.457-0.498-0.404
	l-6.766,1.395c-0.191,0.04-0.33,0.209-0.33,0.405v9.175c0,0.756-0.332,1.447-0.869,1.918c-1.469-0.65-2.73-1.683-3.658-2.972
	c0.282-0.25,0.631-0.431,1.018-0.514l1.632-0.351c0.368-0.078,0.63-0.403,0.63-0.778v-9.974c0-0.457,0.32-0.852,0.768-0.943
	l5.98-1.232l2.184-0.451C116.758,86.882,117.319,87.339,117.319,87.948z"/>
<path fill="#967AB8" d="M108.477,96.474v5.828c0,0.756-0.332,1.447-0.869,1.918c-1.469-0.65-2.73-1.683-3.658-2.972
	c0.282-0.25,0.631-0.431,1.018-0.514l1.632-0.351c0.368-0.078,0.63-0.403,0.63-0.778v-2.874L108.477,96.474z"/>
<path fill="#35AADF" d="M117.319,94.652v5.826c0,1.203-0.842,2.243-2.018,2.495l-0.65,0.14c-1.32,0.283-2.565-0.708-2.592-2.049
	c-0.021-1.039,0.732-1.935,1.748-2.153l1.633-0.351c0.367-0.078,0.631-0.402,0.631-0.778v-2.873L117.319,94.652z"/>
<path fill="#333333" d="M46.354,89.112l-0.203-0.051v-0.203c0-1.829-1.474-3.303-3.251-3.303c-1.321,0-2.541,0.813-3.049,2.032
	l-0.152,0.355l-0.254-0.254c-0.254-0.254-0.61-0.406-0.965-0.406c-0.754-0.003-1.369,0.605-1.372,1.36c0,0.004,0,0.008,0,0.012
	l0.051,0.305l-0.203,0.051c-0.965,0.305-1.626,1.168-1.626,2.134c0,1.22,1.016,2.235,2.236,2.235h8.434
	c1.168,0,2.185-0.966,2.185-2.185C48.133,90.179,47.421,89.315,46.354,89.112L46.354,89.112z"/>
<path fill="#333333" d="M46.507,80.373h-9.349c-2.642,0-4.726,2.135-4.726,4.726v8.789c0,2.643,2.134,4.726,4.726,4.726h9.297
	c2.642,0,4.726-2.134,4.726-4.726v-8.738C51.232,82.508,49.098,80.373,46.507,80.373L46.507,80.373z M45.999,93.938h-8.434
	c-1.524,0-2.744-1.219-2.744-2.743c0-1.169,0.711-2.134,1.778-2.54c0.051-1.017,0.864-1.829,1.88-1.829
	c0.355,0,0.711,0.102,1.016,0.305c0.661-1.271,1.931-2.032,3.354-2.032c2.032,0,3.709,1.626,3.76,3.607
	c1.168,0.305,2.032,1.371,2.032,2.591C48.641,92.72,47.473,93.938,45.999,93.938L45.999,93.938z"/>
<path fill="#E4E4E4" d="M46.66,88.655c-0.102-2.032-1.728-3.607-3.76-3.607c-1.423,0-2.744,0.813-3.354,2.032
	c-0.305-0.203-0.661-0.305-1.016-0.305c-1.016,0-1.829,0.813-1.88,1.829c-1.067,0.406-1.778,1.422-1.778,2.54
	c0,1.524,1.219,2.743,2.744,2.743h8.434c1.473,0,2.693-1.219,2.693-2.692C48.641,90.026,47.828,88.96,46.66,88.655L46.66,88.655z
	 M45.999,93.431h-8.434c-1.219,0-2.235-1.016-2.235-2.235c0-1.017,0.66-1.829,1.625-2.134l0.204-0.051l-0.051-0.305
	c0-0.763,0.609-1.372,1.372-1.372c0.355,0,0.711,0.152,0.965,0.406l0.254,0.254l0.152-0.355c0.508-1.22,1.676-2.032,3.048-2.032
	c1.829,0,3.251,1.474,3.251,3.303v0.203l0.204,0.051c1.067,0.152,1.778,1.067,1.778,2.134
	C48.133,92.466,47.167,93.431,45.999,93.431L45.999,93.431z"/>
<g id="g3" transform="matrix(11.482759,0,0,11.482759,-5.2413795,-5.2413795)">
	<path id="path5" fill="#010101" d="M4.41,9.881C4.409,9.824,4.433,9.779,4.483,9.747
		c-0.028-0.041-0.07-0.065-0.124-0.07C4.339,9.675,4.314,9.68,4.284,9.691C4.252,9.703,4.233,9.709,4.229,9.709
		c-0.009,0-0.025-0.005-0.05-0.016c-0.024-0.01-0.045-0.015-0.063-0.015c-0.029,0-0.056,0.009-0.081,0.024
		C4.011,9.718,3.991,9.74,3.976,9.767C3.957,9.801,3.948,9.842,3.948,9.889c0,0.042,0.007,0.085,0.021,0.127
		c0.013,0.04,0.03,0.076,0.05,0.107c0.018,0.028,0.034,0.048,0.048,0.061c0.019,0.02,0.039,0.029,0.06,0.028
		c0.013-0.001,0.03-0.005,0.052-0.015c0.02-0.009,0.04-0.013,0.06-0.013c0.019,0,0.038,0.004,0.058,0.013
		c0.022,0.009,0.04,0.014,0.054,0.014c0.021-0.001,0.04-0.01,0.058-0.027c0.006-0.006,0.013-0.013,0.021-0.023
		c0.007-0.01,0.016-0.022,0.025-0.035c0.006-0.01,0.013-0.02,0.019-0.032c0.006-0.011,0.012-0.023,0.017-0.036
		c0.002-0.005,0.004-0.01,0.006-0.016c0.002-0.005,0.004-0.011,0.005-0.017c-0.017-0.008-0.032-0.018-0.045-0.032
		C4.425,9.963,4.41,9.925,4.41,9.881L4.41,9.881z"/>
	<polygon id="polygon7" fill="#010101" points="4.653,10.203 4.747,10.203 4.747,9.869 4.752,9.869 4.867,10.135 4.933,10.135
		5.048,9.869 5.052,9.869 5.052,10.203 5.148,10.203 5.148,9.687 5.04,9.687 4.902,10.007 4.899,10.007 4.761,9.687 4.653,9.687
		"/>
	<path id="path9" fill="#010101" d="M4.324,9.62C4.348,9.589,4.36,9.556,4.36,9.521
		c0-0.002,0-0.005,0-0.007c0-0.002,0-0.005-0.001-0.007C4.343,9.507,4.325,9.513,4.306,9.523C4.287,9.533,4.272,9.545,4.26,9.56
		C4.235,9.59,4.223,9.622,4.223,9.656c0,0.002,0,0.005,0,0.007c0,0.002,0,0.004,0.001,0.007C4.261,9.673,4.295,9.656,4.324,9.62z"/>
	<rect id="rect11" x="6.251" y="9.687" fill="#010101" width="0.106" height="0.516"/>
	<path id="path13" fill="#010101" d="M6.678,9.769c0.063,0,0.096,0.049,0.096,0.102h0.102V9.86
		c0-0.1-0.075-0.183-0.199-0.183c-0.133,0-0.211,0.089-0.211,0.239v0.058c0,0.151,0.078,0.238,0.211,0.238
		c0.127,0,0.199-0.084,0.199-0.178v-0.011H6.774c0,0.053-0.033,0.097-0.096,0.097c-0.064,0-0.105-0.046-0.105-0.146V9.917
		C6.573,9.818,6.614,9.769,6.678,9.769L6.678,9.769z"/>
	<path id="path15" fill="#010101" d="M5.554,10.013c0,0.069-0.04,0.107-0.098,0.107
		c-0.059,0-0.099-0.038-0.099-0.107V9.687H5.251v0.341c0,0.11,0.077,0.185,0.204,0.185c0.127,0,0.204-0.075,0.204-0.185V9.687H5.554
		V10.013L5.554,10.013z"/>
	<path id="path17" fill="#010101" d="M6.01,9.903L5.935,9.885C5.89,9.876,5.867,9.856,5.867,9.826
		c0-0.04,0.032-0.065,0.083-0.065c0.058,0,0.087,0.034,0.089,0.07h0.099C6.137,9.74,6.062,9.676,5.95,9.676
		c-0.106,0-0.189,0.056-0.189,0.158c0,0.088,0.059,0.129,0.129,0.144l0.075,0.018c0.05,0.012,0.076,0.029,0.076,0.064
		c0,0.04-0.031,0.067-0.09,0.067c-0.063,0-0.097-0.034-0.1-0.072H5.749c0.002,0.073,0.049,0.158,0.196,0.158
		c0.124,0,0.2-0.062,0.2-0.164C6.145,9.956,6.084,9.919,6.01,9.903z"/>
</g>
<circle fill="#F3F3F3" cx="63.723" cy="92.068" r="10"/>
<g>
	<path fill="#353635" d="M59.711,93.471c-0.379,0.865-0.926,1.604-1.465,2.027c-0.971,0.764-1.386-0.207-2.288-0.207
		c-0.625,0-1.016,0.465-1.521,0.498c-0.461-1.15-0.715-2.406-0.715-3.721c0-1.272,0.238-2.488,0.671-3.607
		c0.703,0.067,0.916,0.428,1.565,0.428c0.716,0,0.901-0.439,1.802-0.439c0.585,0,1.308,0.359,1.816,0.991
		c-0.759,0.339-1.289,1.102-1.289,1.987C58.288,92.365,58.88,93.164,59.711,93.471z"/>
	<path fill="#353635" d="M55.65,88.367c0,0.059,0.003,0.116,0.008,0.173c1.116-0.037,2.01-0.952,2.01-2.078
		c0-0.058-0.003-0.116-0.008-0.173C56.544,86.326,55.65,87.242,55.65,88.367z"/>
	<path fill="#353635" d="M60.914,88.81c0-0.18,0.16-0.341,0.411-0.341h1.953c1.232,0,2.194,0.592,2.194,2.204v0.08
		c0,1.603-0.992,2.214-2.254,2.214h-1.242v2.474c0,0.23-0.26,0.351-0.531,0.351c-0.26,0-0.531-0.12-0.531-0.351V88.81L60.914,88.81z
		 M61.976,89.41v2.715h1.242c0.741,0,1.192-0.421,1.192-1.302v-0.12c0-0.882-0.451-1.292-1.192-1.292L61.976,89.41L61.976,89.41z"/>
	<path fill="#353635" d="M69.247,92.926v2.515c0,0.19-0.22,0.351-0.511,0.351c-0.271,0-0.481-0.16-0.481-0.351V95.09
		c-0.351,0.41-0.831,0.781-1.512,0.781c-0.731,0-1.332-0.421-1.332-1.322c0-1.132,0.952-1.433,2.344-1.433h0.44v-0.18
		c0-0.511-0.26-1.082-0.992-1.082c-0.731,0-0.911,0.301-1.111,0.301c-0.25,0-0.381-0.291-0.381-0.531
		c0-0.36,0.832-0.641,1.513-0.641C68.696,90.983,69.247,91.925,69.247,92.926z M68.195,93.697h-0.25
		c-0.761,0-1.472,0.08-1.472,0.722c0,0.45,0.281,0.65,0.651,0.65c0.501,0,1.072-0.521,1.072-1.001V93.697L68.195,93.697z"/>
	<path fill="#353635" d="M69.406,91.614c-0.03-0.04-0.04-0.08-0.04-0.141c0-0.271,0.411-0.501,0.691-0.501
		c0.14,0,0.27,0.061,0.32,0.19l1.262,3.256l1.082-3.256c0.06-0.13,0.18-0.19,0.3-0.19c0.25,0,0.701,0.221,0.701,0.521
		c0,0.04,0,0.09-0.02,0.12l-1.482,3.916c-0.451,1.182-0.942,2.515-2.364,2.515c-0.27,0-0.49-0.07-0.49-0.451
		c0-0.24,0.08-0.451,0.29-0.451c0.511,0,1.292-0.511,1.433-1.643L69.406,91.614z"/>
</g>
<g>
</g>
<g>
</g>
<g>
</g>
<g>
</g>
<g>
</g>
<g>
</g>
</svg>
