<svg version="1.1" viewBox="0.0 0.0 1746.0 772.0" fill="none" stroke="none" stroke-linecap="square" stroke-miterlimit="10" xmlns:xlink="http://www.w3.org/1999/xlink" xmlns="http://www.w3.org/2000/svg"><clipPath id="p.0"><path d="m0 0l1746.0 0l0 772.0l-1746.0 0l0 -772.0z" clip-rule="nonzero"/></clipPath><g clip-path="url(#p.0)"><path fill="#000000" fill-opacity="0.0" d="m0 0l1746.0 0l0 772.0l-1746.0 0z" fill-rule="evenodd"/><path fill="#000000" fill-opacity="0.0" d="m1341.7782 105.03937l0 558.1732" fill-rule="evenodd"/><path stroke="#66501e" stroke-width="4.0" stroke-linejoin="round" stroke-linecap="butt" d="m1341.7782 105.03937l0 534.1732" fill-rule="evenodd"/><path fill="#66501e" stroke="#66501e" stroke-width="4.0" stroke-linecap="butt" d="m1335.1713 639.2126l6.6069336 18.152405l6.6069336 -18.152405z" fill-rule="evenodd"/><path fill="#000000" fill-opacity="0.0" d="m365.70602 742.97925l-0.6929016 -202.98004" fill-rule="evenodd"/><path stroke="#9fc5e8" stroke-width="1.0" stroke-linejoin="round" stroke-linecap="butt" d="m365.70602 742.97925l-0.6929016 -202.98004" fill-rule="evenodd"/><path fill="#000000" fill-opacity="0.0" d="m364.27823 253.65358l0.72439575 -249.39369" fill-rule="evenodd"/><path stroke="#c9daf8" stroke-width="1.0" stroke-linejoin="round" stroke-linecap="butt" d="m364.27823 253.65358l0.7069702 -243.39372" fill-rule="evenodd"/><path fill="#c9daf8" stroke="#c9daf8" stroke-width="1.0" stroke-linecap="butt" d="m366.63693 10.264655l-1.6385498 -4.5428762l-1.664917 4.5332804z" fill-rule="evenodd"/><path fill="#000000" fill-opacity="0.0" d="m354.0525 253.65358l21.417328 0" fill-rule="evenodd"/><path stroke="#9fc5e8" stroke-width="1.0" stroke-linejoin="round" stroke-linecap="butt" d="m354.0525 253.65358l21.417328 0" fill-rule="evenodd"/><path fill="#000000" fill-opacity="0.0" d="m353.93176 264.2341l21.417328 0" fill-rule="evenodd"/><path stroke="#9fc5e8" stroke-width="1.0" stroke-linejoin="round" stroke-linecap="butt" d="m353.93176 264.2341l21.417328 0" fill-rule="evenodd"/><path fill="#000000" fill-opacity="0.0" d="m364.99213 263.80258l0.09448242 133.0398" fill-rule="evenodd"/><path stroke="#9fc5e8" stroke-width="1.0" stroke-linejoin="round" stroke-linecap="butt" d="m364.99213 263.80258l0.09448242 133.0398" fill-rule="evenodd"/><path fill="#000000" fill-opacity="0.0" d="m364.76117 529.131l0 -124.345215" fill-rule="evenodd"/><path stroke="#9fc5e8" stroke-width="1.0" stroke-linejoin="round" stroke-linecap="butt" d="m364.76117 529.131l0 -124.345215" fill-rule="evenodd"/><path fill="#000000" fill-opacity="0.0" d="m354.39108 529.14166l21.417328 0" fill-rule="evenodd"/><path stroke="#9fc5e8" stroke-width="1.0" stroke-linejoin="round" stroke-linecap="butt" d="m354.39108 529.14166l21.417328 0" fill-rule="evenodd"/><path fill="#000000" fill-opacity="0.0" d="m354.27036 539.72217l21.417297 0" fill-rule="evenodd"/><path stroke="#9fc5e8" stroke-width="1.0" stroke-linejoin="round" stroke-linecap="butt" d="m354.27036 539.72217l21.417297 0" fill-rule="evenodd"/><path fill="#000000" fill-opacity="0.0" d="m652.39557 96.75533l-575.2756 574.7402" fill-rule="evenodd"/><path stroke="#66501e" stroke-width="4.0" stroke-linejoin="round" stroke-linecap="butt" d="m652.39557 96.75533l-558.2971 557.7775" fill-rule="evenodd"/><path fill="#66501e" stroke="#66501e" stroke-width="4.0" stroke-linecap="butt" d="m89.428825 649.8588l-8.172028 17.503723l17.511284 -8.155762z" fill-rule="evenodd"/><path fill="#000000" fill-opacity="0.0" d="m27.602362 385.46457l200.0 -0.6929016" fill-rule="evenodd"/><path stroke="#9fc5e8" stroke-width="1.0" stroke-linejoin="round" stroke-linecap="butt" d="m27.602362 385.46457l200.0 -0.6929016" fill-rule="evenodd"/><path fill="#000000" fill-opacity="0.0" d="m509.74408 384.03674l245.7323 0.72442627" fill-rule="evenodd"/><path stroke="#c9daf8" stroke-width="1.0" stroke-linejoin="round" stroke-linecap="butt" d="m509.74408 384.03674l239.7323 0.7067261" fill-rule="evenodd"/><path fill="#c9daf8" stroke="#c9daf8" stroke-width="1.0" stroke-linecap="butt" d="m749.47156 386.3952l4.5429077 -1.6383667l-4.533203 -1.6651001z" fill-rule="evenodd"/><path fill="#000000" fill-opacity="0.0" d="m509.74408 373.81104l0 21.417297" fill-rule="evenodd"/><path stroke="#9fc5e8" stroke-width="1.0" stroke-linejoin="round" stroke-linecap="butt" d="m509.74408 373.81104l0 21.417297" fill-rule="evenodd"/><path fill="#000000" fill-opacity="0.0" d="m499.3189 373.69028l0 21.417328" fill-rule="evenodd"/><path stroke="#9fc5e8" stroke-width="1.0" stroke-linejoin="round" stroke-linecap="butt" d="m499.3189 373.69028l0 21.417328" fill-rule="evenodd"/><path fill="#000000" fill-opacity="0.0" d="m499.74408 384.75067l-131.08661 0.09448242" fill-rule="evenodd"/><path stroke="#9fc5e8" stroke-width="1.0" stroke-linejoin="round" stroke-linecap="butt" d="m499.74408 384.75067l-131.08661 0.09448242" fill-rule="evenodd"/><path fill="#000000" fill-opacity="0.0" d="m238.30052 384.51968l122.5197 0" fill-rule="evenodd"/><path stroke="#9fc5e8" stroke-width="1.0" stroke-linejoin="round" stroke-linecap="butt" d="m238.30052 384.51968l122.5197 0" fill-rule="evenodd"/><path fill="#000000" fill-opacity="0.0" d="m238.30052 374.1496l0 21.417328" fill-rule="evenodd"/><path stroke="#9fc5e8" stroke-width="1.0" stroke-linejoin="round" stroke-linecap="butt" d="m238.30052 374.1496l0 21.417328" fill-rule="evenodd"/><path fill="#000000" fill-opacity="0.0" d="m227.87534 374.02887l0 21.417328" fill-rule="evenodd"/><path stroke="#9fc5e8" stroke-width="1.0" stroke-linejoin="round" stroke-linecap="butt" d="m227.87534 374.02887l0 21.417328" fill-rule="evenodd"/><path fill="#ffffff" d="m28.833334 691.49603l0 0c0 -15.620483 12.662939 -28.283447 28.283464 -28.283447l0 0c7.5012436 0 14.695251 2.9798584 19.999428 8.284058c5.3041763 5.304199 8.284035 12.498169 8.284035 19.99939l0 0c0 15.620544 -12.662933 28.283508 -28.283463 28.283508l0 0c-15.620525 0 -28.283464 -12.662964 -28.283464 -28.283508z" fill-rule="evenodd"/><path stroke="#000000" stroke-width="2.0" stroke-linejoin="round" stroke-linecap="butt" d="m28.833334 691.49603l0 0c0 -15.620483 12.662939 -28.283447 28.283464 -28.283447l0 0c7.5012436 0 14.695251 2.9798584 19.999428 8.284058c5.3041763 5.304199 8.284035 12.498169 8.284035 19.99939l0 0c0 15.620544 -12.662933 28.283508 -28.283463 28.283508l0 0c-15.620525 0 -28.283464 -12.662964 -28.283464 -28.283508z" fill-rule="evenodd"/><path fill="#000000" d="m61.867367 705.89606l-5.5 0l0 -20.6875q-3.0 2.8125 -7.078125 4.15625l0 -4.96875q2.140625 -0.703125 4.65625 -2.671875q2.53125 -1.96875 3.46875 -4.578125l4.453125 0l0 28.75z" fill-rule="nonzero"/><path fill="#ffffff" d="m29.755905 76.755905l0 0c0 -15.620525 12.662937 -28.283463 28.283466 -28.283463l0 0c7.50124 0 14.695248 2.9798546 19.999432 8.284035c5.3041763 5.3041763 8.284035 12.498184 8.284035 19.999428l0 0c0 15.620529 -12.662941 28.283463 -28.283466 28.283463l0 0c-15.620529 0 -28.283466 -12.662933 -28.283466 -28.283463z" fill-rule="evenodd"/><path stroke="#000000" stroke-width="2.0" stroke-linejoin="round" stroke-linecap="butt" d="m29.755905 76.755905l0 0c0 -15.620525 12.662937 -28.283463 28.283466 -28.283463l0 0c7.50124 0 14.695248 2.9798546 19.999432 8.284035c5.3041763 5.3041763 8.284035 12.498184 8.284035 19.999428l0 0c0 15.620529 -12.662941 28.283463 -28.283466 28.283463l0 0c-15.620529 0 -28.283466 -12.662933 -28.283466 -28.283463z" fill-rule="evenodd"/><path fill="#000000" d="m67.274315 86.06216l0 5.09375l-19.234375 0q0.3125 -2.890625 1.875 -5.46875q1.5625 -2.59375 6.171875 -6.875q3.703125 -3.453125 4.546875 -4.6875q1.140625 -1.703125 1.140625 -3.359375q0 -1.84375 -1.0 -2.828125q-0.984375 -0.984375 -2.71875 -0.984375q-1.71875 0 -2.734375 1.046875q-1.015625 1.03125 -1.171875 3.421875l-5.46875 -0.546875q0.484375 -4.53125 3.0625 -6.5q2.578125 -1.96875 6.453125 -1.96875q4.234375 0 6.65625 2.28125q2.421875 2.28125 2.421875 5.6875q0 1.9375 -0.703125 3.6875q-0.6875 1.734375 -2.1875 3.65625q-1.0 1.265625 -3.59375 3.65625q-2.59375 2.375 -3.296875 3.15625q-0.6875 0.78125 -1.109375 1.53125l10.890625 0z" fill-rule="nonzero"/><path fill="#ffffff" d="m130.2454 691.49603l0 0c0 -15.620483 12.662933 -28.283447 28.283463 -28.283447l0 0c7.501236 0 14.695251 2.9798584 19.999435 8.284058c5.3041687 5.304199 8.284027 12.498169 8.284027 19.99939l0 0c0 15.620544 -12.662933 28.283508 -28.283463 28.283508l0 0c-15.620529 0 -28.283463 -12.662964 -28.283463 -28.283508z" fill-rule="evenodd"/><path stroke="#000000" stroke-width="2.0" stroke-linejoin="round" stroke-linecap="butt" d="m130.2454 691.49603l0 0c0 -15.620483 12.662933 -28.283447 28.283463 -28.283447l0 0c7.501236 0 14.695251 2.9798584 19.999435 8.284058c5.3041687 5.304199 8.284027 12.498169 8.284027 19.99939l0 0c0 15.620544 -12.662933 28.283508 -28.283463 28.283508l0 0c-15.620529 0 -28.283463 -12.662964 -28.283463 -28.283508z" fill-rule="evenodd"/><path fill="#000000" d="m149.23256 682.75543l0 -5.109375l18.765625 0l0 3.984375q-2.328125 2.296875 -4.734375 6.578125q-2.390625 4.265625 -3.65625 9.078125q-1.25 4.8125 -1.234375 8.609375l-5.296875 0q0.140625 -5.9375 2.453125 -12.109375q2.3125 -6.171875 6.1875 -11.03125l-12.484375 0z" fill-rule="nonzero"/><path fill="#ffffff" d="m337.49475 76.755905l0 0c0 -15.620525 12.662933 -28.283463 28.283478 -28.283463l0 0c7.5012207 0 14.695251 2.9798546 19.99942 8.284035c5.3041687 5.3041763 8.284027 12.498184 8.284027 19.999428l0 0c0 15.620529 -12.662933 28.283463 -28.283447 28.283463l0 0c-15.620544 0 -28.283478 -12.662933 -28.283478 -28.283463z" fill-rule="evenodd"/><path stroke="#000000" stroke-width="2.0" stroke-linejoin="round" stroke-linecap="butt" d="m337.49475 76.755905l0 0c0 -15.620525 12.662933 -28.283463 28.283478 -28.283463l0 0c7.5012207 0 14.695251 2.9798546 19.99942 8.284035c5.3041687 5.3041763 8.284027 12.498184 8.284027 19.999428l0 0c0 15.620529 -12.662933 28.283463 -28.283447 28.283463l0 0c-15.620544 0 -28.283478 -12.662933 -28.283478 -28.283463z" fill-rule="evenodd"/><path fill="#000000" d="m367.24753 91.15591l0 -5.765625l-11.71875 0l0 -4.796875l12.421875 -18.1875l4.609375 0l0 18.15625l3.546875 0l0 4.828125l-3.546875 0l0 5.765625l-5.3125 0zm0 -10.59375l0 -9.78125l-6.59375 9.78125l6.59375 0z" fill-rule="nonzero"/><path fill="#000000" fill-opacity="0.0" d="m356.2848 373.69028l76.346436 0l0 48.472443l-76.346436 0z" fill-rule="evenodd"/><path fill="#66501e" d="m372.4723 410.77716l-2.265625 0q-1.796875 -2.703125 -2.734375 -5.625q-0.9375 -2.921875 -0.9375 -5.640625q0 -3.390625 1.171875 -6.421875q1.0 -2.625 2.546875 -4.828125l2.25 0q-1.609375 3.546875 -2.21875 6.046875q-0.59375 2.484375 -0.59375 5.265625q0 1.921875 0.359375 3.9375q0.359375 2.015625 0.984375 3.84375q0.40625 1.1875 1.4375 3.421875zm7.3984375 -22.296875q2.484375 0 3.890625 1.78125q1.6875 2.109375 1.6875 7.0q0 4.875 -1.6875 7.0q-1.40625 1.765625 -3.890625 1.765625q-2.515625 0 -4.046875 -1.921875q-1.53125 -1.9375 -1.53125 -6.890625q0 -4.84375 1.6875 -6.984375q1.390625 -1.75 3.890625 -1.75zm0 2.734375q-0.609375 0 -1.078125 0.375q-0.46875 0.375 -0.71875 1.359375q-0.34375 1.28125 -0.34375 4.3125q0 3.015625 0.296875 4.15625q0.3125 1.125 0.765625 1.5q0.46875 0.375 1.078125 0.375q0.59375 0 1.0625 -0.375q0.46875 -0.390625 0.71875 -1.375q0.34375 -1.265625 0.34375 -4.28125q0 -3.03125 -0.3125 -4.15625q-0.296875 -1.140625 -0.765625 -1.515625q-0.453125 -0.375 -1.046875 -0.375zm8.394531 11.21875l3.296875 0l0 2.359375q0 1.4375 -0.25 2.25q-0.25 0.828125 -0.9375 1.484375q-0.671875 0.65625 -1.734375 1.03125l-0.640625 -1.359375q1.0 -0.328125 1.421875 -0.90625q0.421875 -0.5625 0.4375 -1.5625l-1.59375 0l0 -3.296875zm11.621094 -13.953125q2.484375 0 3.890625 1.78125q1.6875 2.109375 1.6875 7.0q0 4.875 -1.6875 7.0q-1.40625 1.765625 -3.890625 1.765625q-2.515625 0 -4.046875 -1.921875q-1.53125 -1.9375 -1.53125 -6.890625q0 -4.84375 1.6875 -6.984375q1.390625 -1.75 3.890625 -1.75zm0 2.734375q-0.609375 0 -1.078125 0.375q-0.46875 0.375 -0.71875 1.359375q-0.34375 1.28125 -0.34375 4.3125q0 3.015625 0.296875 4.15625q0.3125 1.125 0.765625 1.5q0.46875 0.375 1.078125 0.375q0.59375 0 1.0625 -0.375q0.46875 -0.390625 0.71875 -1.375q0.34375 -1.265625 0.34375 -4.28125q0 -3.03125 -0.3125 -4.15625q-0.296875 -1.140625 -0.765625 -1.515625q-0.453125 -0.375 -1.046875 -0.375zm7.5664062 19.5625q0.96875 -2.078125 1.359375 -3.203125q0.40625 -1.109375 0.75 -2.5625q0.34375 -1.453125 0.5 -2.75q0.171875 -1.3125 0.171875 -2.6875q0 -2.78125 -0.609375 -5.265625q-0.59375 -2.5 -2.203125 -6.046875l2.25 0q1.765625 2.515625 2.734375 5.34375q0.984375 2.8125 0.984375 5.71875q0 2.453125 -0.765625 5.25q-0.890625 3.15625 -2.90625 6.203125l-2.265625 0z" fill-rule="nonzero"/><path fill="#ffffff" d="m644.7231 691.49603l0 0c0 -15.620483 12.662964 -28.283447 28.283508 -28.283447l0 0c7.5012207 0 14.695251 2.9798584 19.99939 8.284058c5.304199 5.304199 8.284058 12.498169 8.284058 19.99939l0 0c0 15.620544 -12.662964 28.283508 -28.283447 28.283508l0 0c-15.620544 0 -28.283508 -12.662964 -28.283508 -28.283508z" fill-rule="evenodd"/><path stroke="#000000" stroke-width="2.0" stroke-linejoin="round" stroke-linecap="butt" d="m644.7231 691.49603l0 0c0 -15.620483 12.662964 -28.283447 28.283508 -28.283447l0 0c7.5012207 0 14.695251 2.9798584 19.99939 8.284058c5.304199 5.304199 8.284058 12.498169 8.284058 19.99939l0 0c0 15.620544 -12.662964 28.283508 -28.283447 28.283508l0 0c-15.620544 0 -28.283508 -12.662964 -28.283508 -28.283508z" fill-rule="evenodd"/><path fill="#000000" d="m663.7884 698.5367l5.46875 -0.578125q0.234375 1.859375 1.375 2.953125q1.15625 1.078125 2.671875 1.078125q1.71875 0 2.90625 -1.390625q1.1875 -1.40625 1.1875 -4.21875q0 -2.640625 -1.1875 -3.953125q-1.171875 -1.3125 -3.0625 -1.3125q-2.375 0 -4.25 2.078125l-4.453125 -0.640625l2.8125 -14.90625l14.515625 0l0 5.140625l-10.34375 0l-0.859375 4.859375q1.828125 -0.90625 3.75 -0.90625q3.640625 0 6.171875 2.65625q2.546875 2.65625 2.546875 6.890625q0 3.53125 -2.046875 6.3125q-2.796875 3.78125 -7.75 3.78125q-3.96875 0 -6.46875 -2.125q-2.5 -2.125 -2.984375 -5.71875z" fill-rule="nonzero"/><path fill="#000000" fill-opacity="0.0" d="m543.24335 561.73285l109.763794 109.763794" fill-rule="evenodd"/><path stroke="#4b6fcd" stroke-width="4.0" stroke-linejoin="round" stroke-linecap="butt" d="m543.24335 561.73285l92.79321 92.79321" fill-rule="evenodd"/><path fill="#4b6fcd" stroke="#4b6fcd" stroke-width="4.0" stroke-linecap="butt" d="m631.36475 659.1979l17.507507 8.163879l-8.163879 -17.507507z" fill-rule="evenodd"/><path fill="#000000" fill-opacity="0.0" d="m6.5 713.2231l122.48819 0l0 48.472473l-122.48819 0z" fill-rule="evenodd"/><path fill="#796489" d="m19.375 750.31q-1.84375 -4.03125 -1.84375 -8.28125q0 -2.84375 0.734375 -5.28125q0.75 -2.4375 2.28125 -4.828125q1.0 -1.59375 3.21875 -4.125l1.65625 0q-1.375 1.453125 -2.90625 4.125q-1.53125 2.65625 -2.21875 5.21875q-0.6875 2.5625 -0.6875 5.15625q0 3.875 1.34375 8.015625l-1.578125 0zm5.2265625 -10.203125l0.453125 -2.125l6.46875 0l-0.4375 2.125l-6.484375 0zm12.6640625 5.15625l2.71875 -12.96875q-1.765625 1.375 -4.953125 2.203125l0.40625 -1.921875q1.578125 -0.625 3.109375 -1.640625q1.546875 -1.03125 2.328125 -1.78125q0.46875 -0.46875 0.890625 -1.140625l1.234375 0l-3.609375 17.25l-2.125 0zm9.269531 -5.640625q0 -2.171875 0.640625 -4.421875q0.65625 -2.25 1.453125 -3.59375q0.796875 -1.359375 1.65625 -2.109375q0.859375 -0.765625 1.671875 -1.125q0.828125 -0.359375 1.84375 -0.359375q1.96875 0 3.28125 1.46875q1.328125 1.453125 1.328125 4.21875q0 2.859375 -0.921875 5.640625q-1.078125 3.3125 -3.0 4.953125q-1.46875 1.265625 -3.359375 1.265625q-1.9375 0 -3.265625 -1.515625q-1.328125 -1.53125 -1.328125 -4.421875zm2.046875 0.546875q0 1.578125 0.53125 2.46875q0.71875 1.234375 2.125 1.234375q1.21875 0 2.234375 -1.125q1.453125 -1.5625 2.1875 -4.59375q0.734375 -3.03125 0.734375 -4.953125q0 -1.84375 -0.71875 -2.65625q-0.703125 -0.828125 -1.859375 -0.828125q-0.84375 0 -1.578125 0.4375q-0.734375 0.421875 -1.40625 1.484375q-0.953125 1.484375 -1.65625 4.453125q-0.59375 2.53125 -0.59375 4.078125zm10.894531 5.09375l0.515625 -2.40625l2.40625 0l-0.4375 2.09375q-0.390625 1.890625 -1.234375 2.765625q-0.828125 0.890625 -1.96875 1.015625l0.203125 -0.921875q1.390625 -0.390625 1.828125 -2.546875l-1.3125 0zm6.4804688 -5.15625l0.453125 -2.125l6.46875 0l-0.4375 2.125l-6.484375 0zm12.6640625 5.15625l2.71875 -12.96875q-1.765625 1.375 -4.953125 2.203125l0.40625 -1.921875q1.578125 -0.625 3.109375 -1.640625q1.546875 -1.03125 2.328125 -1.78125q0.46875 -0.46875 0.890625 -1.140625l1.234375 0l-3.609375 17.25l-2.125 0zm9.269531 -5.640625q0 -2.171875 0.640625 -4.421875q0.65625 -2.25 1.453125 -3.59375q0.796875 -1.359375 1.65625 -2.109375q0.859375 -0.765625 1.671875 -1.125q0.828125 -0.359375 1.84375 -0.359375q1.96875 0 3.28125 1.46875q1.328125 1.453125 1.328125 4.21875q0 2.859375 -0.921875 5.640625q-1.078125 3.3125 -3.0 4.953125q-1.46875 1.265625 -3.359375 1.265625q-1.9375 0 -3.265625 -1.515625q-1.328125 -1.53125 -1.328125 -4.421875zm2.046875 0.546875q0 1.578125 0.53125 2.46875q0.71875 1.234375 2.125 1.234375q1.21875 0 2.234375 -1.125q1.453125 -1.5625 2.1875 -4.59375q0.734375 -3.03125 0.734375 -4.953125q0 -1.84375 -0.71875 -2.65625q-0.703125 -0.828125 -1.859375 -0.828125q-0.84375 0 -1.578125 0.4375q-0.734375 0.421875 -1.40625 1.484375q-0.953125 1.484375 -1.65625 4.453125q-0.59375 2.53125 -0.59375 4.078125zm14.363281 -12.375q1.84375 4.03125 1.84375 8.265625q0 2.84375 -0.75 5.28125q-0.734375 2.4375 -2.265625 4.84375q-1.015625 1.59375 -3.21875 4.125l-1.65625 0q1.359375 -1.46875 2.890625 -4.140625q1.546875 -2.65625 2.234375 -5.21875q0.6875 -2.5625 0.6875 -5.15625q0 -3.875 -1.359375 -8.0l1.59375 0z" fill-rule="nonzero"/><path fill="#000000" fill-opacity="0.0" d="m625.35565 714.2231l122.48816 0l0 48.472473l-122.48816 0z" fill-rule="evenodd"/><path fill="#796489" d="m638.23065 751.31q-1.84375 -4.03125 -1.84375 -8.28125q0 -2.84375 0.734375 -5.28125q0.75 -2.4375 2.28125 -4.828125q1.0 -1.59375 3.21875 -4.125l1.65625 0q-1.375 1.453125 -2.90625 4.125q-1.53125 2.65625 -2.21875 5.21875q-0.6875 2.5625 -0.6875 5.15625q0 3.875 1.34375 8.015625l-1.578125 0zm9.8984375 -5.046875l2.71875 -12.96875q-1.765625 1.375 -4.953125 2.203125l0.40625 -1.921875q1.578125 -0.625 3.109375 -1.640625q1.546875 -1.03125 2.328125 -1.78125q0.46875 -0.46875 0.890625 -1.140625l1.234375 0l-3.609375 17.25l-2.125 0zm9.269531 -5.640625q0 -2.171875 0.640625 -4.421875q0.65625 -2.25 1.453125 -3.59375q0.796875 -1.359375 1.65625 -2.109375q0.859375 -0.765625 1.671875 -1.125q0.828125 -0.359375 1.84375 -0.359375q1.96875 0 3.28125 1.46875q1.328125 1.453125 1.328125 4.21875q0 2.859375 -0.921875 5.640625q-1.078125 3.3125 -3.0 4.953125q-1.46875 1.265625 -3.359375 1.265625q-1.9375 0 -3.265625 -1.515625q-1.328125 -1.53125 -1.328125 -4.421875zm2.046875 0.546875q0 1.578125 0.53125 2.46875q0.71875 1.234375 2.125 1.234375q1.21875 0 2.234375 -1.125q1.453125 -1.5625 2.1875 -4.59375q0.734375 -3.03125 0.734375 -4.953125q0 -1.84375 -0.71875 -2.65625q-0.703125 -0.828125 -1.859375 -0.828125q-0.84375 0 -1.578125 0.4375q-0.734375 0.421875 -1.40625 1.484375q-0.953125 1.484375 -1.65625 4.453125q-0.59375 2.53125 -0.59375 4.078125zm10.894531 5.09375l0.515625 -2.40625l2.40625 0l-0.4375 2.09375q-0.390625 1.890625 -1.234375 2.765625q-0.828125 0.890625 -1.96875 1.015625l0.203125 -0.921875q1.390625 -0.390625 1.828125 -2.546875l-1.3125 0zm6.4804688 -5.15625l0.453125 -2.125l6.46875 0l-0.4375 2.125l-6.484375 0zm12.6640625 5.15625l2.71875 -12.96875q-1.765625 1.375 -4.953125 2.203125l0.40625 -1.921875q1.578125 -0.625 3.109375 -1.640625q1.546875 -1.03125 2.328125 -1.78125q0.46875 -0.46875 0.890625 -1.140625l1.234375 0l-3.609375 17.25l-2.125 0zm9.269531 -5.640625q0 -2.171875 0.640625 -4.421875q0.65625 -2.25 1.453125 -3.59375q0.796875 -1.359375 1.65625 -2.109375q0.859375 -0.765625 1.671875 -1.125q0.828125 -0.359375 1.84375 -0.359375q1.96875 0 3.28125 1.46875q1.328125 1.453125 1.328125 4.21875q0 2.859375 -0.921875 5.640625q-1.078125 3.3125 -3.0 4.953125q-1.46875 1.265625 -3.359375 1.265625q-1.9375 0 -3.265625 -1.515625q-1.328125 -1.53125 -1.328125 -4.421875zm2.046875 0.546875q0 1.578125 0.53125 2.46875q0.71875 1.234375 2.125 1.234375q1.21875 0 2.234375 -1.125q1.453125 -1.5625 2.1875 -4.59375q0.734375 -3.03125 0.734375 -4.953125q0 -1.84375 -0.71875 -2.65625q-0.703125 -0.828125 -1.859375 -0.828125q-0.84375 0 -1.578125 0.4375q-0.734375 0.421875 -1.40625 1.484375q-0.953125 1.484375 -1.65625 4.453125q-0.59375 2.53125 -0.59375 4.078125zm14.363281 -12.375q1.84375 4.03125 1.84375 8.265625q0 2.84375 -0.75 5.28125q-0.734375 2.4375 -2.265625 4.84375q-1.015625 1.59375 -3.21875 4.125l-1.65625 0q1.359375 -1.46875 2.890625 -4.140625q1.546875 -2.65625 2.234375 -5.21875q0.6875 -2.5625 0.6875 -5.15625q0 -3.875 -1.359375 -8.0l1.59375 0z" fill-rule="nonzero"/><path fill="#ffffff" d="m644.1116 76.755905l0 0c0 -15.620525 12.662903 -28.283463 28.283447 -28.283463l0 0c7.5012207 0 14.695251 2.9798546 19.99945 8.284035c5.304138 5.3041763 8.283997 12.498184 8.283997 19.999428l0 0c0 15.620529 -12.662903 28.283463 -28.283447 28.283463l0 0c-15.620544 0 -28.283447 -12.662933 -28.283447 -28.283463z" fill-rule="evenodd"/><path stroke="#000000" stroke-width="2.0" stroke-linejoin="round" stroke-linecap="butt" d="m644.1116 76.755905l0 0c0 -15.620525 12.662903 -28.283463 28.283447 -28.283463l0 0c7.5012207 0 14.695251 2.9798546 19.99945 8.284035c5.304138 5.3041763 8.283997 12.498184 8.283997 19.999428l0 0c0 15.620529 -12.662903 28.283463 -28.283447 28.283463l0 0c-15.620544 0 -28.283447 -12.662933 -28.283447 -28.283463z" fill-rule="evenodd"/><path fill="#000000" d="m681.69244 69.53091l-5.3125 0.59375q-0.203125 -1.640625 -1.03125 -2.421875q-0.8125 -0.78125 -2.109375 -0.78125q-1.75 0 -2.953125 1.5625q-1.1875 1.5625 -1.5 6.5q2.046875 -2.421875 5.09375 -2.421875q3.4375 0 5.890625 2.625q2.453125 2.609375 2.453125 6.75q0 4.390625 -2.578125 7.046875q-2.578125 2.65625 -6.625 2.65625q-4.34375 0 -7.140625 -3.359375q-2.78125 -3.375 -2.78125 -11.046875q0 -7.875 2.90625 -11.34375q2.90625 -3.484375 7.5625 -3.484375q3.265625 0 5.390625 1.828125q2.140625 1.828125 2.734375 5.296875zm-12.4375 11.96875q0 2.6875 1.21875 4.140625q1.234375 1.453125 2.8125 1.453125q1.53125 0 2.546875 -1.1875q1.015625 -1.203125 1.015625 -3.90625q0 -2.796875 -1.09375 -4.09375q-1.09375 -1.296875 -2.734375 -1.296875q-1.578125 0 -2.671875 1.234375q-1.09375 1.234375 -1.09375 3.65625z" fill-rule="nonzero"/><path fill="#000000" fill-opacity="0.0" d="m626.5236 6.56168l111.52759 0l0 48.472443l-111.52759 0z" fill-rule="evenodd"/><path fill="#796489" d="m639.3986 43.648556q-1.84375 -4.03125 -1.84375 -8.28125q0 -2.84375 0.734375 -5.28125q0.75 -2.4375 2.28125 -4.828125q1.0 -1.59375 3.21875 -4.125l1.65625 0q-1.375 1.453125 -2.90625 4.125q-1.53125 2.65625 -2.21875 5.21875q-0.6875 2.5625 -0.6875 5.15625q0 3.875 1.34375 8.015625l-1.578125 0zm9.8984375 -5.046875l2.71875 -12.96875q-1.765625 1.375 -4.953125 2.203125l0.40625 -1.921875q1.578125 -0.625 3.109375 -1.640625q1.546875 -1.03125 2.328125 -1.78125q0.46875 -0.46875 0.890625 -1.140625l1.234375 0l-3.609375 17.25l-2.125 0zm9.269531 -5.640625q0 -2.171875 0.640625 -4.421875q0.65625 -2.25 1.453125 -3.59375q0.796875 -1.359375 1.65625 -2.109375q0.859375 -0.765625 1.671875 -1.125q0.828125 -0.359375 1.84375 -0.359375q1.96875 0 3.28125 1.46875q1.328125 1.453125 1.328125 4.21875q0 2.859375 -0.921875 5.640625q-1.078125 3.3125 -3.0 4.953125q-1.46875 1.265625 -3.359375 1.265625q-1.9375 0 -3.265625 -1.515625q-1.328125 -1.53125 -1.328125 -4.421875zm2.046875 0.546875q0 1.578125 0.53125 2.46875q0.71875 1.234375 2.125 1.234375q1.21875 0 2.234375 -1.125q1.453125 -1.5625 2.1875 -4.59375q0.734375 -3.03125 0.734375 -4.953125q0 -1.84375 -0.71875 -2.65625q-0.703125 -0.828125 -1.859375 -0.828125q-0.84375 0 -1.578125 0.4375q-0.734375 0.421875 -1.40625 1.484375q-0.953125 1.484375 -1.65625 4.453125q-0.59375 2.53125 -0.59375 4.078125zm10.894531 5.09375l0.515625 -2.40625l2.40625 0l-0.4375 2.09375q-0.390625 1.890625 -1.234375 2.765625q-0.828125 0.890625 -1.96875 1.015625l0.203125 -0.921875q1.390625 -0.390625 1.828125 -2.546875l-1.3125 0zm11.152344 0l2.71875 -12.96875q-1.765625 1.375 -4.953125 2.203125l0.40625 -1.921875q1.578125 -0.625 3.109375 -1.640625q1.546875 -1.03125 2.328125 -1.78125q0.46875 -0.46875 0.890625 -1.140625l1.234375 0l-3.609375 17.25l-2.125 0zm9.269531 -5.640625q0 -2.171875 0.640625 -4.421875q0.65625 -2.25 1.453125 -3.59375q0.796875 -1.359375 1.65625 -2.109375q0.859375 -0.765625 1.671875 -1.125q0.828125 -0.359375 1.84375 -0.359375q1.96875 0 3.28125 1.46875q1.328125 1.453125 1.328125 4.21875q0 2.859375 -0.921875 5.640625q-1.078125 3.3125 -3.0 4.953125q-1.46875 1.265625 -3.359375 1.265625q-1.9375 0 -3.265625 -1.515625q-1.328125 -1.53125 -1.328125 -4.421875zm2.046875 0.546875q0 1.578125 0.53125 2.46875q0.71875 1.234375 2.125 1.234375q1.21875 0 2.234375 -1.125q1.453125 -1.5625 2.1875 -4.59375q0.734375 -3.03125 0.734375 -4.953125q0 -1.84375 -0.71875 -2.65625q-0.703125 -0.828125 -1.859375 -0.828125q-0.84375 0 -1.578125 0.4375q-0.734375 0.421875 -1.40625 1.484375q-0.953125 1.484375 -1.65625 4.453125q-0.59375 2.53125 -0.59375 4.078125zm14.363281 -12.375q1.84375 4.03125 1.84375 8.265625q0 2.84375 -0.75 5.28125q-0.734375 2.4375 -2.265625 4.84375q-1.015625 1.59375 -3.21875 4.125l-1.65625 0q1.359375 -1.46875 2.890625 -4.140625q1.546875 -2.65625 2.234375 -5.21875q0.6875 -2.5625 0.6875 -5.15625q0 -3.875 -1.359375 -8.0l1.59375 0z" fill-rule="nonzero"/><path fill="#000000" fill-opacity="0.0" d="m673.0066 663.2126l-0.5984497 -558.1732" fill-rule="evenodd"/><path stroke="#66501e" stroke-width="4.0" stroke-linejoin="round" stroke-linecap="butt" d="m673.0066 663.2126l-0.5727539 -534.1732" fill-rule="evenodd"/><path fill="#66501e" stroke="#66501e" stroke-width="4.0" stroke-linecap="butt" d="m679.0408 129.03227l-6.626343 -18.145294l-6.5874634 18.159454z" fill-rule="evenodd"/><path fill="#000000" fill-opacity="0.0" d="m85.40026 691.49603l44.850395 0" fill-rule="evenodd"/><path stroke="#66501e" stroke-width="4.0" stroke-linejoin="round" stroke-linecap="butt" d="m85.40026 691.49603l20.850395 0" fill-rule="evenodd"/><path fill="#66501e" stroke="#66501e" stroke-width="4.0" stroke-linecap="butt" d="m106.250656 698.10297l18.15239 -6.6069336l-18.15239 -6.6068726z" fill-rule="evenodd"/><path fill="#000000" fill-opacity="0.0" d="m158.52887 663.2126l0 -252.56693" fill-rule="evenodd"/><path stroke="#66501e" stroke-width="4.0" stroke-linejoin="round" stroke-linecap="butt" d="m158.52887 663.2126l0 -228.56693" fill-rule="evenodd"/><path fill="#66501e" stroke="#66501e" stroke-width="4.0" stroke-linecap="butt" d="m165.1358 434.64566l-6.6069336 -18.152374l-6.6069336 18.152374z" fill-rule="evenodd"/><path fill="#000000" fill-opacity="0.0" d="m119.25347 713.2231l107.11811 0l0 48.472473l-107.11811 0z" fill-rule="evenodd"/><path fill="#796489" d="m132.12846 750.31q-1.84375 -4.03125 -1.84375 -8.28125q0 -2.84375 0.734375 -5.28125q0.75 -2.4375 2.28125 -4.828125q1.0 -1.59375 3.21875 -4.125l1.65625 0q-1.375 1.453125 -2.90625 4.125q-1.53125 2.65625 -2.21875 5.21875q-0.6875 2.5625 -0.6875 5.15625q0 3.875 1.34375 8.015625l-1.578125 0zm5.2265625 -10.203125l0.453125 -2.125l6.46875 0l-0.4375 2.125l-6.484375 0zm8.5078125 1.21875l1.984375 -0.203125q0.203125 1.4375 0.8125 2.046875q0.625 0.609375 1.484375 0.609375q1.21875 0 2.265625 -1.046875q1.53125 -1.546875 2.265625 -4.4375q-1.078125 0.796875 -1.90625 1.140625q-0.8125 0.328125 -1.6875 0.328125q-1.5625 0 -2.8125 -1.046875q-1.640625 -1.375 -1.640625 -3.9375q0 -2.90625 1.90625 -4.984375q1.625 -1.78125 3.984375 -1.78125q2.140625 0 3.546875 1.578125q1.40625 1.578125 1.40625 4.453125q0 2.796875 -0.9375 5.53125q-1.109375 3.21875 -3.015625 4.734375q-1.546875 1.25 -3.484375 1.25q-1.78125 0 -2.90625 -1.109375q-1.125 -1.109375 -1.265625 -3.125zm2.8125 -6.796875q0 1.609375 0.859375 2.578125q0.875 0.953125 2.046875 0.953125q0.890625 0 1.75 -0.59375q0.875 -0.59375 1.484375 -1.78125q0.625 -1.1875 0.625 -2.453125q0 -0.984375 -0.40625 -1.828125q-0.40625 -0.84375 -1.125 -1.265625q-0.703125 -0.421875 -1.4375 -0.421875q-0.703125 0 -1.390625 0.375q-0.671875 0.375 -1.25 1.109375q-0.578125 0.71875 -0.875 1.65625q-0.28125 0.9375 -0.28125 1.671875zm10.207031 10.734375l0.515625 -2.40625l2.40625 0l-0.4375 2.09375q-0.390625 1.890625 -1.234375 2.765625q-0.828125 0.890625 -1.96875 1.015625l0.203125 -0.921875q1.390625 -0.390625 1.828125 -2.546875l-1.3125 0zm6.4804688 -5.15625l0.453125 -2.125l6.46875 0l-0.4375 2.125l-6.484375 0zm12.6640625 5.15625l2.71875 -12.96875q-1.765625 1.375 -4.953125 2.203125l0.40625 -1.921875q1.578125 -0.625 3.109375 -1.640625q1.546875 -1.03125 2.328125 -1.78125q0.46875 -0.46875 0.890625 -1.140625l1.234375 0l-3.609375 17.25l-2.125 0zm9.269531 -5.640625q0 -2.171875 0.640625 -4.421875q0.65625 -2.25 1.453125 -3.59375q0.796875 -1.359375 1.65625 -2.109375q0.859375 -0.765625 1.671875 -1.125q0.828125 -0.359375 1.84375 -0.359375q1.96875 0 3.28125 1.46875q1.328125 1.453125 1.328125 4.21875q0 2.859375 -0.921875 5.640625q-1.078125 3.3125 -3.0 4.953125q-1.46875 1.265625 -3.359375 1.265625q-1.9375 0 -3.265625 -1.515625q-1.328125 -1.53125 -1.328125 -4.421875zm2.046875 0.546875q0 1.578125 0.53125 2.46875q0.71875 1.234375 2.125 1.234375q1.21875 0 2.234375 -1.125q1.453125 -1.5625 2.1875 -4.59375q0.734375 -3.03125 0.734375 -4.953125q0 -1.84375 -0.71875 -2.65625q-0.703125 -0.828125 -1.859375 -0.828125q-0.84375 0 -1.578125 0.4375q-0.734375 0.421875 -1.40625 1.484375q-0.953125 1.484375 -1.65625 4.453125q-0.59375 2.53125 -0.59375 4.078125zm14.363281 -12.375q1.84375 4.03125 1.84375 8.265625q0 2.84375 -0.75 5.28125q-0.734375 2.4375 -2.265625 4.84375q-1.015625 1.59375 -3.21875 4.125l-1.65625 0q1.359375 -1.46875 2.890625 -4.140625q1.546875 -2.65625 2.234375 -5.21875q0.6875 -2.5625 0.6875 -5.15625q0 -3.875 -1.359375 -8.0l1.59375 0z" fill-rule="nonzero"/><path fill="#000000" fill-opacity="0.0" d="m2.5052493 4.2598424l111.52756 0l0 50.07874l-111.52756 0z" fill-rule="evenodd"/><path fill="#796489" d="m15.583374 42.907967q-1.9375 -4.25 -1.9375 -8.734375q0 -3.0 0.78125 -5.578125q0.78125 -2.578125 2.390625 -5.109375q1.0625 -1.671875 3.40625 -4.34375l1.75 0q-1.453125 1.546875 -3.078125 4.359375q-1.609375 2.796875 -2.34375 5.515625q-0.71875 2.703125 -0.71875 5.4375q0 4.078125 1.421875 8.453125l-1.671875 0zm5.5282135 -10.765625l0.46875 -2.25l6.828125 0l-0.453125 2.25l-6.84375 0zm13.3563385 5.4375l2.875 -13.6875q-1.859375 1.453125 -5.21875 2.328125l0.421875 -2.015625q1.671875 -0.671875 3.296875 -1.75q1.625 -1.078125 2.4375 -1.875q0.5 -0.5 0.9375 -1.203125l1.296875 0l-3.796875 18.203125l-2.25 0zm9.789429 -5.953125q0 -2.296875 0.6875 -4.671875q0.6875 -2.375 1.515625 -3.796875q0.84375 -1.421875 1.75 -2.21875q0.90625 -0.8125 1.765625 -1.1875q0.875 -0.375 1.953125 -0.375q2.0625 0 3.453125 1.546875q1.40625 1.546875 1.40625 4.46875q0 3.0 -0.96875 5.9375q-1.140625 3.484375 -3.171875 5.234375q-1.5625 1.328125 -3.546875 1.328125q-2.046875 0 -3.453125 -1.59375q-1.390625 -1.609375 -1.390625 -4.671875zm2.15625 0.578125q0 1.671875 0.5625 2.609375q0.75 1.296875 2.234375 1.296875q1.296875 0 2.359375 -1.171875q1.53125 -1.65625 2.296875 -4.859375q0.78125 -3.203125 0.78125 -5.21875q0 -1.96875 -0.75 -2.828125q-0.734375 -0.859375 -1.96875 -0.859375q-0.890625 0 -1.671875 0.453125q-0.765625 0.453125 -1.46875 1.5625q-1.0 1.578125 -1.734375 4.703125q-0.640625 2.671875 -0.640625 4.3125zm11.508179 5.375l0.53125 -2.53125l2.546875 0l-0.453125 2.203125q-0.421875 2.0 -1.3125 2.921875q-0.875 0.9375 -2.078125 1.0625l0.203125 -0.96875q1.46875 -0.40625 1.953125 -2.6875l-1.390625 0zm11.755722 0l2.875 -13.6875q-1.859375 1.453125 -5.21875 2.328125l0.421875 -2.015625q1.671875 -0.671875 3.296875 -1.75q1.625 -1.078125 2.4375 -1.875q0.5 -0.5 0.9375 -1.203125l1.296875 0l-3.796875 18.203125l-2.25 0zm9.789429 -5.953125q0 -2.296875 0.6875 -4.671875q0.6875 -2.375 1.515625 -3.796875q0.84375 -1.421875 1.75 -2.21875q0.90625 -0.8125 1.765625 -1.1875q0.875 -0.375 1.953125 -0.375q2.0625 0 3.453125 1.546875q1.40625 1.546875 1.40625 4.46875q0 3.0 -0.96875 5.9375q-1.140625 3.484375 -3.171875 5.234375q-1.5625 1.328125 -3.546875 1.328125q-2.046875 0 -3.453125 -1.59375q-1.390625 -1.609375 -1.390625 -4.671875zm2.15625 0.578125q0 1.671875 0.5625 2.609375q0.75 1.296875 2.234375 1.296875q1.296875 0 2.359375 -1.171875q1.53125 -1.65625 2.296875 -4.859375q0.78125 -3.203125 0.78125 -5.21875q0 -1.96875 -0.75 -2.828125q-0.734375 -0.859375 -1.96875 -0.859375q-0.890625 0 -1.671875 0.453125q-0.765625 0.453125 -1.46875 1.5625q-1.0 1.578125 -1.734375 4.703125q-0.640625 2.671875 -0.640625 4.3125zm15.148804 -13.0625q1.953125 4.25 1.953125 8.734375q0 3.0 -0.78125 5.578125q-0.78125 2.5625 -2.390625 5.109375q-1.078125 1.671875 -3.40625 4.34375l-1.734375 0q1.4375 -1.5625 3.046875 -4.375q1.625 -2.796875 2.34375 -5.5q0.734375 -2.703125 0.734375 -5.453125q0 -4.078125 -1.4375 -8.4375l1.671875 0z" fill-rule="nonzero"/><path fill="#ffffff" d="m337.49475 691.49603l0 0c0 -15.620483 12.662933 -28.283447 28.283478 -28.283447l0 0c7.5012207 0 14.695251 2.9798584 19.99942 8.284058c5.3041687 5.304199 8.284027 12.498169 8.284027 19.99939l0 0c0 15.620544 -12.662933 28.283508 -28.283447 28.283508l0 0c-15.620544 0 -28.283478 -12.662964 -28.283478 -28.283508z" fill-rule="evenodd"/><path stroke="#000000" stroke-width="2.0" stroke-linejoin="round" stroke-linecap="butt" d="m337.49475 691.49603l0 0c0 -15.620483 12.662933 -28.283447 28.283478 -28.283447l0 0c7.5012207 0 14.695251 2.9798584 19.99942 8.284058c5.3041687 5.304199 8.284027 12.498169 8.284027 19.99939l0 0c0 15.620544 -12.662933 28.283508 -28.283447 28.283508l0 0c-15.620544 0 -28.283478 -12.662964 -28.283478 -28.283508z" fill-rule="evenodd"/><path fill="#000000" d="m356.27878 698.3023l5.3125 -0.65625q0.265625 2.03125 1.375 3.109375q1.109375 1.078125 2.6875 1.078125q1.703125 0 2.859375 -1.28125q1.171875 -1.296875 1.171875 -3.484375q0 -2.078125 -1.125 -3.28125q-1.109375 -1.21875 -2.703125 -1.21875q-1.0625 0 -2.515625 0.421875l0.59375 -4.484375q2.234375 0.0625 3.40625 -0.953125q1.171875 -1.03125 1.171875 -2.734375q0 -1.4375 -0.859375 -2.296875q-0.859375 -0.859375 -2.28125 -0.859375q-1.40625 0 -2.40625 0.984375q-1.0 0.96875 -1.21875 2.84375l-5.046875 -0.859375q0.515625 -2.609375 1.578125 -4.15625q1.078125 -1.546875 2.96875 -2.4375q1.90625 -0.890625 4.28125 -0.890625q4.03125 0 6.484375 2.578125q2.0 2.109375 2.0 4.765625q0 3.765625 -4.109375 6.015625q2.453125 0.53125 3.921875 2.375q1.484375 1.828125 1.484375 4.421875q0 3.765625 -2.765625 6.421875q-2.75 2.65625 -6.84375 2.65625q-3.890625 0 -6.453125 -2.234375q-2.546875 -2.234375 -2.96875 -5.84375z" fill-rule="nonzero"/><path fill="#000000" fill-opacity="0.0" d="m322.61285 716.2231l107.1181 0l0 48.472473l-107.1181 0z" fill-rule="evenodd"/><path fill="#796489" d="m335.48785 753.31q-1.84375 -4.03125 -1.84375 -8.28125q0 -2.84375 0.734375 -5.28125q0.75 -2.4375 2.28125 -4.828125q1.0 -1.59375 3.21875 -4.125l1.65625 0q-1.375 1.453125 -2.90625 4.125q-1.53125 2.65625 -2.21875 5.21875q-0.6875 2.5625 -0.6875 5.15625q0 3.875 1.34375 8.015625l-1.578125 0zm5.8203125 -10.6875q0 -2.171875 0.640625 -4.421875q0.65625 -2.25 1.453125 -3.59375q0.796875 -1.359375 1.65625 -2.109375q0.859375 -0.765625 1.671875 -1.125q0.828125 -0.359375 1.84375 -0.359375q1.96875 0 3.28125 1.46875q1.328125 1.453125 1.328125 4.21875q0 2.859375 -0.921875 5.640625q-1.078125 3.3125 -3.0 4.953125q-1.46875 1.265625 -3.359375 1.265625q-1.9375 0 -3.265625 -1.515625q-1.328125 -1.53125 -1.328125 -4.421875zm2.046875 0.546875q0 1.578125 0.53125 2.46875q0.71875 1.234375 2.125 1.234375q1.21875 0 2.234375 -1.125q1.453125 -1.5625 2.1875 -4.59375q0.734375 -3.03125 0.734375 -4.953125q0 -1.84375 -0.71875 -2.65625q-0.703125 -0.828125 -1.859375 -0.828125q-0.84375 0 -1.578125 0.4375q-0.734375 0.421875 -1.40625 1.484375q-0.953125 1.484375 -1.65625 4.453125q-0.59375 2.53125 -0.59375 4.078125zm10.894531 5.09375l0.515625 -2.40625l2.40625 0l-0.4375 2.09375q-0.390625 1.890625 -1.234375 2.765625q-0.828125 0.890625 -1.96875 1.015625l0.203125 -0.921875q1.390625 -0.390625 1.828125 -2.546875l-1.3125 0zm6.4804688 -5.15625l0.453125 -2.125l6.46875 0l-0.4375 2.125l-6.484375 0zm12.6640625 5.15625l2.71875 -12.96875q-1.765625 1.375 -4.953125 2.203125l0.40625 -1.921875q1.578125 -0.625 3.109375 -1.640625q1.546875 -1.03125 2.328125 -1.78125q0.46875 -0.46875 0.890625 -1.140625l1.234375 0l-3.609375 17.25l-2.125 0zm9.269531 -5.640625q0 -2.171875 0.640625 -4.421875q0.65625 -2.25 1.453125 -3.59375q0.796875 -1.359375 1.65625 -2.109375q0.859375 -0.765625 1.671875 -1.125q0.828125 -0.359375 1.84375 -0.359375q1.96875 0 3.28125 1.46875q1.328125 1.453125 1.328125 4.21875q0 2.859375 -0.921875 5.640625q-1.078125 3.3125 -3.0 4.953125q-1.46875 1.265625 -3.359375 1.265625q-1.9375 0 -3.265625 -1.515625q-1.328125 -1.53125 -1.328125 -4.421875zm2.046875 0.546875q0 1.578125 0.53125 2.46875q0.71875 1.234375 2.125 1.234375q1.21875 0 2.234375 -1.125q1.453125 -1.5625 2.1875 -4.59375q0.734375 -3.03125 0.734375 -4.953125q0 -1.84375 -0.71875 -2.65625q-0.703125 -0.828125 -1.859375 -0.828125q-0.84375 0 -1.578125 0.4375q-0.734375 0.421875 -1.40625 1.484375q-0.953125 1.484375 -1.65625 4.453125q-0.59375 2.53125 -0.59375 4.078125zm14.363281 -12.375q1.84375 4.03125 1.84375 8.265625q0 2.84375 -0.75 5.28125q-0.734375 2.4375 -2.265625 4.84375q-1.015625 1.59375 -3.21875 4.125l-1.65625 0q1.359375 -1.46875 2.890625 -4.140625q1.546875 -2.65625 2.234375 -5.21875q0.6875 -2.5625 0.6875 -5.15625q0 -3.875 -1.359375 -8.0l1.59375 0z" fill-rule="nonzero"/><path fill="#000000" fill-opacity="0.0" d="m325.51443 4.56168l107.1181 0l0 48.472443l-107.1181 0z" fill-rule="evenodd"/><path fill="#796489" d="m338.38943 41.648556q-1.84375 -4.03125 -1.84375 -8.28125q0 -2.84375 0.734375 -5.28125q0.75 -2.4375 2.28125 -4.828125q1.0 -1.59375 3.21875 -4.125l1.65625 0q-1.375 1.453125 -2.90625 4.125q-1.53125 2.65625 -2.21875 5.21875q-0.6875 2.5625 -0.6875 5.15625q0 3.875 1.34375 8.015625l-1.578125 0zm5.8203125 -10.6875q0 -2.171875 0.640625 -4.421875q0.65625 -2.25 1.453125 -3.59375q0.796875 -1.359375 1.65625 -2.109375q0.859375 -0.765625 1.671875 -1.125q0.828125 -0.359375 1.84375 -0.359375q1.96875 0 3.28125 1.46875q1.328125 1.453125 1.328125 4.21875q0 2.859375 -0.921875 5.640625q-1.078125 3.3125 -3.0 4.953125q-1.46875 1.265625 -3.359375 1.265625q-1.9375 0 -3.265625 -1.515625q-1.328125 -1.53125 -1.328125 -4.421875zm2.046875 0.546875q0 1.578125 0.53125 2.46875q0.71875 1.234375 2.125 1.234375q1.21875 0 2.234375 -1.125q1.453125 -1.5625 2.1875 -4.59375q0.734375 -3.03125 0.734375 -4.953125q0 -1.84375 -0.71875 -2.65625q-0.703125 -0.828125 -1.859375 -0.828125q-0.84375 0 -1.578125 0.4375q-0.734375 0.421875 -1.40625 1.484375q-0.953125 1.484375 -1.65625 4.453125q-0.59375 2.53125 -0.59375 4.078125zm10.894531 5.09375l0.515625 -2.40625l2.40625 0l-0.4375 2.09375q-0.390625 1.890625 -1.234375 2.765625q-0.828125 0.890625 -1.96875 1.015625l0.203125 -0.921875q1.390625 -0.390625 1.828125 -2.546875l-1.3125 0zm11.152344 0l2.71875 -12.96875q-1.765625 1.375 -4.953125 2.203125l0.40625 -1.921875q1.578125 -0.625 3.109375 -1.640625q1.546875 -1.03125 2.328125 -1.78125q0.46875 -0.46875 0.890625 -1.140625l1.234375 0l-3.609375 17.25l-2.125 0zm9.269531 -5.640625q0 -2.171875 0.640625 -4.421875q0.65625 -2.25 1.453125 -3.59375q0.796875 -1.359375 1.65625 -2.109375q0.859375 -0.765625 1.671875 -1.125q0.828125 -0.359375 1.84375 -0.359375q1.96875 0 3.28125 1.46875q1.328125 1.453125 1.328125 4.21875q0 2.859375 -0.921875 5.640625q-1.078125 3.3125 -3.0 4.953125q-1.46875 1.265625 -3.359375 1.265625q-1.9375 0 -3.265625 -1.515625q-1.328125 -1.53125 -1.328125 -4.421875zm2.046875 0.546875q0 1.578125 0.53125 2.46875q0.71875 1.234375 2.125 1.234375q1.21875 0 2.234375 -1.125q1.453125 -1.5625 2.1875 -4.59375q0.734375 -3.03125 0.734375 -4.953125q0 -1.84375 -0.71875 -2.65625q-0.703125 -0.828125 -1.859375 -0.828125q-0.84375 0 -1.578125 0.4375q-0.734375 0.421875 -1.40625 1.484375q-0.953125 1.484375 -1.65625 4.453125q-0.59375 2.53125 -0.59375 4.078125zm14.363281 -12.375q1.84375 4.03125 1.84375 8.265625q0 2.84375 -0.75 5.28125q-0.734375 2.4375 -2.265625 4.84375q-1.015625 1.59375 -3.21875 4.125l-1.65625 0q1.359375 -1.46875 2.890625 -4.140625q1.546875 -2.65625 2.234375 -5.21875q0.6875 -2.5625 0.6875 -5.15625q0 -3.875 -1.359375 -8.0l1.59375 0z" fill-rule="nonzero"/><path fill="#000000" fill-opacity="0.0" d="m119.25328 307.2362l78.55118 0l0 48.472443l-78.55118 0z" fill-rule="evenodd"/><path fill="#796489" d="m132.12828 344.3231q-1.84375 -4.03125 -1.84375 -8.28125q0 -2.84375 0.734375 -5.28125q0.75 -2.4375 2.28125 -4.828125q1.0 -1.59375 3.21875 -4.125l1.65625 0q-1.375 1.453125 -2.90625 4.125q-1.53125 2.65625 -2.21875 5.21875q-0.6875 2.5625 -0.6875 5.15625q0 3.875 1.34375 8.015625l-1.578125 0zm5.2265625 -10.203125l0.453125 -2.125l6.46875 0l-0.4375 2.125l-6.484375 0zm8.5078125 1.21875l1.984375 -0.203125q0.203125 1.4375 0.8125 2.046875q0.625 0.609375 1.484375 0.609375q1.21875 0 2.265625 -1.046875q1.53125 -1.546875 2.265625 -4.4375q-1.078125 0.796875 -1.90625 1.140625q-0.8125 0.328125 -1.6875 0.328125q-1.5625 0 -2.8125 -1.046875q-1.640625 -1.375 -1.640625 -3.9375q0 -2.90625 1.90625 -4.984375q1.625 -1.78125 3.984375 -1.78125q2.140625 0 3.546875 1.578125q1.40625 1.578125 1.40625 4.453125q0 2.796875 -0.9375 5.53125q-1.109375 3.21875 -3.015625 4.734375q-1.546875 1.25 -3.484375 1.25q-1.78125 0 -2.90625 -1.109375q-1.125 -1.109375 -1.265625 -3.125zm2.8125 -6.796875q0 1.609375 0.859375 2.578125q0.875 0.953125 2.046875 0.953125q0.890625 0 1.75 -0.59375q0.875 -0.59375 1.484375 -1.78125q0.625 -1.1875 0.625 -2.453125q0 -0.984375 -0.40625 -1.828125q-0.40625 -0.84375 -1.125 -1.265625q-0.703125 -0.421875 -1.4375 -0.421875q-0.703125 0 -1.390625 0.375q-0.671875 0.375 -1.25 1.109375q-0.578125 0.71875 -0.875 1.65625q-0.28125 0.9375 -0.28125 1.671875zm10.207031 10.734375l0.515625 -2.40625l2.40625 0l-0.4375 2.09375q-0.390625 1.890625 -1.234375 2.765625q-0.828125 0.890625 -1.96875 1.015625l0.203125 -0.921875q1.390625 -0.390625 1.828125 -2.546875l-1.3125 0zm7.0742188 -5.640625q0 -2.171875 0.640625 -4.421875q0.65625 -2.25 1.453125 -3.59375q0.796875 -1.359375 1.65625 -2.109375q0.859375 -0.765625 1.671875 -1.125q0.828125 -0.359375 1.84375 -0.359375q1.96875 0 3.28125 1.46875q1.328125 1.453125 1.328125 4.21875q0 2.859375 -0.921875 5.640625q-1.078125 3.3125 -3.0 4.953125q-1.46875 1.265625 -3.359375 1.265625q-1.9375 0 -3.265625 -1.515625q-1.328125 -1.53125 -1.328125 -4.421875zm2.046875 0.546875q0 1.578125 0.53125 2.46875q0.71875 1.234375 2.125 1.234375q1.21875 0 2.234375 -1.125q1.453125 -1.5625 2.1875 -4.59375q0.734375 -3.03125 0.734375 -4.953125q0 -1.84375 -0.71875 -2.65625q-0.703125 -0.828125 -1.859375 -0.828125q-0.84375 0 -1.578125 0.4375q-0.734375 0.421875 -1.40625 1.484375q-0.953125 1.484375 -1.65625 4.453125q-0.59375 2.53125 -0.59375 4.078125zm14.363281 -12.375q1.84375 4.03125 1.84375 8.265625q0 2.84375 -0.75 5.28125q-0.734375 2.4375 -2.265625 4.84375q-1.015625 1.59375 -3.21875 4.125l-1.65625 0q1.359375 -1.46875 2.890625 -4.140625q1.546875 -2.65625 2.234375 -5.21875q0.6875 -2.5625 0.6875 -5.15625q0 -3.875 -1.359375 -8.0l1.59375 0z" fill-rule="nonzero"/><path fill="#000000" fill-opacity="0.0" d="m464.7362 510.88058l370.29926 0l0 61.417328l-370.29926 0z" fill-rule="evenodd"/><path fill="#000000" d="m474.9862 545.08246l4.875 -0.46875q0.4375 2.453125 1.78125 3.609375q1.34375 1.140625 3.640625 1.140625q2.40625 0 3.640625 -1.015625q1.234375 -1.03125 1.234375 -2.390625q0 -0.890625 -0.53125 -1.5q-0.515625 -0.625 -1.796875 -1.078125q-0.875 -0.296875 -4.015625 -1.078125q-4.015625 -1.0 -5.640625 -2.453125q-2.28125 -2.046875 -2.28125 -5.0q0 -1.890625 1.0625 -3.53125q1.078125 -1.65625 3.09375 -2.515625q2.03125 -0.875 4.890625 -0.875q4.671875 0 7.03125 2.046875q2.359375 2.046875 2.484375 5.46875l-5.015625 0.21875q-0.328125 -1.90625 -1.390625 -2.734375q-1.046875 -0.84375 -3.15625 -0.84375q-2.1875 0 -3.421875 0.890625q-0.796875 0.578125 -0.796875 1.546875q0 0.875 0.75 1.5q0.9375 0.796875 4.59375 1.65625q3.65625 0.859375 5.40625 1.78125q1.75 0.921875 2.734375 2.53125q1.0 1.59375 1.0 3.953125q0 2.125 -1.1875 3.984375q-1.1875 1.859375 -3.359375 2.765625q-2.15625 0.90625 -5.390625 0.90625q-4.703125 0 -7.21875 -2.171875q-2.515625 -2.171875 -3.015625 -6.34375zm29.974823 8.078125l0 -20.609375l-7.359375 0l0 -4.203125l19.703156 0l0 4.203125l-7.3437805 0l0 20.609375l-5.0 0zm35.377777 0l-5.453125 0l-2.15625 -5.640625l-9.921875 0l-2.046875 5.640625l-5.3125 0l9.65625 -24.8125l5.296875 0l9.9375 24.8125zm-9.21875 -9.8125l-3.421875 -9.203125l-3.34375 9.203125l6.765625 0zm11.886963 9.8125l0 -24.8125l10.546875 0q3.984375 0 5.78125 0.671875q1.796875 0.671875 2.875 2.390625q1.09375 1.703125 1.09375 3.890625q0 2.796875 -1.640625 4.625q-1.640625 1.8125 -4.90625 2.28125q1.625 0.953125 2.671875 2.09375q1.0625 1.125 2.859375 4.015625l3.03125 4.84375l-6.0 0l-3.609375 -5.390625q-1.9375 -2.90625 -2.65625 -3.65625q-0.703125 -0.75 -1.5 -1.03125q-0.796875 -0.28125 -2.515625 -0.28125l-1.015625 0l0 10.359375l-5.015625 0zm5.015625 -14.3125l3.703125 0q3.609375 0 4.5 -0.296875q0.90625 -0.3125 1.40625 -1.0625q0.515625 -0.75 0.515625 -1.859375q0 -1.25 -0.671875 -2.015625q-0.671875 -0.78125 -1.890625 -0.984375q-0.609375 -0.078125 -3.65625 -0.078125l-3.90625 0l0 6.296875zm25.590149 14.3125l0 -20.609375l-7.359375 0l0 -4.203125l19.703125 0l0 4.203125l-7.34375 0l0 20.609375l-5.0 0z" fill-rule="nonzero"/><path fill="#cfe2f3" d="m360.84122 384.51968l0 0c0 -2.156952 1.7485352 -3.9055176 3.905487 -3.9055176l0 0c1.0358276 0 2.0292053 0.4114685 2.7616272 1.1438904c0.7324219 0.7324524 1.1438904 1.7258301 1.1438904 2.7616272l0 0c0 2.156952 -1.7485352 3.9055176 -3.9055176 3.9055176l0 0c-2.156952 0 -3.905487 -1.7485657 -3.905487 -3.9055176z" fill-rule="evenodd"/><path stroke="#000000" stroke-width="1.0" stroke-linejoin="round" stroke-linecap="butt" d="m360.84122 384.51968l0 0c0 -2.156952 1.7485352 -3.9055176 3.905487 -3.9055176l0 0c1.0358276 0 2.0292053 0.4114685 2.7616272 1.1438904c0.7324219 0.7324524 1.1438904 1.7258301 1.1438904 2.7616272l0 0c0 2.156952 -1.7485352 3.9055176 -3.9055176 3.9055176l0 0c-2.156952 0 -3.905487 -1.7485657 -3.905487 -3.9055176z" fill-rule="evenodd"/><path fill="#ffffff" d="m788.80457 228.2487l0 0c0 -39.075714 31.677124 -70.75285 70.75287 -70.75285l0 0c18.76477 0 36.761047 7.4543 50.029785 20.723038c13.268738 13.268723 20.723022 31.265 20.723022 50.029816l0 0c0 39.0757 -31.677124 70.75285 -70.75281 70.75285l0 0c-39.075745 0 -70.75287 -31.677155 -70.75287 -70.75285z" fill-rule="evenodd"/><path stroke="#796489" stroke-width="4.0" stroke-linejoin="round" stroke-linecap="butt" d="m788.80457 228.2487l0 0c0 -39.075714 31.677124 -70.75285 70.75287 -70.75285l0 0c18.76477 0 36.761047 7.4543 50.029785 20.723038c13.268738 13.268723 20.723022 31.265 20.723022 50.029816l0 0c0 39.0757 -31.677124 70.75285 -70.75281 70.75285l0 0c-39.075745 0 -70.75287 -31.677155 -70.75287 -70.75285z" fill-rule="evenodd"/><path fill="#796489" d="m814.827 183.51836l44.699158 41.416428l43.928345 -40.583252l-40.58319 43.928345l41.41638 44.69922l-44.69922 -41.416428l-43.928345 40.583237l40.583252 -43.92833z" fill-rule="evenodd"/><path fill="#796489" d="m767.05457 228.2487l82.104065 -10.4478l10.398804 -82.491l10.398743 82.491l82.104065 10.4478l-82.104065 10.447784l-10.398743 82.49101l-10.398804 -82.49101z" fill-rule="evenodd"/><path stroke="#ffffff" stroke-width="3.0" stroke-linejoin="round" stroke-linecap="butt" d="m767.05457 228.2487l82.104065 -10.4478l10.398804 -82.491l10.398743 82.491l82.104065 10.4478l-82.104065 10.447784l-10.398743 82.49101l-10.398804 -82.49101z" fill-rule="evenodd"/><path fill="#000000" fill-opacity="0.0" d="m843.52454 109.01655l26.351868 0l0 48.4797l-26.351868 0z" fill-rule="evenodd"/><path fill="#796489" d="m854.3058 141.05655l0 -17.1875l3.375 0l7.03125 11.484375l0 -11.484375l3.21875 0l0 17.1875l-3.46875 0l-6.9375 -11.203125l0 11.203125l-3.21875 0z" fill-rule="nonzero"/><path fill="#000000" fill-opacity="0.0" d="m744.5798 204.00749l26.351868 0l0 48.479706l-26.351868 0z" fill-rule="evenodd"/><path fill="#796489" d="m757.7673 236.0475l-4.109375 -17.1875l3.5625 0l2.578125 11.8125l3.140625 -11.8125l4.125 0l3.015625 12.0l2.640625 -12.0l3.484375 0l-4.171875 17.1875l-3.671875 0l-3.421875 -12.84375l-3.40625 12.84375l-3.765625 0z" fill-rule="nonzero"/><path fill="#000000" fill-opacity="0.0" d="m935.20154 200.73427l26.351868 0l0 48.47969l-26.351868 0z" fill-rule="evenodd"/><path fill="#796489" d="m945.95154 232.77426l0 -17.1875l12.734375 0l0 2.90625l-9.265625 0l0 3.8125l8.625 0l0 2.890625l-8.625 0l0 4.6875l9.59375 0l0 2.890625l-13.0625 0z" fill-rule="nonzero"/><path fill="#000000" fill-opacity="0.0" d="m840.66626 299.0037l26.351868 0l0 48.479706l-26.351868 0z" fill-rule="evenodd"/><path fill="#796489" d="m850.54126 325.44995l3.375 -0.328125q0.296875 1.703125 1.21875 2.5q0.9375 0.796875 2.53125 0.796875q1.671875 0 2.515625 -0.703125q0.859375 -0.71875 0.859375 -1.671875q0 -0.609375 -0.359375 -1.03125q-0.359375 -0.421875 -1.25 -0.75q-0.609375 -0.203125 -2.78125 -0.75q-2.78125 -0.6875 -3.90625 -1.6875q-1.59375 -1.421875 -1.59375 -3.46875q0 -1.3125 0.75 -2.453125q0.75 -1.140625 2.140625 -1.734375q1.40625 -0.59375 3.390625 -0.59375q3.234375 0 4.859375 1.421875q1.640625 1.40625 1.71875 3.78125l-3.46875 0.140625q-0.21875 -1.3125 -0.953125 -1.890625q-0.734375 -0.59375 -2.203125 -0.59375q-1.5 0 -2.359375 0.625q-0.546875 0.40625 -0.546875 1.0625q0 0.609375 0.515625 1.046875q0.65625 0.546875 3.1875 1.15625q2.53125 0.59375 3.734375 1.234375q1.21875 0.640625 1.90625 1.75q0.6875 1.09375 0.6875 2.734375q0 1.46875 -0.828125 2.765625q-0.8125 1.28125 -2.3125 1.921875q-1.5 0.625 -3.75 0.625q-3.25 0 -5.0 -1.5q-1.75 -1.515625 -2.078125 -4.40625z" fill-rule="nonzero"/><path fill="#000000" fill-opacity="0.0" d="m903.77826 145.56955l47.212646 0l0 42.015747l-47.212646 0z" fill-rule="evenodd"/><path fill="#796489" d="m914.1689 172.48955l0 -13.359375l2.625 0l5.453125 8.921875l0 -8.921875l2.515625 0l0 13.359375l-2.703125 0l-5.390625 -8.703125l0 8.703125l-2.5 0zm13.441711 0l0 -13.359375l9.90625 0l0 2.265625l-7.21875 0l0 2.953125l6.71875 0l0 2.25l-6.71875 0l0 3.640625l7.46875 0l0 2.25l-10.15625 0z" fill-rule="nonzero"/><path fill="#000000" fill-opacity="0.0" d="m761.43304 145.56955l53.1969 0l0 42.015747l-53.1969 0z" fill-rule="evenodd"/><path fill="#796489" d="m771.82367 172.48955l0 -13.359375l2.625 0l5.453125 8.921875l0 -8.921875l2.515625 0l0 13.359375l-2.703125 0l-5.390625 -8.703125l0 8.703125l-2.5 0zm15.332336 0l-3.1875 -13.359375l2.765625 0l2.015625 9.171875l2.4375 -9.171875l3.203125 0l2.34375 9.328125l2.046875 -9.328125l2.71875 0l-3.25 13.359375l-2.859375 0l-2.65625 -9.984375l-2.65625 9.984375l-2.921875 0z" fill-rule="nonzero"/><path fill="#000000" fill-opacity="0.0" d="m767.0538 271.34384l53.1969 0l0 42.015747l-53.1969 0z" fill-rule="evenodd"/><path fill="#796489" d="m776.72565 293.92007l2.625 -0.25q0.234375 1.3125 0.953125 1.9375q0.734375 0.609375 1.96875 0.609375q1.296875 0 1.953125 -0.546875q0.671875 -0.546875 0.671875 -1.28125q0 -0.484375 -0.28125 -0.8125q-0.28125 -0.328125 -0.96875 -0.578125q-0.484375 -0.15625 -2.171875 -0.578125q-2.15625 -0.546875 -3.03125 -1.328125q-1.234375 -1.09375 -1.234375 -2.6875q0 -1.015625 0.578125 -1.90625q0.578125 -0.890625 1.65625 -1.34375q1.09375 -0.46875 2.640625 -0.46875q2.515625 0 3.78125 1.109375q1.28125 1.09375 1.34375 2.9375l-2.703125 0.109375q-0.171875 -1.03125 -0.75 -1.46875q-0.5625 -0.453125 -1.703125 -0.453125q-1.171875 0 -1.84375 0.46875q-0.421875 0.3125 -0.421875 0.84375q0 0.46875 0.40625 0.796875q0.5 0.4375 2.46875 0.90625q1.96875 0.453125 2.90625 0.953125q0.953125 0.5 1.484375 1.359375q0.53125 0.859375 0.53125 2.125q0 1.15625 -0.640625 2.15625q-0.640625 1.0 -1.8125 1.484375q-1.15625 0.484375 -2.890625 0.484375q-2.53125 0 -3.890625 -1.171875q-1.359375 -1.171875 -1.625 -3.40625zm15.0217285 4.34375l-3.1875 -13.359375l2.765625 0l2.015625 9.171875l2.4375 -9.171875l3.203125 0l2.34375 9.328125l2.046875 -9.328125l2.71875 0l-3.25 13.359375l-2.859375 0l-2.65625 -9.984375l-2.65625 9.984375l-2.921875 0z" fill-rule="nonzero"/><path fill="#000000" fill-opacity="0.0" d="m907.9042 271.34384l53.1969 0l0 42.015747l-53.1969 0z" fill-rule="evenodd"/><path fill="#796489" d="m917.57605 293.92007l2.625 -0.25q0.234375 1.3125 0.953125 1.9375q0.734375 0.609375 1.96875 0.609375q1.296875 0 1.953125 -0.546875q0.671875 -0.546875 0.671875 -1.28125q0 -0.484375 -0.28125 -0.8125q-0.28125 -0.328125 -0.96875 -0.578125q-0.484375 -0.15625 -2.171875 -0.578125q-2.15625 -0.546875 -3.03125 -1.328125q-1.234375 -1.09375 -1.234375 -2.6875q0 -1.015625 0.578125 -1.90625q0.578125 -0.890625 1.65625 -1.34375q1.09375 -0.46875 2.640625 -0.46875q2.515625 0 3.78125 1.109375q1.28125 1.09375 1.34375 2.9375l-2.703125 0.109375q-0.171875 -1.03125 -0.75 -1.46875q-0.5625 -0.453125 -1.703125 -0.453125q-1.171875 0 -1.84375 0.46875q-0.421875 0.3125 -0.421875 0.84375q0 0.46875 0.40625 0.796875q0.5 0.4375 2.46875 0.90625q1.96875 0.453125 2.90625 0.953125q0.953125 0.5 1.484375 1.359375q0.53125 0.859375 0.53125 2.125q0 1.15625 -0.640625 2.15625q-0.640625 1.0 -1.8125 1.484375q-1.15625 0.484375 -2.890625 0.484375q-2.53125 0 -3.890625 -1.171875q-1.359375 -1.171875 -1.625 -3.40625zm13.1311035 4.34375l0 -13.359375l9.90625 0l0 2.265625l-7.21875 0l0 2.953125l6.71875 0l0 2.25l-6.71875 0l0 3.640625l7.46875 0l0 2.25l-10.15625 0z" fill-rule="nonzero"/><path fill="#ffffff" d="m130.2454 382.37534l0 0c0 -15.620544 12.662933 -28.283478 28.283463 -28.283478l0 0c7.501236 0 14.695251 2.9798584 19.999435 8.284027c5.3041687 5.304199 8.284027 12.498199 8.284027 19.99945l0 0c0 15.620514 -12.662933 28.283447 -28.283463 28.283447l0 0c-15.620529 0 -28.283463 -12.662933 -28.283463 -28.283447z" fill-rule="evenodd"/><path stroke="#000000" stroke-width="2.0" stroke-linejoin="round" stroke-linecap="butt" d="m130.2454 382.37534l0 0c0 -15.620544 12.662933 -28.283478 28.283463 -28.283478l0 0c7.501236 0 14.695251 2.9798584 19.999435 8.284027c5.3041687 5.304199 8.284027 12.498199 8.284027 19.99945l0 0c0 15.620514 -12.662933 28.283447 -28.283463 28.283447l0 0c-15.620529 0 -28.283463 -12.662933 -28.283463 -28.283447z" fill-rule="evenodd"/><path fill="#000000" d="m153.93568 381.3222q-2.125 -0.890625 -3.09375 -2.46875q-0.96875 -1.578125 -0.96875 -3.453125q0 -3.203125 2.234375 -5.28125q2.234375 -2.09375 6.359375 -2.09375q4.078125 0 6.328125 2.09375q2.265625 2.078125 2.265625 5.28125q0 2.0 -1.03125 3.5625q-1.03125 1.546875 -2.90625 2.359375q2.375 0.953125 3.609375 2.796875q1.25 1.828125 1.25 4.234375q0 3.96875 -2.53125 6.453125q-2.53125 2.484375 -6.734375 2.484375q-3.90625 0 -6.5 -2.0625q-3.0625 -2.421875 -3.0625 -6.640625q0 -2.328125 1.140625 -4.265625q1.15625 -1.9375 3.640625 -3.0zm1.140625 -5.53125q0 1.640625 0.921875 2.5625q0.921875 0.921875 2.46875 0.921875q1.5625 0 2.5 -0.921875q0.9375 -0.9375 0.9375 -2.578125q0 -1.546875 -0.9375 -2.46875q-0.921875 -0.921875 -2.4375 -0.921875q-1.578125 0 -2.515625 0.9375q-0.9375 0.9375 -0.9375 2.46875zm-0.515625 12.265625q0 2.265625 1.15625 3.546875q1.171875 1.265625 2.90625 1.265625q1.703125 0 2.8125 -1.21875q1.109375 -1.21875 1.109375 -3.53125q0 -2.015625 -1.140625 -3.234375q-1.125 -1.21875 -2.859375 -1.21875q-2.015625 0 -3.0 1.390625q-0.984375 1.390625 -0.984375 3.0z" fill-rule="nonzero"/><path fill="#000000" fill-opacity="0.0" d="m1341.706 742.97925l-0.6928711 -202.98004" fill-rule="evenodd"/><path stroke="#9fc5e8" stroke-width="1.0" stroke-linejoin="round" stroke-linecap="butt" d="m1341.706 742.97925l-0.6928711 -202.98004" fill-rule="evenodd"/><path fill="#000000" fill-opacity="0.0" d="m1340.2782 253.65358l0.7244873 -249.39369" fill-rule="evenodd"/><path stroke="#c9daf8" stroke-width="1.0" stroke-linejoin="round" stroke-linecap="butt" d="m1340.2782 253.65358l0.70703125 -243.39372" fill-rule="evenodd"/><path fill="#c9daf8" stroke="#c9daf8" stroke-width="1.0" stroke-linecap="butt" d="m1342.637 10.264655l-1.6385498 -4.5428762l-1.664917 4.5332804z" fill-rule="evenodd"/><path fill="#000000" fill-opacity="0.0" d="m1330.0525 253.65358l21.417358 0" fill-rule="evenodd"/><path stroke="#9fc5e8" stroke-width="1.0" stroke-linejoin="round" stroke-linecap="butt" d="m1330.0525 253.65358l21.417358 0" fill-rule="evenodd"/><path fill="#000000" fill-opacity="0.0" d="m1329.9318 264.2341l21.417358 0" fill-rule="evenodd"/><path stroke="#9fc5e8" stroke-width="1.0" stroke-linejoin="round" stroke-linecap="butt" d="m1329.9318 264.2341l21.417358 0" fill-rule="evenodd"/><path fill="#000000" fill-opacity="0.0" d="m1340.9921 263.80258l0.09460449 133.0398" fill-rule="evenodd"/><path stroke="#9fc5e8" stroke-width="1.0" stroke-linejoin="round" stroke-linecap="butt" d="m1340.9921 263.80258l0.09460449 133.0398" fill-rule="evenodd"/><path fill="#000000" fill-opacity="0.0" d="m1340.7611 529.131l0 -124.345215" fill-rule="evenodd"/><path stroke="#9fc5e8" stroke-width="1.0" stroke-linejoin="round" stroke-linecap="butt" d="m1340.7611 529.131l0 -124.345215" fill-rule="evenodd"/><path fill="#000000" fill-opacity="0.0" d="m1330.3911 529.14166l21.417236 0" fill-rule="evenodd"/><path stroke="#9fc5e8" stroke-width="1.0" stroke-linejoin="round" stroke-linecap="butt" d="m1330.3911 529.14166l21.417236 0" fill-rule="evenodd"/><path fill="#000000" fill-opacity="0.0" d="m1330.2704 539.72217l21.417236 0" fill-rule="evenodd"/><path stroke="#9fc5e8" stroke-width="1.0" stroke-linejoin="round" stroke-linecap="butt" d="m1330.2704 539.72217l21.417236 0" fill-rule="evenodd"/><path fill="#000000" fill-opacity="0.0" d="m1034.0394 105.03937l-0.91345215 558.1732" fill-rule="evenodd"/><path stroke="#66501e" stroke-width="4.0" stroke-linejoin="round" stroke-linecap="butt" d="m1034.0394 105.03937l-0.8741455 534.1733" fill-rule="evenodd"/><path fill="#66501e" stroke="#66501e" stroke-width="4.0" stroke-linecap="butt" d="m1026.5583 639.20184l6.5771484 18.163147l6.6367188 -18.14154z" fill-rule="evenodd"/><path fill="#000000" fill-opacity="0.0" d="m1003.60236 385.46457l200.00006 -0.6929016" fill-rule="evenodd"/><path stroke="#9fc5e8" stroke-width="1.0" stroke-linejoin="round" stroke-linecap="butt" d="m1003.60236 385.46457l200.00006 -0.6929016" fill-rule="evenodd"/><path fill="#000000" fill-opacity="0.0" d="m1485.7441 384.03674l245.73218 0.72442627" fill-rule="evenodd"/><path stroke="#c9daf8" stroke-width="1.0" stroke-linejoin="round" stroke-linecap="butt" d="m1485.7441 384.03674l239.73218 0.7067261" fill-rule="evenodd"/><path fill="#c9daf8" stroke="#c9daf8" stroke-width="1.0" stroke-linecap="butt" d="m1725.4716 386.3952l4.5429688 -1.6383667l-4.533203 -1.6651001z" fill-rule="evenodd"/><path fill="#000000" fill-opacity="0.0" d="m1485.7441 373.81104l0 21.417297" fill-rule="evenodd"/><path stroke="#9fc5e8" stroke-width="1.0" stroke-linejoin="round" stroke-linecap="butt" d="m1485.7441 373.81104l0 21.417297" fill-rule="evenodd"/><path fill="#000000" fill-opacity="0.0" d="m1475.3188 373.69028l0 21.417328" fill-rule="evenodd"/><path stroke="#9fc5e8" stroke-width="1.0" stroke-linejoin="round" stroke-linecap="butt" d="m1475.3188 373.69028l0 21.417328" fill-rule="evenodd"/><path fill="#000000" fill-opacity="0.0" d="m1475.7441 384.75067l-131.08667 0.09448242" fill-rule="evenodd"/><path stroke="#9fc5e8" stroke-width="1.0" stroke-linejoin="round" stroke-linecap="butt" d="m1475.7441 384.75067l-131.08667 0.09448242" fill-rule="evenodd"/><path fill="#000000" fill-opacity="0.0" d="m1214.3005 384.51968l122.51965 0" fill-rule="evenodd"/><path stroke="#9fc5e8" stroke-width="1.0" stroke-linejoin="round" stroke-linecap="butt" d="m1214.3005 384.51968l122.51965 0" fill-rule="evenodd"/><path fill="#000000" fill-opacity="0.0" d="m1214.3005 374.1496l0 21.417328" fill-rule="evenodd"/><path stroke="#9fc5e8" stroke-width="1.0" stroke-linejoin="round" stroke-linecap="butt" d="m1214.3005 374.1496l0 21.417328" fill-rule="evenodd"/><path fill="#000000" fill-opacity="0.0" d="m1203.8754 374.02887l0 21.417328" fill-rule="evenodd"/><path stroke="#9fc5e8" stroke-width="1.0" stroke-linejoin="round" stroke-linecap="butt" d="m1203.8754 374.02887l0 21.417328" fill-rule="evenodd"/><path fill="#ffffff" d="m1004.8333 691.49603l0 0c0 -15.620483 12.662964 -28.283447 28.283508 -28.283447l0 0c7.5012207 0 14.69519 2.9798584 19.99939 8.284058c5.304199 5.304199 8.284058 12.498169 8.284058 19.99939l0 0c0 15.620544 -12.662964 28.283508 -28.283447 28.283508l0 0c-15.620544 0 -28.283508 -12.662964 -28.283508 -28.283508z" fill-rule="evenodd"/><path stroke="#000000" stroke-width="2.0" stroke-linejoin="round" stroke-linecap="butt" d="m1004.8333 691.49603l0 0c0 -15.620483 12.662964 -28.283447 28.283508 -28.283447l0 0c7.5012207 0 14.69519 2.9798584 19.99939 8.284058c5.304199 5.304199 8.284058 12.498169 8.284058 19.99939l0 0c0 15.620544 -12.662964 28.283508 -28.283447 28.283508l0 0c-15.620544 0 -28.283508 -12.662964 -28.283508 -28.283508z" fill-rule="evenodd"/><path fill="#000000" d="m1037.8673 705.89606l-5.5 0l0 -20.6875q-3.0 2.8125 -7.078125 4.15625l0 -4.96875q2.140625 -0.703125 4.65625 -2.671875q2.53125 -1.96875 3.46875 -4.578125l4.453125 0l0 28.75z" fill-rule="nonzero"/><path fill="#ffffff" d="m1005.7559 76.755905l0 0c0 -15.620525 12.662903 -28.283463 28.283508 -28.283463l0 0c7.5012207 0 14.69519 2.9798546 19.99939 8.284035c5.304199 5.3041763 8.284058 12.498184 8.284058 19.999428l0 0c0 15.620529 -12.662964 28.283463 -28.283447 28.283463l0 0c-15.620605 0 -28.283508 -12.662933 -28.283508 -28.283463z" fill-rule="evenodd"/><path stroke="#000000" stroke-width="2.0" stroke-linejoin="round" stroke-linecap="butt" d="m1005.7559 76.755905l0 0c0 -15.620525 12.662903 -28.283463 28.283508 -28.283463l0 0c7.5012207 0 14.69519 2.9798546 19.99939 8.284035c5.304199 5.3041763 8.284058 12.498184 8.284058 19.999428l0 0c0 15.620529 -12.662964 28.283463 -28.283447 28.283463l0 0c-15.620605 0 -28.283508 -12.662933 -28.283508 -28.283463z" fill-rule="evenodd"/><path fill="#000000" d="m1043.2743 86.06216l0 5.09375l-19.234375 0q0.3125 -2.890625 1.875 -5.46875q1.5625 -2.59375 6.171875 -6.875q3.703125 -3.453125 4.546875 -4.6875q1.140625 -1.703125 1.140625 -3.359375q0 -1.84375 -1.0 -2.828125q-0.984375 -0.984375 -2.71875 -0.984375q-1.71875 0 -2.734375 1.046875q-1.015625 1.03125 -1.171875 3.421875l-5.46875 -0.546875q0.484375 -4.53125 3.0625 -6.5q2.578125 -1.96875 6.453125 -1.96875q4.234375 0 6.65625 2.28125q2.421875 2.28125 2.421875 5.6875q0 1.9375 -0.703125 3.6875q-0.6875 1.734375 -2.1875 3.65625q-1.0 1.265625 -3.59375 3.65625q-2.59375 2.375 -3.296875 3.15625q-0.6875 0.78125 -1.109375 1.53125l10.890625 0z" fill-rule="nonzero"/><path fill="#ffffff" d="m1106.2454 691.49603l0 0c0 -15.620483 12.662964 -28.283447 28.28357 -28.283447l0 0c7.5012207 0 14.69519 2.9798584 19.99939 8.284058c5.304199 5.304199 8.284058 12.498169 8.284058 19.99939l0 0c0 15.620544 -12.662964 28.283508 -28.283447 28.283508l0 0c-15.620605 0 -28.28357 -12.662964 -28.28357 -28.283508z" fill-rule="evenodd"/><path stroke="#000000" stroke-width="2.0" stroke-linejoin="round" stroke-linecap="butt" d="m1106.2454 691.49603l0 0c0 -15.620483 12.662964 -28.283447 28.28357 -28.283447l0 0c7.5012207 0 14.69519 2.9798584 19.99939 8.284058c5.304199 5.304199 8.284058 12.498169 8.284058 19.99939l0 0c0 15.620544 -12.662964 28.283508 -28.283447 28.283508l0 0c-15.620605 0 -28.28357 -12.662964 -28.28357 -28.283508z" fill-rule="evenodd"/><path fill="#000000" d="m1125.2325 682.75543l0 -5.109375l18.765625 0l0 3.984375q-2.328125 2.296875 -4.734375 6.578125q-2.390625 4.265625 -3.65625 9.078125q-1.25 4.8125 -1.234375 8.609375l-5.296875 0q0.140625 -5.9375 2.453125 -12.109375q2.3125 -6.171875 6.1875 -11.03125l-12.484375 0z" fill-rule="nonzero"/><path fill="#ffffff" d="m1313.4948 76.755905l0 0c0 -15.620525 12.662964 -28.283463 28.283447 -28.283463l0 0c7.5012207 0 14.6953125 2.9798546 19.99939 8.284035c5.304199 5.3041763 8.284058 12.498184 8.284058 19.999428l0 0c0 15.620529 -12.662964 28.283463 -28.283447 28.283463l0 0c-15.620483 0 -28.283447 -12.662933 -28.283447 -28.283463z" fill-rule="evenodd"/><path stroke="#000000" stroke-width="2.0" stroke-linejoin="round" stroke-linecap="butt" d="m1313.4948 76.755905l0 0c0 -15.620525 12.662964 -28.283463 28.283447 -28.283463l0 0c7.5012207 0 14.6953125 2.9798546 19.99939 8.284035c5.304199 5.3041763 8.284058 12.498184 8.284058 19.999428l0 0c0 15.620529 -12.662964 28.283463 -28.283447 28.283463l0 0c-15.620483 0 -28.283447 -12.662933 -28.283447 -28.283463z" fill-rule="evenodd"/><path fill="#000000" d="m1343.2476 91.15591l0 -5.765625l-11.71875 0l0 -4.796875l12.421875 -18.1875l4.609375 0l0 18.15625l3.546875 0l0 4.828125l-3.546875 0l0 5.765625l-5.3125 0zm0 -10.59375l0 -9.78125l-6.59375 9.78125l6.59375 0z" fill-rule="nonzero"/><path fill="#ffffff" d="m1620.7231 691.49603l0 0c0 -15.620483 12.662842 -28.283447 28.283447 -28.283447l0 0c7.5012207 0 14.69519 2.9798584 19.99939 8.284058c5.304199 5.304199 8.284058 12.498169 8.284058 19.99939l0 0c0 15.620544 -12.662964 28.283508 -28.283447 28.283508l0 0c-15.620605 0 -28.283447 -12.662964 -28.283447 -28.283508z" fill-rule="evenodd"/><path stroke="#000000" stroke-width="2.0" stroke-linejoin="round" stroke-linecap="butt" d="m1620.7231 691.49603l0 0c0 -15.620483 12.662842 -28.283447 28.283447 -28.283447l0 0c7.5012207 0 14.69519 2.9798584 19.99939 8.284058c5.304199 5.304199 8.284058 12.498169 8.284058 19.99939l0 0c0 15.620544 -12.662964 28.283508 -28.283447 28.283508l0 0c-15.620605 0 -28.283447 -12.662964 -28.283447 -28.283508z" fill-rule="evenodd"/><path fill="#000000" d="m1639.7883 698.5367l5.46875 -0.578125q0.234375 1.859375 1.375 2.953125q1.15625 1.078125 2.671875 1.078125q1.71875 0 2.90625 -1.390625q1.1875 -1.40625 1.1875 -4.21875q0 -2.640625 -1.1875 -3.953125q-1.171875 -1.3125 -3.0625 -1.3125q-2.375 0 -4.25 2.078125l-4.453125 -0.640625l2.8125 -14.90625l14.515625 0l0 5.140625l-10.34375 0l-0.859375 4.859375q1.828125 -0.90625 3.75 -0.90625q3.640625 0 6.171875 2.65625q2.546875 2.65625 2.546875 6.890625q0 3.53125 -2.046875 6.3125q-2.796875 3.78125 -7.75 3.78125q-3.96875 0 -6.46875 -2.125q-2.5 -2.125 -2.984375 -5.71875z" fill-rule="nonzero"/><path fill="#000000" fill-opacity="0.0" d="m1447.0375 182.01518l-85.25989 -85.25985" fill-rule="evenodd"/><path stroke="#4b6fcd" stroke-width="4.0" stroke-linejoin="round" stroke-linecap="butt" d="m1447.0376 182.01517l-68.28943 -68.28928" fill-rule="evenodd"/><path fill="#4b6fcd" stroke="#4b6fcd" stroke-width="4.0" stroke-linecap="butt" d="m1383.42 109.05408l-17.507568 -8.163864l8.16394 17.507477z" fill-rule="evenodd"/><path fill="#ffffff" d="m1620.1116 76.755905l0 0c0 -15.620525 12.662964 -28.283463 28.283447 -28.283463l0 0c7.5012207 0 14.69519 2.9798546 19.99939 8.284035c5.304199 5.3041763 8.284058 12.498184 8.284058 19.999428l0 0c0 15.620529 -12.662964 28.283463 -28.283447 28.283463l0 0c-15.620483 0 -28.283447 -12.662933 -28.283447 -28.283463z" fill-rule="evenodd"/><path stroke="#000000" stroke-width="2.0" stroke-linejoin="round" stroke-linecap="butt" d="m1620.1116 76.755905l0 0c0 -15.620525 12.662964 -28.283463 28.283447 -28.283463l0 0c7.5012207 0 14.69519 2.9798546 19.99939 8.284035c5.304199 5.3041763 8.284058 12.498184 8.284058 19.999428l0 0c0 15.620529 -12.662964 28.283463 -28.283447 28.283463l0 0c-15.620483 0 -28.283447 -12.662933 -28.283447 -28.283463z" fill-rule="evenodd"/><path fill="#000000" d="m1657.6925 69.53091l-5.3125 0.59375q-0.203125 -1.640625 -1.03125 -2.421875q-0.8125 -0.78125 -2.109375 -0.78125q-1.75 0 -2.953125 1.5625q-1.1875 1.5625 -1.5 6.5q2.046875 -2.421875 5.09375 -2.421875q3.4375 0 5.890625 2.625q2.453125 2.609375 2.453125 6.75q0 4.390625 -2.578125 7.046875q-2.578125 2.65625 -6.625 2.65625q-4.34375 0 -7.140625 -3.359375q-2.78125 -3.375 -2.78125 -11.046875q0 -7.875 2.90625 -11.34375q2.90625 -3.484375 7.5625 -3.484375q3.265625 0 5.390625 1.828125q2.140625 1.828125 2.734375 5.296875zm-12.4375 11.96875q0 2.6875 1.21875 4.140625q1.234375 1.453125 2.8125 1.453125q1.53125 0 2.546875 -1.1875q1.015625 -1.203125 1.015625 -3.90625q0 -2.796875 -1.09375 -4.09375q-1.09375 -1.296875 -2.734375 -1.296875q-1.578125 0 -2.671875 1.234375q-1.09375 1.234375 -1.09375 3.65625z" fill-rule="nonzero"/><path fill="#000000" fill-opacity="0.0" d="m1629.0071 671.49664l-574.9606 -574.7402" fill-rule="evenodd"/><path stroke="#66501e" stroke-width="4.0" stroke-linejoin="round" stroke-linecap="butt" d="m1629.0071 671.49664l-557.9867 -557.7728" fill-rule="evenodd"/><path fill="#66501e" stroke="#66501e" stroke-width="4.0" stroke-linecap="butt" d="m1075.6913 109.05109l-17.509155 -8.160515l8.167236 17.50592z" fill-rule="evenodd"/><path fill="#000000" fill-opacity="0.0" d="m1053.1162 671.49664l575.27563 -574.7402" fill-rule="evenodd"/><path stroke="#66501e" stroke-width="4.0" stroke-linejoin="round" stroke-linecap="butt" d="m1053.1162 671.49664l558.2971 -557.7775" fill-rule="evenodd"/><path fill="#66501e" stroke="#66501e" stroke-width="4.0" stroke-linecap="butt" d="m1616.083 118.39312l8.172119 -17.503685l-17.511353 8.155724z" fill-rule="evenodd"/><path fill="#ffffff" d="m1313.4948 691.49603l0 0c0 -15.620483 12.662964 -28.283447 28.283447 -28.283447l0 0c7.5012207 0 14.6953125 2.9798584 19.99939 8.284058c5.304199 5.304199 8.284058 12.498169 8.284058 19.99939l0 0c0 15.620544 -12.662964 28.283508 -28.283447 28.283508l0 0c-15.620483 0 -28.283447 -12.662964 -28.283447 -28.283508z" fill-rule="evenodd"/><path stroke="#000000" stroke-width="2.0" stroke-linejoin="round" stroke-linecap="butt" d="m1313.4948 691.49603l0 0c0 -15.620483 12.662964 -28.283447 28.283447 -28.283447l0 0c7.5012207 0 14.6953125 2.9798584 19.99939 8.284058c5.304199 5.304199 8.284058 12.498169 8.284058 19.99939l0 0c0 15.620544 -12.662964 28.283508 -28.283447 28.283508l0 0c-15.620483 0 -28.283447 -12.662964 -28.283447 -28.283508z" fill-rule="evenodd"/><path fill="#000000" d="m1332.2788 698.3023l5.3125 -0.65625q0.265625 2.03125 1.375 3.109375q1.109375 1.078125 2.6875 1.078125q1.703125 0 2.859375 -1.28125q1.171875 -1.296875 1.171875 -3.484375q0 -2.078125 -1.125 -3.28125q-1.109375 -1.21875 -2.703125 -1.21875q-1.0625 0 -2.515625 0.421875l0.59375 -4.484375q2.234375 0.0625 3.40625 -0.953125q1.171875 -1.03125 1.171875 -2.734375q0 -1.4375 -0.859375 -2.296875q-0.859375 -0.859375 -2.28125 -0.859375q-1.40625 0 -2.40625 0.984375q-1.0 0.96875 -1.21875 2.84375l-5.046875 -0.859375q0.515625 -2.609375 1.578125 -4.15625q1.078125 -1.546875 2.96875 -2.4375q1.90625 -0.890625 4.28125 -0.890625q4.03125 0 6.484375 2.578125q2.0 2.109375 2.0 4.765625q0 3.765625 -4.109375 6.015625q2.453125 0.53125 3.921875 2.375q1.484375 1.828125 1.484375 4.421875q0 3.765625 -2.765625 6.421875q-2.75 2.65625 -6.84375 2.65625q-3.890625 0 -6.453125 -2.234375q-2.546875 -2.234375 -2.96875 -5.84375z" fill-rule="nonzero"/><path fill="#000000" fill-opacity="0.0" d="m1391.1672 168.7559l149.25977 0l0 61.417328l-149.25977 0z" fill-rule="evenodd"/><path fill="#000000" d="m1401.4172 202.95778l4.875 -0.46875q0.4375 2.453125 1.78125 3.609375q1.34375 1.140625 3.640625 1.140625q2.40625 0 3.640625 -1.015625q1.234375 -1.03125 1.234375 -2.390625q0 -0.890625 -0.53125 -1.5q-0.515625 -0.625 -1.796875 -1.078125q-0.875 -0.296875 -4.015625 -1.078125q-4.015625 -1.0 -5.640625 -2.453125q-2.28125 -2.046875 -2.28125 -5.0q0 -1.890625 1.0625 -3.53125q1.078125 -1.65625 3.09375 -2.515625q2.03125 -0.875 4.890625 -0.875q4.671875 0 7.03125 2.046875q2.359375 2.046875 2.484375 5.46875l-5.015625 0.21875q-0.328125 -1.90625 -1.390625 -2.734375q-1.046875 -0.84375 -3.15625 -0.84375q-2.1875 0 -3.421875 0.890625q-0.796875 0.578125 -0.796875 1.546875q0 0.875 0.75 1.5q0.9375 0.796875 4.59375 1.65625q3.65625 0.859375 5.40625 1.78125q1.75 0.921875 2.734375 2.53125q1.0 1.59375 1.0 3.953125q0 2.125 -1.1875 3.984375q-1.1875 1.859375 -3.359375 2.765625q-2.15625 0.90625 -5.390625 0.90625q-4.703125 0 -7.21875 -2.171875q-2.515625 -2.171875 -3.015625 -6.34375zm29.974731 8.078125l0 -20.609375l-7.359375 0l0 -4.203125l19.703125 0l0 4.203125l-7.34375 0l0 20.609375l-5.0 0zm35.377808 0l-5.453125 0l-2.15625 -5.640625l-9.921875 0l-2.046875 5.640625l-5.3125 0l9.65625 -24.8125l5.296875 0l9.9375 24.8125zm-9.21875 -9.8125l-3.421875 -9.203125l-3.34375 9.203125l6.765625 0zm11.886963 9.8125l0 -24.8125l10.546875 0q3.984375 0 5.78125 0.671875q1.796875 0.671875 2.875 2.390625q1.09375 1.703125 1.09375 3.890625q0 2.796875 -1.640625 4.625q-1.640625 1.8125 -4.90625 2.28125q1.625 0.953125 2.671875 2.09375q1.0625 1.125 2.859375 4.015625l3.03125 4.84375l-6.0 0l-3.609375 -5.390625q-1.9375 -2.90625 -2.65625 -3.65625q-0.703125 -0.75 -1.5 -1.03125q-0.796875 -0.28125 -2.515625 -0.28125l-1.015625 0l0 10.359375l-5.015625 0zm5.015625 -14.3125l3.703125 0q3.609375 0 4.5 -0.296875q0.90625 -0.3125 1.40625 -1.0625q0.515625 -0.75 0.515625 -1.859375q0 -1.25 -0.671875 -2.015625q-0.671875 -0.78125 -1.890625 -0.984375q-0.609375 -0.078125 -3.65625 -0.078125l-3.90625 0l0 6.296875zm25.59021 14.3125l0 -20.609375l-7.359375 0l0 -4.203125l19.703125 0l0 4.203125l-7.34375 0l0 20.609375l-5.0 0z" fill-rule="nonzero"/><path fill="#ffffff" d="m1106.2454 382.37534l0 0c0 -15.620544 12.662964 -28.283478 28.28357 -28.283478l0 0c7.5012207 0 14.69519 2.9798584 19.99939 8.284027c5.304199 5.304199 8.284058 12.498199 8.284058 19.99945l0 0c0 15.620514 -12.662964 28.283447 -28.283447 28.283447l0 0c-15.620605 0 -28.28357 -12.662933 -28.28357 -28.283447z" fill-rule="evenodd"/><path stroke="#000000" stroke-width="2.0" stroke-linejoin="round" stroke-linecap="butt" d="m1106.2454 382.37534l0 0c0 -15.620544 12.662964 -28.283478 28.28357 -28.283478l0 0c7.5012207 0 14.69519 2.9798584 19.99939 8.284027c5.304199 5.304199 8.284058 12.498199 8.284058 19.99945l0 0c0 15.620514 -12.662964 28.283447 -28.283447 28.283447l0 0c-15.620605 0 -28.28357 -12.662933 -28.28357 -28.283447z" fill-rule="evenodd"/><path fill="#000000" d="m1129.9357 381.3222q-2.125 -0.890625 -3.09375 -2.46875q-0.96875 -1.578125 -0.96875 -3.453125q0 -3.203125 2.234375 -5.28125q2.234375 -2.09375 6.359375 -2.09375q4.078125 0 6.328125 2.09375q2.265625 2.078125 2.265625 5.28125q0 2.0 -1.03125 3.5625q-1.03125 1.546875 -2.90625 2.359375q2.375 0.953125 3.609375 2.796875q1.25 1.828125 1.25 4.234375q0 3.96875 -2.53125 6.453125q-2.53125 2.484375 -6.734375 2.484375q-3.90625 0 -6.5 -2.0625q-3.0625 -2.421875 -3.0625 -6.640625q0 -2.328125 1.140625 -4.265625q1.15625 -1.9375 3.640625 -3.0zm1.140625 -5.53125q0 1.640625 0.921875 2.5625q0.921875 0.921875 2.46875 0.921875q1.5625 0 2.5 -0.921875q0.9375 -0.9375 0.9375 -2.578125q0 -1.546875 -0.9375 -2.46875q-0.921875 -0.921875 -2.4375 -0.921875q-1.578125 0 -2.515625 0.9375q-0.9375 0.9375 -0.9375 2.46875zm-0.515625 12.265625q0 2.265625 1.15625 3.546875q1.171875 1.265625 2.90625 1.265625q1.703125 0 2.8125 -1.21875q1.109375 -1.21875 1.109375 -3.53125q0 -2.015625 -1.140625 -3.234375q-1.125 -1.21875 -2.859375 -1.21875q-2.015625 0 -3.0 1.390625q-0.984375 1.390625 -0.984375 3.0z" fill-rule="nonzero"/><path fill="#cfe2f3" d="m1336.8412 384.51968l0 0c0 -2.156952 1.7485352 -3.9055176 3.9055176 -3.9055176l0 0c1.0357666 0 2.0291748 0.4114685 2.7615967 1.1438904c0.7324219 0.7324524 1.1439209 1.7258301 1.1439209 2.7616272l0 0c0 2.156952 -1.7485352 3.9055176 -3.9055176 3.9055176l0 0c-2.1569824 0 -3.9055176 -1.7485657 -3.9055176 -3.9055176z" fill-rule="evenodd"/><path stroke="#000000" stroke-width="1.0" stroke-linejoin="round" stroke-linecap="butt" d="m1336.8412 384.51968l0 0c0 -2.156952 1.7485352 -3.9055176 3.9055176 -3.9055176l0 0c1.0357666 0 2.0291748 0.4114685 2.7615967 1.1438904c0.7324219 0.7324524 1.1439209 1.7258301 1.1439209 2.7616272l0 0c0 2.156952 -1.7485352 3.9055176 -3.9055176 3.9055176l0 0c-2.1569824 0 -3.9055176 -1.7485657 -3.9055176 -3.9055176z" fill-rule="evenodd"/><path fill="#000000" fill-opacity="0.0" d="m1370.0616 691.49603l250.67725 0" fill-rule="evenodd"/><path stroke="#66501e" stroke-width="4.0" stroke-linejoin="round" stroke-linecap="butt" d="m1370.0616 691.49603l226.67725 0" fill-rule="evenodd"/><path fill="#66501e" stroke="#66501e" stroke-width="4.0" stroke-linecap="butt" d="m1596.7389 698.10297l18.152344 -6.6069336l-18.152344 -6.6068726z" fill-rule="evenodd"/></g></svg>