<svg width="30" height="30" viewBox="0 0 30 30" fill="none" xmlns="http://www.w3.org/2000/svg">
  <g clip-path="url(#clip0_13323_87770)">
    <mask id="path-1-inside-1_13323_87770" fill="white">
      <path d="M2 20.9238V-0.0878906L15 6.00008L28 -0.0878906V20.9238L15 29.9121L2 20.9238Z"/>
    </mask>
    <path d="M2 20.9238V-0.0878906L15 6.00008L28 -0.0878906V20.9238L15 29.9121L2 20.9238Z" fill="#E8F5FB"/>
    <path d="M2 20.9238H1C1 21.2522 1.1612 21.5596 1.43129 21.7464L2 20.9238ZM2 -0.0878906L2.4241 -0.993504C2.11437 -1.13855 1.75199 -1.11525 1.46339 -0.931722C1.17479 -0.748195 1 -0.429904 1 -0.0878906H2ZM15 6.00008L14.5759 6.90569L15 7.1043L15.4241 6.90569L15 6.00008ZM28 -0.0878906H29C29 -0.429904 28.8252 -0.748195 28.5366 -0.931722C28.248 -1.11525 27.8856 -1.13855 27.5759 -0.993504L28 -0.0878906ZM28 20.9238L28.5687 21.7464C28.8388 21.5596 29 21.2522 29 20.9238H28ZM15 29.9121L14.4313 30.7346C14.7735 30.9713 15.2265 30.9713 15.5687 30.7346L15 29.9121ZM3 20.9238V-0.0878906H1V20.9238H3ZM1.5759 0.817723L14.5759 6.90569L15.4241 5.09446L2.4241 -0.993504L1.5759 0.817723ZM15.4241 6.90569L28.4241 0.817723L27.5759 -0.993504L14.5759 5.09446L15.4241 6.90569ZM27 -0.0878906V20.9238H29V-0.0878906H27ZM27.4313 20.1013L14.4313 29.0896L15.5687 30.7346L28.5687 21.7464L27.4313 20.1013ZM15.5687 29.0896L2.56871 20.1013L1.43129 21.7464L14.4313 30.7346L15.5687 29.0896Z" fill="#0A425C" mask="url(#path-1-inside-1_13323_87770)"/>
    <path d="M14.8918 9.08082L15 9.13281L15.1082 9.08082L25.25 4.20991V19.6154L15.0077 26.5536L4.75 19.6133V4.20991L14.8918 9.08082Z" fill="#46B1E1" stroke="#0D5778" stroke-width="0.5" stroke-miterlimit="10"/>
    <path d="M15.6336 15.4897H17.9991V18.335C17.6476 18.5915 17.2724 18.7799 16.8734 18.9002C16.4775 19.0174 16.0579 19.076 15.6146 19.076C15.0478 19.076 14.5348 18.9889 14.0756 18.8147C13.6164 18.6374 13.2238 18.392 12.8976 18.0785C12.5714 17.765 12.3197 17.3929 12.1424 16.9622C11.965 16.5316 11.8764 16.0613 11.8764 15.5515C11.8764 15.0353 11.9603 14.5619 12.1281 14.1312C12.2991 13.7006 12.5414 13.3301 12.8549 13.0197C13.1684 12.7094 13.5468 12.4672 13.9901 12.293C14.4366 12.1188 14.9354 12.0317 15.4864 12.0317C15.7714 12.0317 16.0374 12.0555 16.2844 12.103C16.5314 12.1473 16.7594 12.2107 16.9684 12.293C17.1774 12.3722 17.3689 12.4672 17.5431 12.578C17.7173 12.6888 17.8756 12.8107 18.0181 12.9437L17.6049 13.5802C17.5415 13.6816 17.4592 13.7433 17.3579 13.7655C17.2565 13.7877 17.1457 13.7623 17.0254 13.6895C16.9114 13.6198 16.7989 13.5581 16.6881 13.5042C16.5804 13.4472 16.4649 13.3982 16.3414 13.357C16.2179 13.3158 16.0833 13.2842 15.9376 13.262C15.7919 13.2398 15.6241 13.2287 15.4341 13.2287C15.1143 13.2287 14.8245 13.2842 14.5649 13.395C14.3052 13.5058 14.0835 13.6626 13.8999 13.8652C13.7194 14.0679 13.58 14.3117 13.4819 14.5967C13.3837 14.8817 13.3346 15.2 13.3346 15.5515C13.3346 15.9315 13.3884 16.2719 13.4961 16.5727C13.6038 16.8704 13.7558 17.1222 13.9521 17.328C14.1484 17.5338 14.3828 17.6906 14.6551 17.7982C14.9306 17.9059 15.2362 17.9597 15.5719 17.9597C15.7999 17.9597 16.0025 17.9376 16.1799 17.8932C16.3604 17.8457 16.5361 17.7824 16.7071 17.7032V16.5442H15.9281C15.8363 16.5442 15.7634 16.5205 15.7096 16.473C15.6589 16.4223 15.6336 16.359 15.6336 16.283V15.4897Z" fill="white"/>
  </g>
  <defs>
    <clipPath id="clip0_13323_87770">
      <rect width="30" height="30" fill="white"/>
    </clipPath>
  </defs>
</svg>
