<svg width="30" height="30" viewBox="0 0 30 30" fill="none" xmlns="http://www.w3.org/2000/svg">
  <g clip-path="url(#clip0_13323_87778)">
    <mask id="path-1-inside-1_13323_87778" fill="white">
      <path d="M2 20.9238V-0.0878906L15 6.00008L28 -0.0878906V20.9238L15 29.9121L2 20.9238Z"/>
    </mask>
    <path d="M2 20.9238V-0.0878906L15 6.00008L28 -0.0878906V20.9238L15 29.9121L2 20.9238Z" fill="#E8F5FB"/>
    <path d="M2 20.9238H1C1 21.2522 1.1612 21.5596 1.43129 21.7464L2 20.9238ZM2 -0.0878906L2.4241 -0.993504C2.11437 -1.13855 1.75199 -1.11525 1.46339 -0.931722C1.17479 -0.748195 1 -0.429904 1 -0.0878906H2ZM15 6.00008L14.5759 6.90569L15 7.1043L15.4241 6.90569L15 6.00008ZM28 -0.0878906H29C29 -0.429904 28.8252 -0.748195 28.5366 -0.931722C28.248 -1.11525 27.8856 -1.13855 27.5759 -0.993504L28 -0.0878906ZM28 20.9238L28.5687 21.7464C28.8388 21.5596 29 21.2522 29 20.9238H28ZM15 29.9121L14.4313 30.7346C14.7735 30.9713 15.2265 30.9713 15.5687 30.7346L15 29.9121ZM3 20.9238V-0.0878906H1V20.9238H3ZM1.5759 0.817723L14.5759 6.90569L15.4241 5.09446L2.4241 -0.993504L1.5759 0.817723ZM15.4241 6.90569L28.4241 0.817723L27.5759 -0.993504L14.5759 5.09446L15.4241 6.90569ZM27 -0.0878906V20.9238H29V-0.0878906H27ZM27.4313 20.1013L14.4313 29.0896L15.5687 30.7346L28.5687 21.7464L27.4313 20.1013ZM15.5687 29.0896L2.56871 20.1013L1.43129 21.7464L14.4313 30.7346L15.5687 29.0896Z" fill="#0A425C" mask="url(#path-1-inside-1_13323_87778)"/>
    <path d="M14.8918 9.08082L15 9.13281L15.1082 9.08082L25.25 4.20991V19.6154L15.0077 26.5536L4.75 19.6133V4.20991L14.8918 9.08082Z" fill="#189EDA" stroke="#0D5778" stroke-width="0.5" stroke-miterlimit="10"/>
    <path d="M10.5415 14.953H10.8218C11.0561 14.953 11.2255 14.8802 11.33 14.7345L13.0733 12.4022C13.1556 12.2914 13.2459 12.2154 13.344 12.1742C13.4422 12.1299 13.5625 12.1077 13.705 12.1077H14.94L12.7455 14.934C12.603 15.1177 12.4558 15.2491 12.3038 15.3282C12.4146 15.3726 12.5144 15.4312 12.603 15.504C12.6917 15.5737 12.7772 15.6671 12.8595 15.7842L15.111 19H13.8428C13.7604 19 13.6892 18.9937 13.629 18.981C13.572 18.9683 13.5214 18.9509 13.477 18.9287C13.4327 18.9066 13.3947 18.8797 13.363 18.848C13.3314 18.8132 13.3013 18.7736 13.2728 18.7292L11.501 16.2497C11.4409 16.1642 11.3696 16.1041 11.2873 16.0692C11.2049 16.0312 11.0894 16.0122 10.9405 16.0122H10.5415V19H9.11653V12.1077H10.5415V14.953ZM17.147 14.953H17.4273C17.6616 14.953 17.831 14.8802 17.9355 14.7345L19.6788 12.4022C19.7611 12.2914 19.8513 12.2154 19.9495 12.1742C20.0477 12.1299 20.168 12.1077 20.3105 12.1077H21.5455L19.351 14.934C19.2085 15.1177 19.0613 15.2491 18.9093 15.3282C19.0201 15.3726 19.1198 15.4312 19.2085 15.504C19.2972 15.5737 19.3827 15.6671 19.465 15.7842L21.7165 19H20.4483C20.3659 19 20.2947 18.9937 20.2345 18.981C20.1775 18.9683 20.1268 18.9509 20.0825 18.9287C20.0382 18.9066 20.0002 18.8797 19.9685 18.848C19.9368 18.8132 19.9068 18.7736 19.8783 18.7292L18.1065 16.2497C18.0463 16.1642 17.9751 16.1041 17.8928 16.0692C17.8104 16.0312 17.6948 16.0122 17.546 16.0122H17.147V19H15.722V12.1077H17.147V14.953Z" fill="white"/>
  </g>
  <defs>
    <clipPath id="clip0_13323_87778">
      <rect width="30" height="30" fill="white"/>
    </clipPath>
  </defs>
</svg>
