<svg width="30" height="30" viewBox="0 0 30 30" fill="none" xmlns="http://www.w3.org/2000/svg">
  <g clip-path="url(#clip0_13323_87782)">
    <mask id="path-1-inside-1_13323_87782" fill="white">
      <path d="M2 20.9238V-0.0878906L15 6.00008L28 -0.0878906V20.9238L15 29.9121L2 20.9238Z"/>
    </mask>
    <path d="M2 20.9238V-0.0878906L15 6.00008L28 -0.0878906V20.9238L15 29.9121L2 20.9238Z" fill="#E8F5FB"/>
    <path d="M2 20.9238H1C1 21.2522 1.1612 21.5596 1.43129 21.7464L2 20.9238ZM2 -0.0878906L2.4241 -0.993504C2.11437 -1.13855 1.75199 -1.11525 1.46339 -0.931722C1.17479 -0.748195 1 -0.429904 1 -0.0878906H2ZM15 6.00008L14.5759 6.90569L15 7.1043L15.4241 6.90569L15 6.00008ZM28 -0.0878906H29C29 -0.429904 28.8252 -0.748195 28.5366 -0.931722C28.248 -1.11525 27.8856 -1.13855 27.5759 -0.993504L28 -0.0878906ZM28 20.9238L28.5687 21.7464C28.8388 21.5596 29 21.2522 29 20.9238H28ZM15 29.9121L14.4313 30.7346C14.7735 30.9713 15.2265 30.9713 15.5687 30.7346L15 29.9121ZM3 20.9238V-0.0878906H1V20.9238H3ZM1.5759 0.817723L14.5759 6.90569L15.4241 5.09446L2.4241 -0.993504L1.5759 0.817723ZM15.4241 6.90569L28.4241 0.817723L27.5759 -0.993504L14.5759 5.09446L15.4241 6.90569ZM27 -0.0878906V20.9238H29V-0.0878906H27ZM27.4313 20.1013L14.4313 29.0896L15.5687 30.7346L28.5687 21.7464L27.4313 20.1013ZM15.5687 29.0896L2.56871 20.1013L1.43129 21.7464L14.4313 30.7346L15.5687 29.0896Z" fill="#0A425C" mask="url(#path-1-inside-1_13323_87782)"/>
    <path d="M14.8918 9.08082L15 9.13281L15.1082 9.08082L25.25 4.20991V19.6154L15.0077 26.5536L4.75 19.6133V4.20991L14.8918 9.08082Z" fill="#1690C6" stroke="#0D5778" stroke-width="0.5" stroke-miterlimit="10"/>
    <path d="M17.9524 12.1077V19H17.2162C17.1053 19 17.0119 18.9826 16.9359 18.9477C16.8599 18.9097 16.7855 18.8464 16.7127 18.7577L13.2784 14.3877C13.2879 14.4986 13.2943 14.6078 13.2974 14.7155C13.3038 14.8232 13.3069 14.9229 13.3069 15.0147V19H12.0482V12.1077H12.7987C12.8588 12.1077 12.9095 12.1109 12.9507 12.1172C12.995 12.1204 13.0346 12.1315 13.0694 12.1505C13.1043 12.1663 13.1375 12.1885 13.1692 12.217C13.2008 12.2455 13.2357 12.2835 13.2737 12.331L16.7317 16.72C16.719 16.5997 16.7095 16.4841 16.7032 16.3732C16.6968 16.2592 16.6937 16.1516 16.6937 16.0502V12.1077H17.9524Z" fill="white"/>
  </g>
  <defs>
    <clipPath id="clip0_13323_87782">
      <rect width="30" height="30" fill="white"/>
    </clipPath>
  </defs>
</svg>
