<svg width="30" height="30" viewBox="0 0 30 30" fill="none" xmlns="http://www.w3.org/2000/svg">
  <g clip-path="url(#clip0_13323_87766)">
    <mask id="path-1-inside-1_13323_87766" fill="white">
      <path d="M2 20.9238V-0.0878906L15 6.00008L28 -0.0878906V20.9238L15 29.9121L2 20.9238Z"/>
    </mask>
    <path d="M2 20.9238V-0.0878906L15 6.00008L28 -0.0878906V20.9238L15 29.9121L2 20.9238Z" fill="#E8F5FB"/>
    <path d="M2 20.9238H1C1 21.2522 1.1612 21.5596 1.43129 21.7464L2 20.9238ZM2 -0.0878906L2.4241 -0.993504C2.11437 -1.13855 1.75199 -1.11525 1.46339 -0.931722C1.17479 -0.748195 1 -0.429904 1 -0.0878906H2ZM15 6.00008L14.5759 6.90569L15 7.1043L15.4241 6.90569L15 6.00008ZM28 -0.0878906H29C29 -0.429904 28.8252 -0.748195 28.5366 -0.931722C28.248 -1.11525 27.8856 -1.13855 27.5759 -0.993504L28 -0.0878906ZM28 20.9238L28.5687 21.7464C28.8388 21.5596 29 21.2522 29 20.9238H28ZM15 29.9121L14.4313 30.7346C14.7735 30.9713 15.2265 30.9713 15.5687 30.7346L15 29.9121ZM3 20.9238V-0.0878906H1V20.9238H3ZM1.5759 0.817723L14.5759 6.90569L15.4241 5.09446L2.4241 -0.993504L1.5759 0.817723ZM15.4241 6.90569L28.4241 0.817723L27.5759 -0.993504L14.5759 5.09446L15.4241 6.90569ZM27 -0.0878906V20.9238H29V-0.0878906H27ZM27.4313 20.1013L14.4313 29.0896L15.5687 30.7346L28.5687 21.7464L27.4313 20.1013ZM15.5687 29.0896L2.56871 20.1013L1.43129 21.7464L14.4313 30.7346L15.5687 29.0896Z" fill="#0A425C" mask="url(#path-1-inside-1_13323_87766)"/>
    <path d="M14.8918 9.08082L15 9.13281L15.1082 9.08082L25.25 4.20991V19.6154L15.0077 26.5536L4.75 19.6133V4.20991L14.8918 9.08082Z" fill="#64BEE6" stroke="#0D5778" stroke-width="0.5" stroke-miterlimit="10"/>
    <path d="M18.5314 15.5515C18.5314 16.055 18.4459 16.5221 18.2749 16.9527C18.1071 17.3834 17.868 17.7555 17.5577 18.069C17.2505 18.3825 16.88 18.6295 16.4462 18.81C16.0123 18.9873 15.531 19.076 15.0022 19.076C14.4733 19.076 13.992 18.9873 13.5582 18.81C13.1243 18.6295 12.7522 18.3825 12.4419 18.069C12.1316 17.7555 11.8909 17.3834 11.7199 16.9527C11.5521 16.5221 11.4682 16.055 11.4682 15.5515C11.4682 15.048 11.5521 14.5825 11.7199 14.155C11.8909 13.7243 12.1316 13.3522 12.4419 13.0387C12.7522 12.7252 13.1243 12.4798 13.5582 12.3025C13.992 12.122 14.4733 12.0317 15.0022 12.0317C15.531 12.0317 16.0123 12.122 16.4462 12.3025C16.88 12.4798 17.2505 12.7268 17.5577 13.0435C17.868 13.357 18.1071 13.7291 18.2749 14.1597C18.4459 14.5872 18.5314 15.0512 18.5314 15.5515ZM17.0732 15.5515C17.0732 15.1905 17.0257 14.8675 16.9307 14.5825C16.8357 14.2943 16.6979 14.0505 16.5174 13.851C16.3401 13.6483 16.1232 13.4947 15.8667 13.3902C15.6133 13.2826 15.3252 13.2287 15.0022 13.2287C14.6792 13.2287 14.3894 13.2826 14.1329 13.3902C13.8764 13.4947 13.6579 13.6483 13.4774 13.851C13.3001 14.0505 13.1639 14.2943 13.0689 14.5825C12.9739 14.8675 12.9264 15.1905 12.9264 15.5515C12.9264 15.9157 12.9739 16.2418 13.0689 16.53C13.1639 16.815 13.3001 17.0572 13.4774 17.2567C13.6579 17.4562 13.8764 17.6098 14.1329 17.7175C14.3894 17.822 14.6792 17.8742 15.0022 17.8742C15.3252 17.8742 15.6133 17.822 15.8667 17.7175C16.1232 17.6098 16.3401 17.4562 16.5174 17.2567C16.6979 17.0572 16.8357 16.815 16.9307 16.53C17.0257 16.2418 17.0732 15.9157 17.0732 15.5515Z" fill="white"/>
  </g>
  <defs>
    <clipPath id="clip0_13323_87766">
      <rect width="30" height="30" fill="white"/>
    </clipPath>
  </defs>
</svg>
