<svg width="30" height="30" viewBox="0 0 30 30" fill="none" xmlns="http://www.w3.org/2000/svg">
  <g clip-path="url(#clip0_13323_87786)">
    <mask id="path-1-inside-1_13323_87786" fill="white">
      <path d="M2 20.9238V-0.0878906L15 6.00008L28 -0.0878906V20.9238L15 29.9121L2 20.9238Z"/>
    </mask>
    <path d="M2 20.9238V-0.0878906L15 6.00008L28 -0.0878906V20.9238L15 29.9121L2 20.9238Z" fill="#E8F5FB"/>
    <path d="M2 20.9238H1C1 21.2522 1.1612 21.5596 1.43129 21.7464L2 20.9238ZM2 -0.0878906L2.4241 -0.993504C2.11437 -1.13855 1.75199 -1.11525 1.46339 -0.931722C1.17479 -0.748195 1 -0.429904 1 -0.0878906H2ZM15 6.00008L14.5759 6.90569L15 7.1043L15.4241 6.90569L15 6.00008ZM28 -0.0878906H29C29 -0.429904 28.8252 -0.748195 28.5366 -0.931722C28.248 -1.11525 27.8856 -1.13855 27.5759 -0.993504L28 -0.0878906ZM28 20.9238L28.5687 21.7464C28.8388 21.5596 29 21.2522 29 20.9238H28ZM15 29.9121L14.4313 30.7346C14.7735 30.9713 15.2265 30.9713 15.5687 30.7346L15 29.9121ZM3 20.9238V-0.0878906H1V20.9238H3ZM1.5759 0.817723L14.5759 6.90569L15.4241 5.09446L2.4241 -0.993504L1.5759 0.817723ZM15.4241 6.90569L28.4241 0.817723L27.5759 -0.993504L14.5759 5.09446L15.4241 6.90569ZM27 -0.0878906V20.9238H29V-0.0878906H27ZM27.4313 20.1013L14.4313 29.0896L15.5687 30.7346L28.5687 21.7464L27.4313 20.1013ZM15.5687 29.0896L2.56871 20.1013L1.43129 21.7464L14.4313 30.7346L15.5687 29.0896Z" fill="#0A425C" mask="url(#path-1-inside-1_13323_87786)"/>
    <path d="M14.8918 9.08082L15 9.13281L15.1082 9.08082L25.25 4.20991V19.6154L15.0077 26.5536L4.75 19.6133V4.20991L14.8918 9.08082Z" fill="#1690C6" stroke="#0D5778" stroke-width="0.5" stroke-miterlimit="10"/>
    <path d="M13.1655 13.4282C13.1211 13.5011 13.0752 13.5549 13.0277 13.5897C12.9834 13.6214 12.9248 13.6372 12.852 13.6372C12.7823 13.6372 12.7063 13.6135 12.624 13.566C12.5448 13.5153 12.4514 13.4615 12.3437 13.4045C12.236 13.3475 12.1125 13.2952 11.9732 13.2477C11.8339 13.1971 11.6708 13.1717 11.484 13.1717C11.1546 13.1717 10.9076 13.2462 10.743 13.395C10.5783 13.5407 10.496 13.7322 10.496 13.9697C10.496 14.1217 10.5403 14.2484 10.629 14.3497C10.7208 14.4479 10.8395 14.5334 10.9852 14.6062C11.134 14.6791 11.3019 14.744 11.4887 14.801C11.6755 14.858 11.8671 14.9213 12.0635 14.991C12.2598 15.0575 12.4514 15.1367 12.6382 15.2285C12.825 15.3203 12.9913 15.4359 13.137 15.5752C13.2858 15.7146 13.4045 15.8856 13.4932 16.0882C13.585 16.2877 13.631 16.5316 13.631 16.8197C13.631 17.1332 13.5755 17.4277 13.4647 17.7032C13.357 17.9756 13.2003 18.2147 12.9945 18.4205C12.7886 18.6232 12.5337 18.7831 12.2297 18.9002C11.9289 19.0174 11.5869 19.076 11.2037 19.076C10.9852 19.076 10.7667 19.0538 10.5482 19.0095C10.3329 18.9652 10.1239 18.9034 9.92121 18.8242C9.72171 18.7451 9.53329 18.6501 9.35596 18.5392C9.17863 18.4284 9.02346 18.3049 8.89046 18.1687L9.30846 17.4942C9.34329 17.4436 9.38921 17.4024 9.44621 17.3707C9.50321 17.3359 9.56338 17.3185 9.62671 17.3185C9.71221 17.3185 9.80246 17.3502 9.89746 17.4135C9.99246 17.4768 10.1017 17.5465 10.2252 17.6225C10.3487 17.6985 10.4912 17.7682 10.6527 17.8315C10.8174 17.8948 11.0137 17.9265 11.2417 17.9265C11.5742 17.9265 11.8307 17.8505 12.0112 17.6985C12.1949 17.5465 12.2867 17.3201 12.2867 17.0192C12.2867 16.8451 12.2408 16.7042 12.149 16.5965C12.0603 16.4888 11.9431 16.3986 11.7975 16.3257C11.6518 16.2529 11.4855 16.1912 11.2987 16.1405C11.1119 16.0867 10.9203 16.0281 10.724 15.9647C10.5276 15.9014 10.336 15.8254 10.1492 15.7367C9.96238 15.6481 9.79613 15.5309 9.65046 15.3852C9.50479 15.2396 9.38604 15.0591 9.29421 14.8437C9.20554 14.6284 9.16121 14.3608 9.16121 14.041C9.16121 13.7845 9.21188 13.5359 9.31321 13.2952C9.41454 13.0546 9.56338 12.8408 9.75971 12.654C9.95604 12.4672 10.1967 12.3167 10.4817 12.2027C10.7699 12.0887 11.0992 12.0317 11.4697 12.0317C11.8845 12.0317 12.2677 12.0967 12.6192 12.2265C12.9739 12.3532 13.2731 12.5305 13.517 12.7585L13.1655 13.4282ZM20.5686 12.1077V19H19.8324C19.7215 19 19.6281 18.9826 19.5521 18.9477C19.4761 18.9097 19.4017 18.8464 19.3289 18.7577L15.8946 14.3877C15.9041 14.4986 15.9105 14.6078 15.9136 14.7155C15.92 14.8232 15.9231 14.9229 15.9231 15.0147V19H14.6644V12.1077H15.4149C15.475 12.1077 15.5257 12.1109 15.5669 12.1172C15.6112 12.1204 15.6508 12.1315 15.6856 12.1505C15.7205 12.1663 15.7537 12.1885 15.7854 12.217C15.817 12.2455 15.8519 12.2835 15.8899 12.331L19.3479 16.72C19.3352 16.5997 19.3257 16.4841 19.3194 16.3732C19.313 16.2592 19.3099 16.1516 19.3099 16.0502V12.1077H20.5686Z" fill="white"/>
  </g>
  <defs>
    <clipPath id="clip0_13323_87786">
      <rect width="30" height="30" fill="white"/>
    </clipPath>
  </defs>
</svg>
